<svg width="477" height="684" viewBox="0 0 477 684" fill="none" xmlns="http://www.w3.org/2000/svg">
<g clip-path="url(#clip0_4965_578)">
<path d="M85.1649 521.601L72.6874 611.966C72.6389 612.329 73.0635 612.565 73.3425 612.323C78.8321 607.575 111.794 581.208 153.8 593.326C197.656 605.971 237.496 644.244 299.665 623.139C305.573 621.134 310.948 617.81 315.37 613.413L298.719 518.658L85.1649 521.595V521.601Z" fill="#020059"/>
<path d="M287.697 392.612C365.262 392.612 428.14 329.837 428.14 252.401C428.14 174.965 365.262 112.19 287.697 112.19C210.133 112.19 147.255 174.965 147.255 252.401C147.255 329.837 210.133 392.612 287.697 392.612Z" fill="#8E8EEF"/>
<path d="M155.122 538.811C154.297 538.715 150.719 544.001 150.112 544.74C147.734 547.641 145.581 550.85 142.53 553.103C138.581 556.022 133.303 556.077 128.621 556.664C119.455 557.815 110.193 557.863 101.021 559.02C92.4439 560.098 84.0913 562.441 75.4656 563.295C74.1251 563.428 72.6996 563.519 71.4986 562.914C67.6225 560.958 73.6337 550.76 74.6771 548.222C77.0246 542.499 79.372 536.771 81.7195 531.048L81.9561 530.467C81.9561 530.467 155.098 538.805 155.116 538.811H155.122Z" fill="#FCF594"/>
<path d="M228.567 545.364L232.838 549.918C239.923 557.482 250.186 561.23 260.492 560.019L317.432 553.321C320.52 552.958 322.218 549.542 320.629 546.866L308.461 526.367L228.573 545.358L228.567 545.364Z" fill="#FCF594"/>
<path d="M143.427 210.15C158.372 210.15 170.487 195.002 170.487 176.316C170.487 157.63 158.372 142.482 143.427 142.482C128.482 142.482 116.367 157.63 116.367 176.316C116.367 195.002 128.482 210.15 143.427 210.15Z" fill="#020059"/>
<path d="M131.277 226.185C131.277 226.185 86.0804 235.723 66.0085 255.641C66.0085 255.641 50.8682 248.253 44.1715 255.641C37.4687 263.029 49.285 268.037 49.285 268.037C49.285 268.037 40.6047 355.998 47.1923 371.041C47.1923 371.041 16.5658 402.477 19.253 434.324L72.5354 475.359L74.4522 540.095C74.4522 540.095 131.653 533.458 174.897 554.199C218.14 574.935 298.5 527.523 312.294 528.268C326.088 529.013 308.685 511.718 308.685 511.718L325.354 458.759L350.357 410.216L371.782 400.181L324.984 266.299C324.984 266.299 347.767 241.803 317.602 246.763L249.513 219.518L131.277 226.191V226.185Z" fill="#74EFDB"/>
<path d="M305.585 385.986L357.745 390.849C367.942 391.8 376.774 398.292 380.71 407.727L384.465 416.72C386.479 421.54 386.4 426.978 384.253 431.738C382.136 436.438 379.309 442.669 376.689 448.362C373.092 456.18 357.569 465.699 346.766 468.376C343.957 469.072 341.003 468.933 338.231 468.091L309.801 459.438L305.585 385.974V385.986Z" fill="white"/>
<path d="M110.24 397.583L104.787 358.881L159.932 358.354L158.567 402.828L110.24 397.583Z" fill="white"/>
<path d="M105.431 402.828L99.9775 364.119L155.122 363.598V399.424L105.431 402.828Z" fill="#020059"/>
<path d="M13.5697 495.361L5.77504 459.989C4.79844 455.568 5.72651 450.947 8.32876 447.241C17.2456 434.536 41.606 407.896 85.2376 415.654C141.953 425.737 52.4639 487.143 52.4639 487.143L13.5697 495.361Z" fill="white"/>
<path d="M181.235 342.275L185.36 363.101C185.7 364.821 187.034 366.172 188.751 366.541L193.792 367.619L194.871 371.949C195.49 374.432 197.656 376.218 200.215 376.358L202.011 376.455C207.118 376.733 211.886 373.905 214.082 369.291C214.082 369.291 210.218 340.544 209.253 339.581C208.289 338.618 190.316 327.62 190.316 327.62L181.235 342.282V342.275Z" fill="#020059"/>
<path d="M246.619 351.692C247.559 352.552 319.967 387.004 340.476 396.754C345.28 399.037 349.217 402.81 351.643 407.539C356.344 416.702 360.384 433.319 348.137 456.519C345.553 461.418 341.289 465.233 336.102 467.201C329.897 469.557 320.792 471.785 311.25 469.872C294.102 466.438 226.541 374.71 226.541 374.71C226.541 374.71 191.729 374.365 194.556 340.81C194.556 340.81 190.206 341.979 188.587 335.457C188.587 335.457 178.348 358.22 162.249 352.352C161.169 351.959 160.314 351.099 159.926 350.015C159.556 348.979 159.641 347.829 160.168 346.86L177.62 314.806C179.306 311.712 182.266 309.513 185.718 308.799C186.84 308.563 187.998 308.496 189.139 308.587L222.167 311.276C223.89 311.415 225.461 312.317 226.45 313.734L228.191 316.229C229.956 318.755 231.527 321.407 232.904 324.169L246.625 351.698L246.619 351.692Z" fill="#FF7A8A"/>
<path d="M45.7545 439.653L83.5447 418.518L82.1739 408.157C81.8645 405.831 82.5257 403.488 84.0057 401.665L90.3567 393.835L93.5413 378.877C93.7354 377.963 94.16 377.109 94.7726 376.4L96.101 374.862C97.2293 373.56 98.7276 372.633 100.402 372.222L101.093 372.052L105.43 402.834L143.433 392.4L149.456 391.013C153.824 390.462 157.178 393.702 158.731 397.813C159.131 398.885 159.344 400.018 159.344 401.156L158.045 411.663L163.438 419.493L166.568 426.118C168.036 429.219 168.424 432.719 167.678 436.068L164.506 450.287C163.438 455.083 160.993 459.468 157.469 462.902L157.014 463.344C152.695 467.559 147.012 470.096 140.982 470.502L127.971 471.374L101.384 463.967C101.384 463.967 46.907 559.94 13.5752 495.367C13.5752 495.367 16.7537 455.883 45.7606 439.659L45.7545 439.653Z" fill="#FF7A8A"/>
<path d="M249.513 219.512C249.513 219.512 239.571 286.18 173.132 276.945C173.132 276.945 136.882 274.565 131.277 226.185L146.503 219.512V142.482L207.367 149.543L213.124 159.232L220.834 172.204L223.314 205.462L223.606 209.368L249.513 219.512Z" fill="#FF7A8A"/>
<path d="M137.579 161.588C156.547 161.588 171.924 140.833 171.924 115.23C171.924 89.628 156.547 68.873 137.579 68.873C118.611 68.873 103.234 89.628 103.234 115.23C103.234 140.833 118.611 161.588 137.579 161.588Z" fill="#020059"/>
<path d="M223.314 205.462C191.305 199.019 181.575 154.181 179.992 154.066L213.124 159.232L220.834 172.204L223.314 205.462Z" fill="#020059"/>
<path d="M167.187 119.463C167.187 119.463 158.203 102.713 145.471 104.851C132.739 106.988 141.953 135.62 156.62 140.435C171.287 145.243 167.187 119.463 167.187 119.463Z" fill="#FF7A8A"/>
<path d="M250.331 74.4505L267.376 138.654L256.603 138.594C256.603 138.594 259.406 183.795 233.013 183.528C206.615 183.262 152.059 134.888 152.059 134.888L167.187 109.798L173.119 76.9697C173.119 76.9697 193.543 56.8098 194.92 56.8098H228.573L250.331 74.4383V74.4505Z" fill="#FF7A8A"/>
<path d="M288.528 219.796C292.186 219.796 295.152 216.836 295.152 213.183C295.152 209.531 292.186 206.57 288.528 206.57C284.87 206.57 281.904 209.531 281.904 213.183C281.904 216.836 284.87 219.796 288.528 219.796Z" fill="#756DE7"/>
<path d="M311.56 219.796C315.219 219.796 318.184 216.836 318.184 213.183C318.184 209.531 315.219 206.57 311.56 206.57C307.902 206.57 304.937 209.531 304.937 213.183C304.937 216.836 307.902 219.796 311.56 219.796Z" fill="#756DE7"/>
<path d="M334.599 219.796C338.257 219.796 341.222 216.836 341.222 213.183C341.222 209.531 338.257 206.57 334.599 206.57C330.94 206.57 327.975 209.531 327.975 213.183C327.975 216.836 330.94 219.796 334.599 219.796Z" fill="#756DE7"/>
<path d="M357.63 219.796C361.288 219.796 364.254 216.836 364.254 213.183C364.254 209.531 361.288 206.57 357.63 206.57C353.972 206.57 351.006 209.531 351.006 213.183C351.006 216.836 353.972 219.796 357.63 219.796Z" fill="#756DE7"/>
<path d="M380.662 219.796C384.32 219.796 387.286 216.836 387.286 213.183C387.286 209.531 384.32 206.57 380.662 206.57C377.004 206.57 374.038 209.531 374.038 213.183C374.038 216.836 377.004 219.796 380.662 219.796Z" fill="#756DE7"/>
<path d="M334.599 197.917C338.257 197.917 341.222 194.956 341.222 191.304C341.222 187.651 338.257 184.691 334.599 184.691C330.94 184.691 327.975 187.651 327.975 191.304C327.975 194.956 330.94 197.917 334.599 197.917Z" fill="#756DE7"/>
<path d="M357.63 197.917C361.288 197.917 364.254 194.956 364.254 191.304C364.254 187.651 361.288 184.691 357.63 184.691C353.972 184.691 351.006 187.651 351.006 191.304C351.006 194.956 353.972 197.917 357.63 197.917Z" fill="#756DE7"/>
<path d="M380.662 197.917C384.32 197.917 387.286 194.956 387.286 191.304C387.286 187.651 384.32 184.691 380.662 184.691C377.004 184.691 374.038 187.651 374.038 191.304C374.038 194.956 377.004 197.917 380.662 197.917Z" fill="#756DE7"/>
<path d="M288.528 176.043C292.186 176.043 295.152 173.082 295.152 169.43C295.152 165.778 292.186 162.817 288.528 162.817C284.87 162.817 281.904 165.778 281.904 169.43C281.904 173.082 284.87 176.043 288.528 176.043Z" fill="#756DE7"/>
<path d="M311.56 176.043C315.219 176.043 318.184 173.082 318.184 169.43C318.184 165.778 315.219 162.817 311.56 162.817C307.902 162.817 304.937 165.778 304.937 169.43C304.937 173.082 307.902 176.043 311.56 176.043Z" fill="#756DE7"/>
<path d="M334.599 176.043C338.257 176.043 341.222 173.082 341.222 169.43C341.222 165.778 338.257 162.817 334.599 162.817C330.94 162.817 327.975 165.778 327.975 169.43C327.975 173.082 330.94 176.043 334.599 176.043Z" fill="#756DE7"/>
<path d="M288.528 154.163C292.186 154.163 295.152 151.202 295.152 147.55C295.152 143.898 292.186 140.937 288.528 140.937C284.87 140.937 281.904 143.898 281.904 147.55C281.904 151.202 284.87 154.163 288.528 154.163Z" fill="#756DE7"/>
<path d="M311.56 154.163C315.219 154.163 318.184 151.202 318.184 147.55C318.184 143.898 315.219 140.937 311.56 140.937C307.902 140.937 304.937 143.898 304.937 147.55C304.937 151.202 307.902 154.163 311.56 154.163Z" fill="#756DE7"/>
<path d="M334.599 154.163C338.257 154.163 341.222 151.202 341.222 147.55C341.222 143.898 338.257 140.937 334.599 140.937C330.94 140.937 327.975 143.898 327.975 147.55C327.975 151.202 330.94 154.163 334.599 154.163Z" fill="#756DE7"/>
<path d="M357.63 154.163C361.288 154.163 364.254 151.202 364.254 147.55C364.254 143.898 361.288 140.937 357.63 140.937C353.972 140.937 351.006 143.898 351.006 147.55C351.006 151.202 353.972 154.163 357.63 154.163Z" fill="#756DE7"/>
<path d="M380.662 154.163C384.32 154.163 387.286 151.202 387.286 147.55C387.286 143.898 384.32 140.937 380.662 140.937C377.004 140.937 374.038 143.898 374.038 147.55C374.038 151.202 377.004 154.163 380.662 154.163Z" fill="#756DE7"/>
<path d="M403.7 154.163C407.358 154.163 410.324 151.202 410.324 147.55C410.324 143.898 407.358 140.937 403.7 140.937C400.042 140.937 397.076 143.898 397.076 147.55C397.076 151.202 400.042 154.163 403.7 154.163Z" fill="#8E8EEF"/>
<path d="M334.599 132.29C338.257 132.29 341.222 129.329 341.222 125.677C341.222 122.024 338.257 119.064 334.599 119.064C330.94 119.064 327.975 122.024 327.975 125.677C327.975 129.329 330.94 132.29 334.599 132.29Z" fill="#756DE7"/>
<path d="M357.63 132.29C361.288 132.29 364.254 129.329 364.254 125.677C364.254 122.024 361.288 119.064 357.63 119.064C353.972 119.064 351.006 122.024 351.006 125.677C351.006 129.329 353.972 132.29 357.63 132.29Z" fill="#756DE7"/>
<path d="M341.159 104.862C341.743 101.256 339.289 97.8608 335.678 97.2776C332.067 96.6943 328.666 99.1442 328.081 102.75C327.497 106.355 329.951 109.75 333.562 110.334C337.174 110.917 340.575 108.467 341.159 104.862Z" fill="#8E8EEF"/>
<path d="M364.194 104.866C364.779 101.261 362.325 97.8655 358.713 97.2822C355.102 96.6989 351.701 99.1488 351.116 102.754C350.532 106.359 352.986 109.755 356.597 110.338C360.209 110.922 363.61 108.472 364.194 104.866Z" fill="#8E8EEF"/>
<path d="M250.332 78.641C276.074 78.641 296.942 61.0366 296.942 39.3205C296.942 17.6044 276.074 0 250.332 0C224.59 0 203.722 17.6044 203.722 39.3205C203.722 61.0366 224.59 78.641 250.332 78.641Z" fill="#020059"/>
<path d="M177.238 95.0522C198.112 95.0522 215.034 76.3606 215.034 53.3033C215.034 30.2461 198.112 11.5544 177.238 11.5544C156.363 11.5544 139.441 30.2461 139.441 53.3033C139.441 76.3606 156.363 95.0522 177.238 95.0522Z" fill="#020059"/>
<path d="M161.994 104.851C161.994 104.851 164.742 126.851 170.244 128.299C175.745 129.746 197.746 125.313 184.141 86.4893C170.535 47.6594 161.994 104.851 161.994 104.851Z" fill="#020059"/>
<path d="M110.478 419.487L137.635 470.592L127.96 471.368L101.373 463.961L92.4258 435.765L110.478 419.487Z" fill="#020059"/>
<path d="M150.008 158.487H147.582V164.276H150.008V158.487Z" fill="#020059"/>
<path d="M156.535 163.707H154.108V169.497H156.535V163.707Z" fill="#020059"/>
<path d="M150.008 171.386H147.582V177.175H150.008V171.386Z" fill="#020059"/>
<path d="M156.535 173.1H154.108V178.889H156.535V173.1Z" fill="#020059"/>
<path d="M163.068 178.32H160.642V184.109H163.068V178.32Z" fill="#020059"/>
<path d="M156.535 185.999H154.108V191.788H156.535V185.999Z" fill="#020059"/>
<path d="M283.415 424.217C283.269 424.217 283.136 424.181 283.039 424.144C282.141 423.799 281.498 423.545 284.124 407.612C284.937 402.689 285.823 397.753 286.351 394.907L263.925 413.377L262.767 411.978L287.121 391.915C287.418 391.673 287.831 391.637 288.164 391.836C288.492 392.03 288.668 392.412 288.595 392.787C286.484 403.96 284.446 416.326 284.106 421.026C288.031 416.562 297.748 409.907 298.209 409.598L299.234 411.1C299.113 411.185 286.988 419.487 284.537 423.442C284.155 424.066 283.742 424.223 283.415 424.223V424.217Z" fill="#020059"/>
<path d="M66.9733 513.232C66.6821 513.232 66.397 513.092 66.2211 512.838L53.4707 494.331L54.969 493.302L65.8875 509.144L64.1951 478.459C64.1769 478.102 64.365 477.769 64.6865 477.605C65.0019 477.442 65.3901 477.478 65.6691 477.696C82.3381 490.789 82.6778 491.497 82.7869 491.727L81.1492 492.515C81.1856 492.587 81.222 492.63 81.222 492.636C80.579 491.861 72.202 485.157 66.1301 480.373L67.8892 512.281C67.9135 512.687 67.6587 513.056 67.2766 513.189C67.1795 513.22 67.0825 513.238 66.9854 513.238L66.9733 513.232Z" fill="#020059"/>
<path d="M147.413 155.888L145.594 155.911L146.595 236.611L148.415 236.588L147.413 155.888Z" fill="#020059"/>
<path d="M221.742 184.021L219.93 184.185L223.446 222.832L225.258 222.667L221.742 184.021Z" fill="#020059"/>
<path d="M287.2 358.602C275.414 317.089 284.209 277.139 284.3 276.739L286.078 277.139C285.987 277.533 277.3 317.053 288.953 358.105L287.2 358.602Z" fill="#020059"/>
<path d="M114.123 345.97C111.047 303.106 69.2234 265.863 68.7988 265.494L69.9999 264.131C70.1091 264.228 80.8213 273.705 91.7641 288.421C101.888 302.028 114.299 323.036 115.93 345.842L114.117 345.97H114.123Z" fill="#020059"/>
<path d="M202.363 527.112L201.319 525.622L243.556 496.154C244.654 495.385 246.019 494.434 246.534 493.145C246.777 492.533 246.728 491.734 246.419 491.146C246.273 490.88 246.012 490.547 245.582 490.456C245.097 490.359 244.526 490.547 243.829 490.801L206.214 504.699C201.01 506.619 195.12 508.799 189.085 508.799H189.006C188.041 508.799 187.028 508.708 186.173 508.108C183.965 506.552 184.832 503.403 186.246 501.187C194.101 488.857 205.335 479.077 216.193 469.612C225.898 461.158 235.925 452.419 243.477 441.918L244.957 442.978C237.29 453.648 227.172 462.46 217.394 470.98C206.633 480.355 195.502 490.056 187.786 502.162C187.046 503.318 185.979 505.747 187.228 506.625C187.665 506.934 188.345 506.982 189.012 506.982H189.091C194.793 506.982 200.282 504.953 205.584 502.997L243.198 489.099C243.92 488.833 244.915 488.463 245.946 488.675C246.819 488.857 247.559 489.426 248.02 490.28C248.59 491.34 248.669 492.69 248.227 493.811C247.511 495.609 245.897 496.736 244.599 497.638L202.363 527.106V527.112Z" fill="#020059"/>
<path d="M254.486 83.0255C244.126 83.0255 232.801 80.809 222.713 73.8872C212.959 67.1895 209.059 59.3532 208.901 59.0262L210.539 58.2329C210.576 58.3116 214.433 66.0328 223.829 72.452C232.498 78.3746 247.814 84.3759 271.537 79.3375L271.913 81.1118C266.8 82.1958 260.825 83.0255 254.486 83.0255Z" fill="#020059"/>
<path d="M161.109 133.979C159.198 125.562 155.443 120.499 152.629 117.731C149.584 114.734 146.951 113.71 146.927 113.698L147.57 111.997C148.037 112.172 158.992 116.478 162.88 133.574L161.103 133.973L161.109 133.979Z" fill="#020059"/>
<path d="M476.994 280.694H368.519V296.469H476.994V280.694Z" fill="#FCF594"/>
<path d="M444.979 255.205H380.99V270.98H444.979V255.205Z" fill="#FCF594"/>
<path d="M287.258 573.76L285.498 574.224L314.521 683.967L316.28 683.504L287.258 573.76Z" fill="white"/>
<path d="M277.091 586.545L275.332 587.009L293.658 656.305L295.418 655.841L277.091 586.545Z" fill="white"/>
<path d="M29.2435 55.7984C20.1386 55.7984 12.7383 48.4042 12.7383 39.3204C12.7383 30.2367 20.1447 22.8425 29.2435 22.8425C38.3422 22.8425 45.7486 30.2367 45.7486 39.3204C45.7486 48.4042 38.3422 55.7984 29.2435 55.7984ZM29.2435 27.6811C22.8197 27.6811 17.591 32.9013 17.591 39.3144C17.591 45.7275 22.8197 50.9476 29.2435 50.9476C35.6672 50.9476 40.8959 45.7275 40.8959 39.3144C40.8959 32.9013 35.6672 27.6811 29.2435 27.6811Z" fill="#8E8EEF"/>
<path d="M258.781 64.9973L258.587 63.1927C274.425 61.491 284.203 53.3883 287.648 39.1086L289.42 39.5325C285.829 54.4238 275.232 63.229 258.787 64.9973H258.781Z" fill="#756DE7"/>
<path d="M247.299 65.1607C236.981 64.4582 228.962 61.8845 228.628 61.7755L229.192 60.0496C229.271 60.0738 237.345 62.6596 247.426 63.35L247.305 65.1607H247.299Z" fill="#756DE7"/>
<path d="M145.957 73.536C146.812 73.7662 132.842 48.7435 125.242 51.9046C117.641 55.0657 125.509 68.0616 145.957 73.536Z" fill="#020059"/>
<path d="M139.217 69.097C139.83 68.8609 120.468 60.0072 117.314 65.2334C114.159 70.4535 124.574 74.7835 139.217 69.097Z" fill="#020059"/>
<path d="M319.87 471.792C314.751 471.792 311.202 470.805 311.002 470.744L311.499 469C311.566 469.018 318.123 470.841 326.118 469.448C336.776 467.595 344.825 461.206 350.042 450.469C362.604 424.635 351.024 408.248 350.909 408.084L352.383 407.012C352.511 407.182 364.715 424.453 351.686 451.262C344.831 465.36 334.131 469.914 326.361 471.253C324.031 471.652 321.836 471.798 319.87 471.798V471.792Z" fill="#020059"/>
<path d="M383.568 416.884C381.239 403.767 373.293 395.276 359.942 391.649C349.897 388.918 340.434 390.111 340.343 390.123L340.106 388.324C340.507 388.27 350.024 387.077 360.421 389.899C370.108 392.533 382.3 399.297 385.364 416.575L383.574 416.89L383.568 416.884Z" fill="#020059"/>
<path d="M28.7705 514.927C3.39703 499.697 16.7298 476.594 16.8693 476.364L18.4343 477.29C18.4039 477.345 15.2072 482.825 15.0192 489.983C14.7705 499.503 19.7142 507.376 29.7107 513.371L28.7705 514.927Z" fill="#020059"/>
<path d="M476.994 295.561H368.519V297.378H476.994V295.561Z" fill="#020059"/>
<path d="M167.023 354.218C166.417 354.218 165.828 354.175 165.258 354.09C160.969 353.455 159.216 350.602 159.144 350.481L160.702 349.543C160.757 349.633 162.14 351.813 165.586 352.298C169.249 352.813 175.819 351.444 186.282 341.955L187.507 343.299C179.507 350.548 172.628 354.212 167.023 354.212V354.218Z" fill="#020059"/>
<path d="M196.867 362.769C185.403 342.366 199.767 333.955 199.912 333.87L200.81 335.451L200.361 334.657L200.81 335.445C200.276 335.747 187.908 343.093 198.456 361.872L196.867 362.762V362.769Z" fill="#020059"/>
<path d="M131.428 391.769L96.0088 404.835L96.6395 406.54L132.059 393.473L131.428 391.769Z" fill="#020059"/>
<path d="M141.916 423.091L140.934 421.565L157.324 411.04C157.663 410.246 158.755 407.467 158.986 404.063C159.343 398.795 157.554 394.568 153.672 391.509L154.8 390.08C165.252 398.316 158.931 411.912 158.864 412.045L158.755 412.275L141.922 423.085L141.916 423.091Z" fill="#020059"/>
<path d="M163.592 435.9L154.634 441.686L155.622 443.212L164.581 437.426L163.592 435.9Z" fill="#020059"/>
<path d="M104.788 358.881L99.9775 364.119H111.77L104.788 358.881Z" fill="white"/>
<path d="M267.376 139.563H267.34L247.316 138.793L247.389 136.977L266.151 137.697L256.488 104.045L258.235 103.542L268.244 138.4C268.322 138.678 268.268 138.981 268.086 139.211C267.916 139.429 267.649 139.557 267.37 139.557L267.376 139.563Z" fill="#020059"/>
<path d="M72.6026 260.158C66.2456 256.622 55.7213 250.911 54.5264 250.651C54.5264 250.651 54.5688 250.657 54.6295 250.657V248.84C55.7638 248.84 65.5116 254.133 73.4882 258.572L72.6026 260.158Z" fill="#756DE7"/>
<path d="M324.45 241.182L305.845 254.446L306.902 255.925L325.508 242.661L324.45 241.182Z" fill="#8E8EEF"/>
<path d="M25.598 391.352L24.1543 390.25C44.6508 363.544 67.2097 365.058 68.162 365.136L68.0164 366.947C67.792 366.929 45.4576 365.488 25.604 391.358L25.598 391.352Z" fill="#756DE7"/>
<path d="M6.24176 477.163L4.55545 476.485C11.8041 458.523 21.2547 447.132 27.9029 440.743C29.9471 438.775 31.8518 437.152 33.532 435.832C15.3284 445.661 1.7591 470.732 1.60745 471.023L0 470.169C0.0424609 470.084 4.55545 461.697 11.7981 452.734C18.519 444.419 29.0433 433.888 41.0173 430.945C41.4722 430.83 41.9332 431.084 42.0909 431.52C42.2486 431.956 42.0484 432.441 41.6299 432.647C41.4115 432.75 19.8596 443.463 6.24782 477.169L6.24176 477.163Z" fill="#756DE7"/>
<path d="M371.782 466.438C371.642 466.438 371.502 466.408 371.369 466.341C370.969 466.136 370.775 465.669 370.92 465.245C384.95 423.406 362.088 408.46 361.852 408.315C361.439 408.06 361.306 407.527 361.542 407.103C361.779 406.679 362.307 406.522 362.737 406.734C387.334 418.827 384.732 448.568 384.702 448.87C384.684 449.028 384.629 449.179 384.538 449.312L372.522 466.069C372.346 466.317 372.067 466.45 371.782 466.45V466.438ZM369.155 413.038C370.556 414.903 372.006 417.217 373.292 420.039C379.352 433.313 377.556 448.586 374.269 460.504L382.906 448.459C383.07 446.03 383.98 425.465 369.149 413.044L369.155 413.038Z" fill="#756DE7"/>
<path d="M166.119 141.569C170.664 138.001 170.738 130.524 166.284 124.869C161.83 119.213 154.534 117.522 149.989 121.09C145.443 124.658 145.37 132.135 149.824 137.79C154.278 143.446 161.574 145.137 166.119 141.569Z" fill="#020059"/>
<path d="M230.836 158.923C230.709 158.923 218.17 158.402 203.497 155.175C183.65 150.814 169.522 143.844 161.521 134.458L163.833 132.496C181.963 153.758 230.466 155.877 230.957 155.901L230.842 158.929L230.836 158.923Z" fill="#020059"/>
<path d="M224.661 156.773C224.315 160.419 231.722 165.003 236.016 165.409C240.305 165.815 244.066 163.187 244.411 159.541C244.757 155.895 241.561 152.613 237.266 152.207C232.977 151.802 225.007 153.128 224.661 156.767V156.773Z" fill="#020059"/>
<path d="M160.85 141.328C164.195 138.703 164.249 133.2 160.971 129.039C157.692 124.877 152.324 123.631 148.979 126.257C145.635 128.883 145.581 134.385 148.859 138.547C152.137 142.708 157.506 143.954 160.85 141.328Z" fill="#756DE7"/>
</g>
<g filter="url(#filter0_d_4965_578)">
<rect x="123" y="464" width="302" height="85" rx="42.5" fill="#FFFCFA" shape-rendering="crispEdges"/>
<path d="M139 506.5C139 489.931 152.431 476.5 169 476.5C185.569 476.5 199 489.931 199 506.5C199 523.069 185.569 536.5 169 536.5C152.431 536.5 139 523.069 139 506.5Z" fill="#E04859"/>
<path d="M178.92 507.333C178.627 507.333 178.32 507.24 178.027 507.173C177.433 507.042 176.849 506.869 176.28 506.653C175.662 506.428 174.982 506.44 174.371 506.686C173.761 506.932 173.263 507.395 172.973 507.987L172.68 508.587C171.381 507.864 170.188 506.967 169.133 505.92C168.086 504.865 167.189 503.672 166.467 502.373L167.027 502C167.618 501.71 168.081 501.213 168.327 500.602C168.573 499.992 168.585 499.312 168.36 498.693C168.148 498.123 167.975 497.54 167.84 496.947C167.773 496.653 167.72 496.347 167.68 496.04C167.518 495.101 167.026 494.25 166.293 493.642C165.56 493.033 164.633 492.706 163.68 492.72H159.68C159.106 492.715 158.536 492.833 158.012 493.067C157.487 493.302 157.019 493.646 156.639 494.078C156.26 494.509 155.978 495.017 155.812 495.568C155.647 496.118 155.602 496.697 155.68 497.267C156.39 502.852 158.942 508.042 162.93 512.017C166.919 515.991 172.118 518.523 177.707 519.213H178.213C179.197 519.215 180.146 518.854 180.88 518.2C181.302 517.823 181.639 517.36 181.869 516.843C182.099 516.326 182.216 515.766 182.213 515.2V511.2C182.197 510.274 181.86 509.382 181.259 508.677C180.659 507.972 179.832 507.497 178.92 507.333ZM179.587 515.333C179.587 515.523 179.546 515.71 179.468 515.882C179.39 516.054 179.276 516.208 179.133 516.333C178.984 516.462 178.81 516.558 178.622 516.615C178.434 516.673 178.236 516.69 178.04 516.667C173.047 516.026 168.408 513.742 164.857 510.174C161.306 506.605 159.043 501.956 158.427 496.96C158.406 496.765 158.424 496.567 158.481 496.379C158.539 496.191 158.634 496.017 158.76 495.867C158.885 495.724 159.039 495.61 159.211 495.532C159.384 495.454 159.571 495.413 159.76 495.413H163.76C164.07 495.406 164.373 495.508 164.616 495.7C164.86 495.892 165.028 496.163 165.093 496.467C165.147 496.831 165.213 497.191 165.293 497.547C165.447 498.249 165.652 498.94 165.907 499.613L164.04 500.48C163.881 500.553 163.737 500.657 163.618 500.786C163.498 500.915 163.406 501.066 163.345 501.231C163.284 501.396 163.257 501.571 163.264 501.746C163.271 501.922 163.313 502.094 163.387 502.253C165.306 506.364 168.61 509.668 172.72 511.587C173.045 511.72 173.409 511.72 173.733 511.587C173.9 511.527 174.053 511.435 174.183 511.316C174.313 511.197 174.419 511.053 174.493 510.893L175.32 509.027C176.009 509.273 176.713 509.478 177.427 509.64C177.782 509.72 178.142 509.787 178.507 509.84C178.81 509.905 179.081 510.074 179.273 510.317C179.466 510.56 179.567 510.863 179.56 511.173L179.587 515.333Z" fill="#FFFCFA"/>
<path d="M223.424 497.236C223.676 497.236 223.886 497.32 224.054 497.488C224.234 497.656 224.324 497.866 224.324 498.118C224.324 498.37 224.234 498.58 224.054 498.748C223.886 498.916 223.676 499 223.424 499H217.376C217.112 499 216.89 498.916 216.71 498.748C216.542 498.568 216.458 498.346 216.458 498.082V487.318C216.458 487.054 216.548 486.838 216.728 486.67C216.908 486.49 217.142 486.4 217.43 486.4C217.67 486.4 217.88 486.49 218.06 486.67C218.252 486.838 218.348 487.054 218.348 487.318V497.542L217.97 497.236H223.424ZM228.136 498.082C228.136 498.346 228.046 498.568 227.866 498.748C227.698 498.916 227.488 499 227.236 499C226.984 499 226.768 498.916 226.588 498.748C226.42 498.568 226.336 498.346 226.336 498.082V486.598C226.336 486.334 226.426 486.118 226.606 485.95C226.786 485.77 227.002 485.68 227.254 485.68C227.518 485.68 227.728 485.77 227.884 485.95C228.052 486.118 228.136 486.334 228.136 486.598V498.082ZM238.573 489.388C238.837 489.388 239.053 489.478 239.221 489.658C239.389 489.826 239.473 490.042 239.473 490.306V498.082C239.473 498.346 239.389 498.568 239.221 498.748C239.053 498.916 238.837 499 238.573 499C238.321 499 238.105 498.916 237.925 498.748C237.757 498.568 237.673 498.346 237.673 498.082V496.786L238.051 496.84C238.051 497.056 237.961 497.296 237.781 497.56C237.613 497.824 237.379 498.082 237.079 498.334C236.779 498.574 236.425 498.778 236.017 498.946C235.609 499.102 235.171 499.18 234.703 499.18C233.875 499.18 233.131 498.97 232.471 498.55C231.811 498.118 231.289 497.53 230.905 496.786C230.521 496.042 230.329 495.196 230.329 494.248C230.329 493.276 230.521 492.424 230.905 491.692C231.289 490.948 231.805 490.366 232.453 489.946C233.113 489.526 233.845 489.316 234.649 489.316C235.165 489.316 235.639 489.4 236.071 489.568C236.515 489.736 236.899 489.952 237.223 490.216C237.547 490.48 237.793 490.762 237.961 491.062C238.141 491.35 238.231 491.626 238.231 491.89L237.673 491.944V490.306C237.673 490.054 237.757 489.838 237.925 489.658C238.105 489.478 238.321 489.388 238.573 489.388ZM234.901 497.524C235.465 497.524 235.963 497.38 236.395 497.092C236.827 496.804 237.163 496.414 237.403 495.922C237.643 495.418 237.763 494.86 237.763 494.248C237.763 493.624 237.643 493.066 237.403 492.574C237.163 492.082 236.827 491.692 236.395 491.404C235.963 491.116 235.465 490.972 234.901 490.972C234.349 490.972 233.857 491.116 233.425 491.404C233.005 491.692 232.669 492.082 232.417 492.574C232.177 493.066 232.057 493.624 232.057 494.248C232.057 494.86 232.177 495.418 232.417 495.922C232.669 496.414 233.005 496.804 233.425 497.092C233.857 497.38 234.349 497.524 234.901 497.524ZM246.746 489.37C247.634 489.37 248.318 489.592 248.798 490.036C249.278 490.468 249.596 491.056 249.752 491.8L249.464 491.71L249.59 491.422C249.746 491.11 249.98 490.798 250.292 490.486C250.616 490.162 251 489.898 251.444 489.694C251.888 489.478 252.362 489.37 252.866 489.37C253.694 489.37 254.336 489.55 254.792 489.91C255.248 490.258 255.566 490.732 255.746 491.332C255.926 491.92 256.016 492.58 256.016 493.312V498.082C256.016 498.346 255.932 498.568 255.764 498.748C255.596 498.916 255.38 499 255.116 499C254.864 499 254.648 498.916 254.468 498.748C254.3 498.568 254.216 498.346 254.216 498.082V493.33C254.216 492.91 254.156 492.526 254.036 492.178C253.928 491.83 253.73 491.554 253.442 491.35C253.166 491.134 252.782 491.026 252.29 491.026C251.822 491.026 251.402 491.134 251.03 491.35C250.67 491.554 250.388 491.83 250.184 492.178C249.98 492.526 249.878 492.91 249.878 493.33V498.082C249.878 498.346 249.794 498.568 249.626 498.748C249.458 498.916 249.242 499 248.978 499C248.714 499 248.498 498.916 248.33 498.748C248.162 498.568 248.078 498.346 248.078 498.082V493.312C248.078 492.892 248.018 492.508 247.898 492.16C247.79 491.812 247.598 491.536 247.322 491.332C247.046 491.128 246.662 491.026 246.17 491.026C245.702 491.026 245.288 491.128 244.928 491.332C244.568 491.536 244.286 491.812 244.082 492.16C243.89 492.508 243.794 492.892 243.794 493.312V498.082C243.794 498.346 243.704 498.568 243.524 498.748C243.356 498.916 243.146 499 242.894 499C242.63 499 242.414 498.916 242.246 498.748C242.078 498.568 241.994 498.346 241.994 498.082V490.45C241.994 490.186 242.078 489.97 242.246 489.802C242.414 489.622 242.63 489.532 242.894 489.532C243.146 489.532 243.356 489.622 243.524 489.802C243.704 489.97 243.794 490.186 243.794 490.45V491.512L243.452 491.71C243.536 491.446 243.674 491.176 243.866 490.9C244.058 490.624 244.298 490.372 244.586 490.144C244.886 489.916 245.216 489.73 245.576 489.586C245.936 489.442 246.326 489.37 246.746 489.37ZM266.293 489.388C266.557 489.388 266.773 489.478 266.941 489.658C267.109 489.826 267.193 490.042 267.193 490.306V498.082C267.193 498.346 267.109 498.568 266.941 498.748C266.773 498.916 266.557 499 266.293 499C266.041 499 265.825 498.916 265.645 498.748C265.477 498.568 265.393 498.346 265.393 498.082V496.786L265.771 496.84C265.771 497.056 265.681 497.296 265.501 497.56C265.333 497.824 265.099 498.082 264.799 498.334C264.499 498.574 264.145 498.778 263.737 498.946C263.329 499.102 262.891 499.18 262.423 499.18C261.595 499.18 260.851 498.97 260.191 498.55C259.531 498.118 259.009 497.53 258.625 496.786C258.241 496.042 258.049 495.196 258.049 494.248C258.049 493.276 258.241 492.424 258.625 491.692C259.009 490.948 259.525 490.366 260.173 489.946C260.833 489.526 261.565 489.316 262.369 489.316C262.885 489.316 263.359 489.4 263.791 489.568C264.235 489.736 264.619 489.952 264.943 490.216C265.267 490.48 265.513 490.762 265.681 491.062C265.861 491.35 265.951 491.626 265.951 491.89L265.393 491.944V490.306C265.393 490.054 265.477 489.838 265.645 489.658C265.825 489.478 266.041 489.388 266.293 489.388ZM262.621 497.524C263.185 497.524 263.683 497.38 264.115 497.092C264.547 496.804 264.883 496.414 265.123 495.922C265.363 495.418 265.483 494.86 265.483 494.248C265.483 493.624 265.363 493.066 265.123 492.574C264.883 492.082 264.547 491.692 264.115 491.404C263.683 491.116 263.185 490.972 262.621 490.972C262.069 490.972 261.577 491.116 261.145 491.404C260.725 491.692 260.389 492.082 260.137 492.574C259.897 493.066 259.777 493.624 259.777 494.248C259.777 494.86 259.897 495.418 260.137 495.922C260.389 496.414 260.725 496.804 261.145 497.092C261.577 497.38 262.069 497.524 262.621 497.524ZM274.593 489.316C275.445 489.316 276.105 489.496 276.573 489.856C277.041 490.204 277.365 490.678 277.545 491.278C277.737 491.866 277.833 492.526 277.833 493.258V498.082C277.833 498.346 277.743 498.568 277.563 498.748C277.395 498.916 277.185 499 276.933 499C276.669 499 276.453 498.916 276.285 498.748C276.117 498.568 276.033 498.346 276.033 498.082V493.276C276.033 492.844 275.973 492.46 275.853 492.124C275.733 491.776 275.523 491.5 275.223 491.296C274.935 491.08 274.527 490.972 273.999 490.972C273.507 490.972 273.075 491.08 272.703 491.296C272.331 491.5 272.037 491.776 271.821 492.124C271.617 492.46 271.515 492.844 271.515 493.276V498.082C271.515 498.346 271.425 498.568 271.245 498.748C271.077 498.916 270.867 499 270.615 499C270.351 499 270.135 498.916 269.967 498.748C269.799 498.568 269.715 498.346 269.715 498.082V490.45C269.715 490.186 269.799 489.97 269.967 489.802C270.135 489.622 270.351 489.532 270.615 489.532C270.867 489.532 271.077 489.622 271.245 489.802C271.425 489.97 271.515 490.186 271.515 490.45V491.458L271.191 491.638C271.275 491.374 271.419 491.11 271.623 490.846C271.839 490.57 272.097 490.318 272.397 490.09C272.697 489.85 273.033 489.664 273.405 489.532C273.777 489.388 274.173 489.316 274.593 489.316ZM289.404 494.266C289.404 495.226 289.194 496.078 288.774 496.822C288.354 497.554 287.784 498.13 287.064 498.55C286.344 498.97 285.534 499.18 284.634 499.18C283.734 499.18 282.924 498.97 282.204 498.55C281.484 498.13 280.908 497.554 280.476 496.822C280.056 496.078 279.846 495.226 279.846 494.266C279.846 493.294 280.056 492.442 280.476 491.71C280.908 490.966 281.484 490.384 282.204 489.964C282.924 489.532 283.734 489.316 284.634 489.316C285.534 489.316 286.344 489.532 287.064 489.964C287.784 490.384 288.354 490.966 288.774 491.71C289.194 492.442 289.404 493.294 289.404 494.266ZM287.604 494.266C287.604 493.606 287.472 493.036 287.208 492.556C286.944 492.064 286.584 491.68 286.128 491.404C285.684 491.116 285.186 490.972 284.634 490.972C284.082 490.972 283.578 491.116 283.122 491.404C282.666 491.68 282.306 492.064 282.042 492.556C281.778 493.036 281.646 493.606 281.646 494.266C281.646 494.902 281.778 495.466 282.042 495.958C282.306 496.45 282.666 496.834 283.122 497.11C283.578 497.386 284.082 497.524 284.634 497.524C285.186 497.524 285.684 497.386 286.128 497.11C286.584 496.834 286.944 496.45 287.208 495.958C287.472 495.466 287.604 494.902 287.604 494.266ZM290.884 497.524C290.776 497.356 290.728 497.164 290.74 496.948C290.752 496.72 290.878 496.528 291.118 496.372C291.286 496.264 291.46 496.222 291.64 496.246C291.832 496.258 292.012 496.348 292.18 496.516C292.516 496.888 292.888 497.182 293.296 497.398C293.716 497.614 294.22 497.722 294.808 497.722C295.048 497.71 295.294 497.674 295.546 497.614C295.798 497.542 296.014 497.422 296.194 497.254C296.374 497.074 296.464 496.816 296.464 496.48C296.464 496.18 296.368 495.94 296.176 495.76C295.984 495.58 295.732 495.436 295.42 495.328C295.108 495.208 294.772 495.1 294.412 495.004C294.028 494.896 293.638 494.776 293.242 494.644C292.858 494.512 292.51 494.344 292.198 494.14C291.886 493.924 291.628 493.648 291.424 493.312C291.232 492.976 291.136 492.562 291.136 492.07C291.136 491.506 291.292 491.02 291.604 490.612C291.928 490.204 292.342 489.886 292.846 489.658C293.362 489.43 293.92 489.316 294.52 489.316C294.868 489.316 295.234 489.364 295.618 489.46C296.002 489.544 296.374 489.682 296.734 489.874C297.094 490.066 297.406 490.318 297.67 490.63C297.79 490.786 297.856 490.972 297.868 491.188C297.892 491.404 297.796 491.596 297.58 491.764C297.436 491.884 297.262 491.938 297.058 491.926C296.854 491.914 296.686 491.848 296.554 491.728C296.326 491.44 296.032 491.218 295.672 491.062C295.312 490.894 294.904 490.81 294.448 490.81C294.22 490.81 293.98 490.846 293.728 490.918C293.488 490.978 293.284 491.092 293.116 491.26C292.948 491.428 292.864 491.674 292.864 491.998C292.864 492.298 292.96 492.538 293.152 492.718C293.356 492.898 293.62 493.048 293.944 493.168C294.268 493.288 294.622 493.396 295.006 493.492C295.378 493.588 295.744 493.702 296.104 493.834C296.476 493.966 296.806 494.14 297.094 494.356C297.394 494.56 297.634 494.83 297.814 495.166C298.006 495.49 298.102 495.904 298.102 496.408C298.102 496.996 297.928 497.5 297.58 497.92C297.244 498.328 296.812 498.64 296.284 498.856C295.768 499.072 295.222 499.18 294.646 499.18C293.962 499.18 293.278 499.06 292.594 498.82C291.922 498.568 291.352 498.136 290.884 497.524Z" fill="#ABABAB"/>
<path d="M227.902 515.91V519.027C227.902 520.254 227.758 521.32 227.469 522.227C227.188 523.133 226.781 523.883 226.25 524.477C225.727 525.07 225.102 525.512 224.375 525.801C223.648 526.09 222.848 526.234 221.973 526.234C221.27 526.234 220.613 526.145 220.004 525.965C219.395 525.777 218.844 525.496 218.352 525.121C217.867 524.738 217.449 524.262 217.098 523.691C216.746 523.121 216.477 522.449 216.289 521.676C216.102 520.895 216.008 520.012 216.008 519.027V515.91C216.008 514.676 216.148 513.609 216.43 512.711C216.719 511.805 217.129 511.055 217.66 510.461C218.191 509.867 218.82 509.426 219.547 509.137C220.273 508.848 221.074 508.703 221.949 508.703C222.652 508.703 223.305 508.797 223.906 508.984C224.516 509.164 225.066 509.445 225.559 509.828C226.051 510.203 226.469 510.676 226.812 511.246C227.164 511.816 227.434 512.492 227.621 513.273C227.809 514.047 227.902 514.926 227.902 515.91ZM223.953 519.508V515.406C223.953 514.859 223.922 514.383 223.859 513.977C223.805 513.57 223.719 513.227 223.602 512.945C223.492 512.664 223.355 512.438 223.191 512.266C223.027 512.086 222.84 511.957 222.629 511.879C222.426 511.793 222.199 511.75 221.949 511.75C221.637 511.75 221.355 511.816 221.105 511.949C220.863 512.074 220.656 512.277 220.484 512.559C220.312 512.84 220.18 513.215 220.086 513.684C220 514.152 219.957 514.727 219.957 515.406V519.508C219.957 520.062 219.984 520.547 220.039 520.961C220.102 521.367 220.188 521.715 220.297 522.004C220.414 522.285 220.555 522.516 220.719 522.695C220.883 522.867 221.07 522.992 221.281 523.07C221.492 523.148 221.723 523.188 221.973 523.188C222.277 523.188 222.551 523.125 222.793 523C223.035 522.875 223.242 522.672 223.414 522.391C223.594 522.102 223.727 521.723 223.812 521.254C223.906 520.777 223.953 520.195 223.953 519.508ZM241.824 521.301C241.824 522.387 241.566 523.297 241.051 524.031C240.543 524.766 239.84 525.316 238.941 525.684C238.051 526.051 237.035 526.234 235.895 526.234C234.762 526.234 233.742 526.051 232.836 525.684C231.938 525.316 231.227 524.766 230.703 524.031C230.18 523.297 229.918 522.387 229.918 521.301C229.918 520.559 230.066 519.895 230.363 519.309C230.668 518.715 231.09 518.211 231.629 517.797C232.168 517.383 232.797 517.066 233.516 516.848C234.242 516.629 235.027 516.52 235.871 516.52C237.012 516.52 238.031 516.715 238.93 517.105C239.828 517.488 240.535 518.035 241.051 518.746C241.566 519.457 241.824 520.309 241.824 521.301ZM237.852 520.984C237.852 520.516 237.77 520.121 237.605 519.801C237.441 519.473 237.211 519.223 236.914 519.051C236.617 518.879 236.27 518.793 235.871 518.793C235.48 518.793 235.133 518.879 234.828 519.051C234.531 519.223 234.297 519.473 234.125 519.801C233.961 520.121 233.879 520.516 233.879 520.984C233.879 521.438 233.965 521.832 234.137 522.168C234.309 522.496 234.543 522.75 234.84 522.93C235.145 523.102 235.496 523.188 235.895 523.188C236.293 523.188 236.637 523.102 236.926 522.93C237.223 522.75 237.449 522.496 237.605 522.168C237.77 521.832 237.852 521.438 237.852 520.984ZM241.473 513.496C241.473 514.387 241.234 515.168 240.758 515.84C240.289 516.504 239.633 517.023 238.789 517.398C237.953 517.766 236.988 517.949 235.895 517.949C234.809 517.949 233.84 517.766 232.988 517.398C232.145 517.023 231.48 516.504 230.996 515.84C230.52 515.168 230.281 514.387 230.281 513.496C230.281 512.449 230.52 511.57 230.996 510.859C231.48 510.148 232.145 509.609 232.988 509.242C233.832 508.875 234.793 508.691 235.871 508.691C236.965 508.691 237.934 508.875 238.777 509.242C239.621 509.609 240.281 510.148 240.758 510.859C241.234 511.57 241.473 512.449 241.473 513.496ZM237.523 513.707C237.523 513.301 237.461 512.953 237.336 512.664C237.211 512.367 237.027 512.141 236.785 511.984C236.543 511.82 236.238 511.738 235.871 511.738C235.52 511.738 235.223 511.816 234.98 511.973C234.738 512.129 234.555 512.355 234.43 512.652C234.305 512.941 234.242 513.293 234.242 513.707C234.242 514.113 234.305 514.469 234.43 514.773C234.555 515.078 234.738 515.316 234.98 515.488C235.23 515.66 235.535 515.746 235.895 515.746C236.262 515.746 236.562 515.66 236.797 515.488C237.039 515.316 237.219 515.078 237.336 514.773C237.461 514.469 237.523 514.113 237.523 513.707ZM255.746 515.91V519.027C255.746 520.254 255.602 521.32 255.312 522.227C255.031 523.133 254.625 523.883 254.094 524.477C253.57 525.07 252.945 525.512 252.219 525.801C251.492 526.09 250.691 526.234 249.816 526.234C249.113 526.234 248.457 526.145 247.848 525.965C247.238 525.777 246.688 525.496 246.195 525.121C245.711 524.738 245.293 524.262 244.941 523.691C244.59 523.121 244.32 522.449 244.133 521.676C243.945 520.895 243.852 520.012 243.852 519.027V515.91C243.852 514.676 243.992 513.609 244.273 512.711C244.562 511.805 244.973 511.055 245.504 510.461C246.035 509.867 246.664 509.426 247.391 509.137C248.117 508.848 248.918 508.703 249.793 508.703C250.496 508.703 251.148 508.797 251.75 508.984C252.359 509.164 252.91 509.445 253.402 509.828C253.895 510.203 254.312 510.676 254.656 511.246C255.008 511.816 255.277 512.492 255.465 513.273C255.652 514.047 255.746 514.926 255.746 515.91ZM251.797 519.508V515.406C251.797 514.859 251.766 514.383 251.703 513.977C251.648 513.57 251.562 513.227 251.445 512.945C251.336 512.664 251.199 512.438 251.035 512.266C250.871 512.086 250.684 511.957 250.473 511.879C250.27 511.793 250.043 511.75 249.793 511.75C249.48 511.75 249.199 511.816 248.949 511.949C248.707 512.074 248.5 512.277 248.328 512.559C248.156 512.84 248.023 513.215 247.93 513.684C247.844 514.152 247.801 514.727 247.801 515.406V519.508C247.801 520.062 247.828 520.547 247.883 520.961C247.945 521.367 248.031 521.715 248.141 522.004C248.258 522.285 248.398 522.516 248.562 522.695C248.727 522.867 248.914 522.992 249.125 523.07C249.336 523.148 249.566 523.188 249.816 523.188C250.121 523.188 250.395 523.125 250.637 523C250.879 522.875 251.086 522.672 251.258 522.391C251.438 522.102 251.57 521.723 251.656 521.254C251.75 520.777 251.797 520.195 251.797 519.508ZM269.668 515.91V519.027C269.668 520.254 269.523 521.32 269.234 522.227C268.953 523.133 268.547 523.883 268.016 524.477C267.492 525.07 266.867 525.512 266.141 525.801C265.414 526.09 264.613 526.234 263.738 526.234C263.035 526.234 262.379 526.145 261.77 525.965C261.16 525.777 260.609 525.496 260.117 525.121C259.633 524.738 259.215 524.262 258.863 523.691C258.512 523.121 258.242 522.449 258.055 521.676C257.867 520.895 257.773 520.012 257.773 519.027V515.91C257.773 514.676 257.914 513.609 258.195 512.711C258.484 511.805 258.895 511.055 259.426 510.461C259.957 509.867 260.586 509.426 261.312 509.137C262.039 508.848 262.84 508.703 263.715 508.703C264.418 508.703 265.07 508.797 265.672 508.984C266.281 509.164 266.832 509.445 267.324 509.828C267.816 510.203 268.234 510.676 268.578 511.246C268.93 511.816 269.199 512.492 269.387 513.273C269.574 514.047 269.668 514.926 269.668 515.91ZM265.719 519.508V515.406C265.719 514.859 265.688 514.383 265.625 513.977C265.57 513.57 265.484 513.227 265.367 512.945C265.258 512.664 265.121 512.438 264.957 512.266C264.793 512.086 264.605 511.957 264.395 511.879C264.191 511.793 263.965 511.75 263.715 511.75C263.402 511.75 263.121 511.816 262.871 511.949C262.629 512.074 262.422 512.277 262.25 512.559C262.078 512.84 261.945 513.215 261.852 513.684C261.766 514.152 261.723 514.727 261.723 515.406V519.508C261.723 520.062 261.75 520.547 261.805 520.961C261.867 521.367 261.953 521.715 262.062 522.004C262.18 522.285 262.32 522.516 262.484 522.695C262.648 522.867 262.836 522.992 263.047 523.07C263.258 523.148 263.488 523.188 263.738 523.188C264.043 523.188 264.316 523.125 264.559 523C264.801 522.875 265.008 522.672 265.18 522.391C265.359 522.102 265.492 521.723 265.578 521.254C265.672 520.777 265.719 520.195 265.719 519.508ZM281.094 518.395L277.953 517.656L278.984 508.938H288.957V512.008H282.207L281.82 515.395C282.008 515.285 282.324 515.156 282.77 515.008C283.223 514.852 283.723 514.773 284.27 514.773C285.113 514.773 285.859 514.902 286.508 515.16C287.164 515.41 287.719 515.781 288.172 516.273C288.625 516.758 288.965 517.355 289.191 518.066C289.426 518.777 289.543 519.59 289.543 520.504C289.543 521.238 289.422 521.949 289.18 522.637C288.945 523.316 288.582 523.93 288.09 524.477C287.605 525.016 286.992 525.445 286.25 525.766C285.508 526.078 284.629 526.234 283.613 526.234C282.855 526.234 282.117 526.117 281.398 525.883C280.68 525.648 280.031 525.312 279.453 524.875C278.883 524.43 278.43 523.895 278.094 523.27C277.766 522.637 277.605 521.93 277.613 521.148H281.586C281.609 521.562 281.707 521.922 281.879 522.227C282.051 522.531 282.281 522.77 282.57 522.941C282.867 523.105 283.207 523.188 283.59 523.188C283.98 523.188 284.305 523.109 284.562 522.953C284.82 522.797 285.023 522.582 285.172 522.309C285.32 522.035 285.426 521.723 285.488 521.371C285.551 521.012 285.582 520.633 285.582 520.234C285.582 519.812 285.535 519.434 285.441 519.098C285.355 518.762 285.215 518.477 285.02 518.242C284.824 518 284.57 517.816 284.258 517.691C283.953 517.566 283.586 517.504 283.156 517.504C282.586 517.504 282.137 517.602 281.809 517.797C281.48 517.992 281.242 518.191 281.094 518.395ZM295.016 518.395L291.875 517.656L292.906 508.938H302.879V512.008H296.129L295.742 515.395C295.93 515.285 296.246 515.156 296.691 515.008C297.145 514.852 297.645 514.773 298.191 514.773C299.035 514.773 299.781 514.902 300.43 515.16C301.086 515.41 301.641 515.781 302.094 516.273C302.547 516.758 302.887 517.355 303.113 518.066C303.348 518.777 303.465 519.59 303.465 520.504C303.465 521.238 303.344 521.949 303.102 522.637C302.867 523.316 302.504 523.93 302.012 524.477C301.527 525.016 300.914 525.445 300.172 525.766C299.43 526.078 298.551 526.234 297.535 526.234C296.777 526.234 296.039 526.117 295.32 525.883C294.602 525.648 293.953 525.312 293.375 524.875C292.805 524.43 292.352 523.895 292.016 523.27C291.688 522.637 291.527 521.93 291.535 521.148H295.508C295.531 521.562 295.629 521.922 295.801 522.227C295.973 522.531 296.203 522.77 296.492 522.941C296.789 523.105 297.129 523.188 297.512 523.188C297.902 523.188 298.227 523.109 298.484 522.953C298.742 522.797 298.945 522.582 299.094 522.309C299.242 522.035 299.348 521.723 299.41 521.371C299.473 521.012 299.504 520.633 299.504 520.234C299.504 519.812 299.457 519.434 299.363 519.098C299.277 518.762 299.137 518.477 298.941 518.242C298.746 518 298.492 517.816 298.18 517.691C297.875 517.566 297.508 517.504 297.078 517.504C296.508 517.504 296.059 517.602 295.73 517.797C295.402 517.992 295.164 518.191 295.016 518.395ZM308.938 518.395L305.797 517.656L306.828 508.938H316.801V512.008H310.051L309.664 515.395C309.852 515.285 310.168 515.156 310.613 515.008C311.066 514.852 311.566 514.773 312.113 514.773C312.957 514.773 313.703 514.902 314.352 515.16C315.008 515.41 315.562 515.781 316.016 516.273C316.469 516.758 316.809 517.355 317.035 518.066C317.27 518.777 317.387 519.59 317.387 520.504C317.387 521.238 317.266 521.949 317.023 522.637C316.789 523.316 316.426 523.93 315.934 524.477C315.449 525.016 314.836 525.445 314.094 525.766C313.352 526.078 312.473 526.234 311.457 526.234C310.699 526.234 309.961 526.117 309.242 525.883C308.523 525.648 307.875 525.312 307.297 524.875C306.727 524.43 306.273 523.895 305.938 523.27C305.609 522.637 305.449 521.93 305.457 521.148H309.43C309.453 521.562 309.551 521.922 309.723 522.227C309.895 522.531 310.125 522.77 310.414 522.941C310.711 523.105 311.051 523.188 311.434 523.188C311.824 523.188 312.148 523.109 312.406 522.953C312.664 522.797 312.867 522.582 313.016 522.309C313.164 522.035 313.27 521.723 313.332 521.371C313.395 521.012 313.426 520.633 313.426 520.234C313.426 519.812 313.379 519.434 313.285 519.098C313.199 518.762 313.059 518.477 312.863 518.242C312.668 518 312.414 517.816 312.102 517.691C311.797 517.566 311.43 517.504 311 517.504C310.43 517.504 309.98 517.602 309.652 517.797C309.324 517.992 309.086 518.191 308.938 518.395ZM337.309 521.301C337.309 522.387 337.051 523.297 336.535 524.031C336.027 524.766 335.324 525.316 334.426 525.684C333.535 526.051 332.52 526.234 331.379 526.234C330.246 526.234 329.227 526.051 328.32 525.684C327.422 525.316 326.711 524.766 326.188 524.031C325.664 523.297 325.402 522.387 325.402 521.301C325.402 520.559 325.551 519.895 325.848 519.309C326.152 518.715 326.574 518.211 327.113 517.797C327.652 517.383 328.281 517.066 329 516.848C329.727 516.629 330.512 516.52 331.355 516.52C332.496 516.52 333.516 516.715 334.414 517.105C335.312 517.488 336.02 518.035 336.535 518.746C337.051 519.457 337.309 520.309 337.309 521.301ZM333.336 520.984C333.336 520.516 333.254 520.121 333.09 519.801C332.926 519.473 332.695 519.223 332.398 519.051C332.102 518.879 331.754 518.793 331.355 518.793C330.965 518.793 330.617 518.879 330.312 519.051C330.016 519.223 329.781 519.473 329.609 519.801C329.445 520.121 329.363 520.516 329.363 520.984C329.363 521.438 329.449 521.832 329.621 522.168C329.793 522.496 330.027 522.75 330.324 522.93C330.629 523.102 330.98 523.188 331.379 523.188C331.777 523.188 332.121 523.102 332.41 522.93C332.707 522.75 332.934 522.496 333.09 522.168C333.254 521.832 333.336 521.438 333.336 520.984ZM336.957 513.496C336.957 514.387 336.719 515.168 336.242 515.84C335.773 516.504 335.117 517.023 334.273 517.398C333.438 517.766 332.473 517.949 331.379 517.949C330.293 517.949 329.324 517.766 328.473 517.398C327.629 517.023 326.965 516.504 326.48 515.84C326.004 515.168 325.766 514.387 325.766 513.496C325.766 512.449 326.004 511.57 326.48 510.859C326.965 510.148 327.629 509.609 328.473 509.242C329.316 508.875 330.277 508.691 331.355 508.691C332.449 508.691 333.418 508.875 334.262 509.242C335.105 509.609 335.766 510.148 336.242 510.859C336.719 511.57 336.957 512.449 336.957 513.496ZM333.008 513.707C333.008 513.301 332.945 512.953 332.82 512.664C332.695 512.367 332.512 512.141 332.27 511.984C332.027 511.82 331.723 511.738 331.355 511.738C331.004 511.738 330.707 511.816 330.465 511.973C330.223 512.129 330.039 512.355 329.914 512.652C329.789 512.941 329.727 513.293 329.727 513.707C329.727 514.113 329.789 514.469 329.914 514.773C330.039 515.078 330.223 515.316 330.465 515.488C330.715 515.66 331.02 515.746 331.379 515.746C331.746 515.746 332.047 515.66 332.281 515.488C332.523 515.316 332.703 515.078 332.82 514.773C332.945 514.469 333.008 514.113 333.008 513.707ZM342.98 515.816H344.902C345.395 515.816 345.797 515.73 346.109 515.559C346.43 515.379 346.668 515.129 346.824 514.809C346.98 514.48 347.059 514.094 347.059 513.648C347.059 513.305 346.984 512.988 346.836 512.699C346.695 512.41 346.477 512.18 346.18 512.008C345.883 511.828 345.504 511.738 345.043 511.738C344.73 511.738 344.426 511.805 344.129 511.938C343.832 512.062 343.586 512.242 343.391 512.477C343.203 512.711 343.109 512.996 343.109 513.332H339.148C339.148 512.363 339.414 511.535 339.945 510.848C340.484 510.152 341.191 509.621 342.066 509.254C342.949 508.879 343.898 508.691 344.914 508.691C346.125 508.691 347.188 508.879 348.102 509.254C349.016 509.621 349.727 510.168 350.234 510.895C350.75 511.613 351.008 512.504 351.008 513.566C351.008 514.152 350.871 514.703 350.598 515.219C350.324 515.734 349.941 516.188 349.449 516.578C348.957 516.969 348.379 517.277 347.715 517.504C347.059 517.723 346.34 517.832 345.559 517.832H342.98V515.816ZM342.98 518.758V516.789H345.559C346.41 516.789 347.188 516.887 347.891 517.082C348.594 517.27 349.199 517.551 349.707 517.926C350.215 518.301 350.605 518.766 350.879 519.32C351.152 519.867 351.289 520.496 351.289 521.207C351.289 522.004 351.129 522.715 350.809 523.34C350.488 523.965 350.039 524.492 349.461 524.922C348.883 525.352 348.207 525.68 347.434 525.906C346.66 526.125 345.82 526.234 344.914 526.234C344.203 526.234 343.492 526.141 342.781 525.953C342.07 525.758 341.422 525.461 340.836 525.062C340.25 524.656 339.777 524.141 339.418 523.516C339.066 522.883 338.891 522.129 338.891 521.254H342.852C342.852 521.613 342.949 521.941 343.145 522.238C343.348 522.527 343.617 522.758 343.953 522.93C344.289 523.102 344.652 523.188 345.043 523.188C345.527 523.188 345.938 523.098 346.273 522.918C346.617 522.73 346.879 522.48 347.059 522.168C347.238 521.855 347.328 521.508 347.328 521.125C347.328 520.547 347.23 520.086 347.035 519.742C346.848 519.398 346.57 519.148 346.203 518.992C345.844 518.836 345.41 518.758 344.902 518.758H342.98ZM356.68 518.395L353.539 517.656L354.57 508.938H364.543V512.008H357.793L357.406 515.395C357.594 515.285 357.91 515.156 358.355 515.008C358.809 514.852 359.309 514.773 359.855 514.773C360.699 514.773 361.445 514.902 362.094 515.16C362.75 515.41 363.305 515.781 363.758 516.273C364.211 516.758 364.551 517.355 364.777 518.066C365.012 518.777 365.129 519.59 365.129 520.504C365.129 521.238 365.008 521.949 364.766 522.637C364.531 523.316 364.168 523.93 363.676 524.477C363.191 525.016 362.578 525.445 361.836 525.766C361.094 526.078 360.215 526.234 359.199 526.234C358.441 526.234 357.703 526.117 356.984 525.883C356.266 525.648 355.617 525.312 355.039 524.875C354.469 524.43 354.016 523.895 353.68 523.27C353.352 522.637 353.191 521.93 353.199 521.148H357.172C357.195 521.562 357.293 521.922 357.465 522.227C357.637 522.531 357.867 522.77 358.156 522.941C358.453 523.105 358.793 523.188 359.176 523.188C359.566 523.188 359.891 523.109 360.148 522.953C360.406 522.797 360.609 522.582 360.758 522.309C360.906 522.035 361.012 521.723 361.074 521.371C361.137 521.012 361.168 520.633 361.168 520.234C361.168 519.812 361.121 519.434 361.027 519.098C360.941 518.762 360.801 518.477 360.605 518.242C360.41 518 360.156 517.816 359.844 517.691C359.539 517.566 359.172 517.504 358.742 517.504C358.172 517.504 357.723 517.602 357.395 517.797C357.066 517.992 356.828 518.191 356.68 518.395ZM370.824 515.816H372.746C373.238 515.816 373.641 515.73 373.953 515.559C374.273 515.379 374.512 515.129 374.668 514.809C374.824 514.48 374.902 514.094 374.902 513.648C374.902 513.305 374.828 512.988 374.68 512.699C374.539 512.41 374.32 512.18 374.023 512.008C373.727 511.828 373.348 511.738 372.887 511.738C372.574 511.738 372.27 511.805 371.973 511.938C371.676 512.062 371.43 512.242 371.234 512.477C371.047 512.711 370.953 512.996 370.953 513.332H366.992C366.992 512.363 367.258 511.535 367.789 510.848C368.328 510.152 369.035 509.621 369.91 509.254C370.793 508.879 371.742 508.691 372.758 508.691C373.969 508.691 375.031 508.879 375.945 509.254C376.859 509.621 377.57 510.168 378.078 510.895C378.594 511.613 378.852 512.504 378.852 513.566C378.852 514.152 378.715 514.703 378.441 515.219C378.168 515.734 377.785 516.188 377.293 516.578C376.801 516.969 376.223 517.277 375.559 517.504C374.902 517.723 374.184 517.832 373.402 517.832H370.824V515.816ZM370.824 518.758V516.789H373.402C374.254 516.789 375.031 516.887 375.734 517.082C376.438 517.27 377.043 517.551 377.551 517.926C378.059 518.301 378.449 518.766 378.723 519.32C378.996 519.867 379.133 520.496 379.133 521.207C379.133 522.004 378.973 522.715 378.652 523.34C378.332 523.965 377.883 524.492 377.305 524.922C376.727 525.352 376.051 525.68 375.277 525.906C374.504 526.125 373.664 526.234 372.758 526.234C372.047 526.234 371.336 526.141 370.625 525.953C369.914 525.758 369.266 525.461 368.68 525.062C368.094 524.656 367.621 524.141 367.262 523.516C366.91 522.883 366.734 522.129 366.734 521.254H370.695C370.695 521.613 370.793 521.941 370.988 522.238C371.191 522.527 371.461 522.758 371.797 522.93C372.133 523.102 372.496 523.188 372.887 523.188C373.371 523.188 373.781 523.098 374.117 522.918C374.461 522.73 374.723 522.48 374.902 522.168C375.082 521.855 375.172 521.508 375.172 521.125C375.172 520.547 375.074 520.086 374.879 519.742C374.691 519.398 374.414 519.148 374.047 518.992C373.688 518.836 373.254 518.758 372.746 518.758H370.824Z" fill="#1F1F1F"/>
</g>
<defs>
<filter id="filter0_d_4965_578" x="73" y="438" width="402" height="185" filterUnits="userSpaceOnUse" color-interpolation-filters="sRGB">
<feFlood flood-opacity="0" result="BackgroundImageFix"/>
<feColorMatrix in="SourceAlpha" type="matrix" values="0 0 0 0 0 0 0 0 0 0 0 0 0 0 0 0 0 0 127 0" result="hardAlpha"/>
<feOffset dy="24"/>
<feGaussianBlur stdDeviation="25"/>
<feComposite in2="hardAlpha" operator="out"/>
<feColorMatrix type="matrix" values="0 0 0 0 0 0 0 0 0 0 0 0 0 0 0 0 0 0 0.1 0"/>
<feBlend mode="normal" in2="BackgroundImageFix" result="effect1_dropShadow_4965_578"/>
<feBlend mode="normal" in="SourceGraphic" in2="effect1_dropShadow_4965_578" result="shape"/>
</filter>
<clipPath id="clip0_4965_578">
<rect width="477" height="684" fill="white"/>
</clipPath>
</defs>
</svg>
