<svg width="119" height="48" viewBox="0 0 119 48" fill="none" xmlns="http://www.w3.org/2000/svg">
<g clip-path="url(#clip0_3821_363)">
<path d="M117.533 0H21.4628C20.4401 0 19.2385 0.824501 18.7719 1.84714L6.40444 28.8831C5.93786 29.8993 6.38526 30.7302 7.4079 30.7302H103.472C104.488 30.7302 105.696 29.9057 106.163 28.8831L118.537 1.84714C119.003 0.830892 118.556 0 117.533 0Z" fill="white"/>
<path d="M42.2158 11.4152C40.1961 15.2437 37.3583 18.5736 33.6065 21.3731C29.9122 24.2109 26.122 25.9366 22.2552 26.5822C21.1814 26.4991 20.3186 26.3265 19.7689 26.0644C19.1617 25.8152 18.5609 25.3806 17.877 24.767L16.9758 24.0831C16.6307 23.7379 16.3687 23.4759 16.2025 23.3033C15.9404 23.0477 15.7295 22.7409 15.5953 22.4852C15.3844 22.2232 15.3013 21.9675 15.3396 21.6607C15.3396 21.4051 15.4738 21.143 15.64 20.9321C15.8126 20.6764 16.0235 20.5039 16.2408 20.4591L21.3157 17.8706C21.4882 17.8258 21.6608 17.7939 21.8781 17.7939C22.1785 17.8258 22.4342 17.9601 22.6451 18.1774C22.8624 18.3883 22.9455 18.5672 22.9071 18.6887L20.9258 19.641L20.7149 20.1587L23.2139 19.0338C23.6422 19.6858 23.9042 20.376 24.032 21.0599C26.742 19.8967 29.1069 18.5161 31.1713 16.8415C32.8075 15.5057 34.5268 13.7417 36.3356 11.5877C35.6453 11.1148 35.1788 10.808 34.9551 10.6418C34.6099 10.3798 34.3543 10.1624 34.1817 9.98988C34.0091 9.77257 33.8813 9.60639 33.7918 9.38908C33.7087 9.21651 33.6576 8.9992 33.7087 8.83302C33.7087 8.69241 33.7918 8.52623 33.9708 8.31531L38.138 3.27243C38.3489 3.00399 38.6493 2.88255 38.9945 2.92729C39.3332 2.96564 39.64 3.09986 39.8573 3.40026L38.0422 5.56058L38.17 6.24447L40.3687 3.79014C41.2251 4.82556 41.7876 6.08468 42.0816 7.54194C42.2541 8.6221 42.2989 9.90679 42.2158 11.428" fill="#009CA7"/>
<path d="M50.6589 23.9744H46.2808L52.4613 10.2711H47.6933L49.2848 6.73657H63.1351L61.5372 10.2711H56.8906L50.6589 23.9744Z" fill="#009CA7"/>
<path d="M71.0543 20.523L69.5011 23.9744H57.1592L64.9823 6.73657H76.8577L75.2982 10.188H67.7307L66.2926 13.3326H73.2593L71.6998 16.7328H64.7778L63.0585 20.523H71.0543Z" fill="#009CA7"/>
<path d="M72.4731 23.9744L80.3411 6.73657H84.6425L78.4939 20.3185H86.7901L85.1155 23.9744H72.4731Z" fill="#009CA7"/>
<path d="M104.929 10.188H97.3678L95.9233 13.3326H102.852L101.33 16.7328H94.3701L92.6444 20.523H100.691L99.0871 23.9744H86.7451L94.5747 6.73657H106.444L104.929 10.188Z" fill="#009CA7"/>
<path d="M7.78505 42.5224C7.33765 42.6694 6.74963 42.8228 6.01461 42.9251C4.64683 43.1488 3.87347 43.6665 3.6945 44.4079C3.57946 44.7339 3.6242 45.0279 3.79677 45.2516C3.95016 45.4753 4.20582 45.5456 4.57014 45.5456C5.23485 45.5456 5.82926 45.3603 6.30223 44.9192C6.74324 44.4782 7.26734 43.6985 7.77866 42.516M6.19357 46.5107C5.60556 46.9517 4.9728 47.2841 4.34644 47.5461C3.72007 47.7634 3.09371 47.8721 2.47373 47.8721C1.51501 47.8721 0.811948 47.5845 0.370936 46.9965C-0.031727 46.434 -0.114816 45.6607 0.147234 44.6636C0.441242 43.6346 0.99091 42.8164 1.84098 42.222C2.65269 41.6404 3.79677 41.2633 5.23485 41.078C5.52886 41.0396 5.93152 41.0013 6.44923 40.9693C7.96401 40.8223 8.80769 40.4516 8.99304 39.8316C9.06335 39.5312 8.99304 39.2756 8.80769 39.0902C8.62873 38.8985 8.32833 38.8282 7.96401 38.8282C7.51661 38.8282 7.15229 38.8985 6.81994 39.0519C6.51954 39.2436 6.26388 39.4993 6.04657 39.87H2.77413C3.3238 38.7642 4.13552 37.9078 5.13898 37.3581C6.12966 36.7957 7.34404 36.5081 8.75016 36.5081C10.1563 36.5081 11.2237 36.7957 11.85 37.3965C12.4764 37.9845 12.6554 38.8346 12.3677 39.87C12.291 40.0937 12.2591 40.2726 12.1824 40.458C12.1057 40.5986 12.0354 40.752 11.9587 40.9054L9.60023 45.814C9.52992 45.9291 9.49158 46.0314 9.44683 46.1464C9.40849 46.2551 9.37014 46.4021 9.33818 46.5171C9.26148 46.7025 9.26148 46.8495 9.26148 46.9581C9.26148 47.0732 9.29344 47.1818 9.36375 47.2905L9.29344 47.6292H5.86761L6.19996 46.5171L6.19357 46.5107Z" fill="white"/>
<path d="M11.5432 44.1906H14.643C14.5663 44.7083 14.6814 45.1046 14.9434 45.3667C15.1991 45.6287 15.6018 45.7821 16.1578 45.7821C16.5924 45.7821 17.0015 45.6735 17.3275 45.5201C17.6726 45.3347 17.8835 45.111 17.9602 44.8554C18.0689 44.4143 17.5895 43.9669 16.4454 43.4109C16.1514 43.3022 15.8958 43.1872 15.7488 43.0785C14.643 42.5608 13.94 42.0431 13.646 41.6021C13.3839 41.1611 13.3584 40.5731 13.5373 39.9083C13.8249 38.8665 14.496 38.0548 15.5251 37.4604C16.5605 36.8404 17.8132 36.54 19.2896 36.54C20.7661 36.54 21.8271 36.8404 22.4918 37.4221C23.1565 38.0101 23.4185 38.8282 23.1884 39.9339H20.095C20.095 39.4546 19.948 39.1605 19.7243 38.9305C19.5006 38.7515 19.1426 38.6748 18.6569 38.6748C18.2159 38.6748 17.8771 38.7515 17.5831 38.8985C17.2891 39.0519 17.0974 39.2372 17.0271 39.4929C16.9184 39.8253 17.3594 40.2024 18.3565 40.637C18.9829 40.9374 19.5325 41.193 19.9416 41.3784C20.6382 41.7427 21.124 42.1901 21.3733 42.6695C21.6417 43.1488 21.6737 43.7049 21.4883 44.3696C21.1879 45.4434 20.4976 46.2934 19.4175 46.9582C18.3501 47.6548 17.091 48 15.6593 48C14.1062 48 12.9685 47.6548 12.2335 47.0029C11.492 46.3318 11.2747 45.4114 11.5304 44.1906" fill="white"/>
<path d="M22.0951 44.1906H25.2269C25.1566 44.7083 25.2589 45.1046 25.521 45.3667C25.751 45.6287 26.1921 45.7821 26.7417 45.7821C27.1827 45.7821 27.5918 45.6735 27.9241 45.5201C28.2501 45.3347 28.4802 45.111 28.5505 44.8554C28.6592 44.4143 28.1415 43.9669 27.0357 43.4109C26.7417 43.3022 26.4797 43.1872 26.2943 43.0785C25.1886 42.5608 24.5239 42.0431 24.2299 41.6021C23.9742 41.1611 23.8975 40.5731 24.1148 39.9083C24.3705 38.8665 25.0352 38.0548 26.0706 37.4604C27.1444 36.8404 28.3588 36.54 29.8352 36.54C31.3116 36.54 32.4174 36.8404 33.0757 37.4221C33.7404 38.0101 33.9641 38.8282 33.7404 39.9339H30.6789C30.6469 39.4546 30.5319 39.1605 30.3146 38.9305C30.0909 38.7515 29.7202 38.6748 29.2472 38.6748C28.8062 38.6748 28.4291 38.7515 28.1351 38.8985C27.8475 39.0519 27.6493 39.2372 27.6238 39.4929C27.5151 39.8253 27.9561 40.2024 28.9148 40.637C29.5795 40.9374 30.0973 41.193 30.4935 41.3784C31.2349 41.7427 31.7143 42.1901 31.97 42.6695C32.232 43.1488 32.2704 43.7049 32.085 44.3696C31.7846 45.4434 31.0879 46.2934 30.0142 46.9582C28.9468 47.6548 27.6557 48 26.2496 48C24.6709 48 23.5268 47.6548 22.8301 47.0029C22.0951 46.3318 21.8586 45.4114 22.0951 44.1906Z" fill="white"/>
<path d="M37.32 35.7219L38.6494 32.9863H42.1456L40.8162 35.7219H37.32ZM31.4526 47.6292L36.764 36.9107H40.2345L34.9168 47.6292H31.4526Z" fill="white"/>
<path d="M37.8056 44.1906H40.899C40.8607 44.7083 40.9821 45.1046 41.2314 45.3667C41.4551 45.6287 41.8961 45.7821 42.4522 45.7821C42.8932 45.7821 43.3022 45.6735 43.6346 45.5201C43.967 45.3347 44.1907 45.111 44.261 44.8554C44.3696 44.4143 43.8519 43.9669 42.7526 43.4109C42.4522 43.3022 42.1901 43.1872 42.0112 43.0785C40.9054 42.5608 40.2471 42.0431 39.9467 41.6021C39.6911 41.1611 39.6144 40.5731 39.8317 39.9083C40.0937 38.8665 40.7584 38.0548 41.7939 37.4604C42.8548 36.8404 44.082 36.54 45.552 36.54C47.0221 36.54 48.1406 36.8404 48.7989 37.4221C49.4636 38.0101 49.6873 38.8282 49.4636 39.9339H46.4085C46.3638 39.4546 46.2487 39.1605 46.0314 38.9305C45.8205 38.7515 45.4434 38.6748 44.9704 38.6748C44.4974 38.6748 44.1459 38.7515 43.8519 38.8985C43.5643 39.0519 43.3789 39.2372 43.3342 39.4929C43.2255 39.8253 43.6666 40.2024 44.6253 40.637C45.2964 40.9374 45.8141 41.193 46.2104 41.3784C46.9518 41.7427 47.4311 42.1901 47.6868 42.6695C47.9425 43.1488 47.9872 43.7049 47.7954 44.3696C47.5078 45.4434 46.8112 46.2934 45.731 46.9582C44.6636 47.6548 43.3725 48 41.9728 48C40.3813 48 39.2373 47.6548 38.5406 47.0029C37.8056 46.3318 37.5819 45.4114 37.8056 44.1906Z" fill="white"/>
<path d="M53.9504 45.2196L52.736 47.6292C52.327 47.6995 51.9946 47.7379 51.7325 47.7379C51.4833 47.7762 51.2212 47.7762 51.0039 47.7762C50.0005 47.7762 49.3038 47.5589 48.9011 47.1562C48.4921 46.7408 48.4218 46.1592 48.6391 45.373C48.671 45.1941 48.7797 44.964 48.8564 44.7147C48.965 44.459 49.0737 44.197 49.2271 43.9349L51.6942 38.9368H50.2945L51.3235 36.9107H52.7296L54.2764 33.7341H57.8172L56.2258 36.9107H58.0345L57.0439 38.9368H55.2415L53.062 43.3341C52.9597 43.6026 52.8447 43.8518 52.736 44.0436C52.6593 44.2673 52.589 44.4526 52.5507 44.5549C52.5123 44.785 52.5123 44.9576 52.6593 45.1046C52.768 45.258 52.9853 45.2963 53.2921 45.2963C53.3624 45.2963 53.5541 45.2963 53.8034 45.258C53.8801 45.258 53.912 45.2196 53.9504 45.2196Z" fill="white"/>
<path d="M62.2914 42.5224C61.844 42.6694 61.256 42.8228 60.5209 42.9251C59.1915 43.1488 58.4181 43.6665 58.2008 44.4079C58.0858 44.7339 58.1241 45.0279 58.3031 45.2516C58.4565 45.4753 58.7441 45.5456 59.0765 45.5456C59.7795 45.5456 60.3356 45.3603 60.8149 44.9192C61.2943 44.4782 61.7737 43.6985 62.2978 42.516M60.7063 46.5107C60.1183 46.9517 59.4983 47.2841 58.8655 47.5461C58.2392 47.7634 57.6128 47.8721 56.9801 47.8721C56.0149 47.8721 55.3247 47.5845 54.8773 46.9965C54.4682 46.434 54.3979 45.6607 54.6599 44.6636C54.954 43.6346 55.542 42.8164 56.3601 42.222C57.2038 41.6404 58.3095 41.2633 59.7412 41.078C60.0735 41.0396 60.4826 41.0013 61.0003 40.9693C62.4703 40.8223 63.3268 40.4516 63.5058 39.8316C63.5824 39.5312 63.5441 39.2756 63.3268 39.0902C63.1414 38.8985 62.8794 38.8282 62.4767 38.8282C62.0421 38.8282 61.665 38.8985 61.3774 39.0519C61.045 39.2436 60.7894 39.4993 60.604 39.87H57.2868C57.8749 38.7642 58.6482 37.9078 59.6517 37.3581C60.6424 36.7957 61.8568 36.5081 63.2629 36.5081C64.669 36.5081 65.73 36.7957 66.3947 37.3965C67.0275 37.9845 67.1681 38.8346 66.8805 39.87C66.8357 40.0937 66.7718 40.2726 66.6951 40.458C66.6184 40.5986 66.5864 40.752 66.5034 40.9054L64.1193 45.814C64.0426 45.9291 64.0043 46.0314 63.9723 46.1464C63.934 46.2551 63.8956 46.4021 63.8637 46.5171C63.787 46.7025 63.787 46.8495 63.787 46.9581C63.787 47.0732 63.8637 47.1818 63.902 47.2905L63.8253 47.6292H60.3995L60.7255 46.5171L60.7063 46.5107Z" fill="white"/>
<path d="M64.7905 47.6292L70.1018 36.9107H73.3423L72.5753 38.4255C73.3423 37.7991 74.0454 37.3517 74.7421 37.0513C75.4451 36.7573 76.1034 36.6167 76.7745 36.6167C77.7716 36.6167 78.4683 36.8724 78.8773 37.3901C79.2864 37.9397 79.3247 38.6811 79.0627 39.6463C78.9924 39.9403 78.8773 40.2279 78.7303 40.605C78.5897 40.9437 78.4044 41.3144 78.2254 41.7235L75.3045 47.6356H71.802L74.6014 41.9791C74.7484 41.6851 74.8635 41.3847 74.9722 41.1674C75.0872 40.9118 75.1639 40.72 75.2022 40.605C75.3109 40.2087 75.2725 39.87 75.1639 39.6846C75.0169 39.4673 74.7548 39.3906 74.3458 39.3906C73.7194 39.3906 73.0867 39.6143 72.5434 40.0937C71.949 40.5347 71.4696 41.1994 71.0286 42.0495L68.3058 47.6356H64.7969L64.7905 47.6292Z" fill="white"/>
<path d="M85.4412 43.6665H88.9437C88.4324 44.9576 87.544 45.993 86.3232 46.7728C85.0705 47.5909 83.741 47.9999 82.271 47.9999C80.6859 47.9999 79.5802 47.5525 78.9858 46.6641C78.3978 45.8141 78.3211 44.5166 78.8004 42.8676C79.3181 41.046 80.3152 39.5312 81.7469 38.3552C83.1466 37.1664 84.7381 36.5784 86.4638 36.5784C87.9402 36.5784 89.0076 36.981 89.6404 37.7288C90.2603 38.5086 90.4074 39.5376 90.043 40.9118H86.5789C86.7195 40.3557 86.6875 39.9467 86.5405 39.6463C86.3551 39.3139 86.0548 39.1669 85.6137 39.1669C84.9554 39.1669 84.3227 39.576 83.6579 40.3493C82.9996 41.1291 82.5139 42.1262 82.1879 43.2639C81.9962 43.9286 81.9962 44.4527 82.1879 44.785C82.3285 45.1046 82.6992 45.2963 83.1786 45.2963C83.6196 45.2963 84.0287 45.143 84.4313 44.8553C84.8404 44.5997 85.1727 44.1906 85.4284 43.6665" fill="white"/>
<path d="M94.0761 41.0844H98.0196L98.058 40.9438C98.0963 40.8735 98.0963 40.7904 98.1283 40.7904C98.2817 40.1704 98.2817 39.6783 98.0963 39.3523C97.8726 39.02 97.5466 38.8346 97.0225 38.8346C96.3962 38.8346 95.8465 39.02 95.3288 39.4226C94.8111 39.8381 94.402 40.3814 94.0761 41.0844ZM96.2811 44.4144H99.937C99.3107 45.4818 98.4287 46.3318 97.2462 47.0029C96.1022 47.6293 94.8878 47.9553 93.5584 47.9553C92.0116 47.9553 90.9059 47.4759 90.2348 46.5491C89.5765 45.6671 89.4998 44.408 89.9472 42.8165C90.4201 41.0397 91.4236 39.5249 92.8936 38.3489C94.3317 37.1281 95.9488 36.5337 97.6489 36.5337C99.234 36.5337 100.34 36.9683 100.966 37.8631C101.592 38.7515 101.701 40.0043 101.222 41.5957C101.183 41.8578 101.075 42.0751 101.011 42.3372C100.896 42.5992 100.787 42.8932 100.602 43.2639H93.2196L93.1557 43.6091C92.9639 44.2226 92.9639 44.6764 93.1876 45.0088C93.373 45.3028 93.7437 45.4498 94.2934 45.4498C94.696 45.4498 95.0667 45.3731 95.3991 45.1941C95.7378 45.0088 96.0319 44.7467 96.2811 44.4208" fill="white"/>
</g>
<defs>
<clipPath id="clip0_3821_363">
<rect width="118.715" height="48" fill="white"/>
</clipPath>
</defs>
</svg>
