<svg width="20" height="20" viewBox="0 0 20 20" fill="none" xmlns="http://www.w3.org/2000/svg">
<path d="M6.901 9.67859L8.901 11.6786L12.901 7.67859M5.73574 2.37564C6.45327 2.31838 7.13446 2.03622 7.68232 1.56934C8.96081 0.479818 10.8412 0.479818 12.1197 1.56934C12.6675 2.03622 13.3487 2.31838 14.0663 2.37564C15.7407 2.50926 17.0703 3.83889 17.204 5.51333C17.2612 6.23086 17.5434 6.91205 18.0103 7.45991C19.0998 8.73839 19.0998 10.6188 18.0103 11.8973C17.5434 12.4451 17.2612 13.1263 17.204 13.8439C17.0703 15.5183 15.7407 16.8479 14.0663 16.9815C13.3487 17.0388 12.6675 17.321 12.1197 17.7878C10.8412 18.8774 8.96081 18.8774 7.68232 17.7878C7.13446 17.321 6.45327 17.0388 5.73574 16.9815C4.06131 16.8479 2.73167 15.5183 2.59805 13.8439C2.54079 13.1263 2.25863 12.4451 1.79175 11.8973C0.70223 10.6188 0.70223 8.73839 1.79175 7.45991C2.25863 6.91205 2.54079 6.23086 2.59805 5.51333C2.73167 3.83889 4.06131 2.50926 5.73574 2.37564Z" stroke="white" stroke-width="1.5" stroke-linecap="round" stroke-linejoin="round"/>
</svg>
