<svg width="78" height="81" viewBox="0 0 78 81" fill="none" xmlns="http://www.w3.org/2000/svg">
<path d="M29.7563 69.2956L26.5947 80.3035L26.8639 80.38L30.0255 69.3721L29.7563 69.2956Z" fill="white"/>
<path d="M26.0557 52.566C37.9886 52.566 47.6622 42.9461 47.6622 31.0795C47.6622 19.2128 37.9886 9.59296 26.0557 9.59296C14.1228 9.59296 4.44922 19.2128 4.44922 31.0795C4.44922 42.9461 14.1228 52.566 26.0557 52.566Z" fill="#8E8EEF"/>
<path d="M73.9083 61.978C71.4717 65.0062 68.534 65.3449 67.5159 65.3662C67.2798 65.3709 67.1473 65.3588 67.1473 65.3588L67.4926 70.81L67.7287 74.5323C64.6052 80.1107 59.202 78.5553 55.8919 77.7303C52.5818 76.9044 49.9782 71.958 40.3242 73.6321C34.9583 74.563 31.3757 73.428 29.2508 72.2364C27.7241 71.3798 26.9784 69.6027 27.4441 67.922L29.5 60.5034C29.4104 60.6797 26.6416 66.0669 21.5603 66.5866C20.949 66.6488 20.3032 66.6413 19.6257 66.5448C14.4045 65.8061 15.3554 60.2055 15.8864 58.1601C16.0058 57.6971 16.1048 57.4159 16.1048 57.4159L24.4215 35.6463C24.4215 35.6463 23.226 32.5346 24.8311 31.8145C26.4372 31.0944 28.6237 32.6423 28.6237 32.6423L34.2985 30.8169L59.0788 29.3404L64.036 31.3718C68.1607 28.8485 66.8225 33.0534 66.8225 33.0534L74.5271 54.3218C74.5271 54.3218 75.0832 55.2397 75.3194 56.6085C75.5722 58.072 75.4584 60.0515 73.9083 61.978Z" fill="#FCF594"/>
<path d="M49.4868 11.1985C52.0695 11.1985 54.1631 9.18167 54.1631 6.69383C54.1631 4.206 52.0695 2.18921 49.4868 2.18921C46.9042 2.18921 44.8105 4.206 44.8105 6.69383C44.8105 9.18167 46.9042 11.1985 49.4868 11.1985Z" fill="#020059"/>
<path d="M53.7202 13.4313C55.3751 13.4313 56.7167 12.2438 56.7167 10.779C56.7167 9.31418 55.3751 8.12671 53.7202 8.12671C52.0652 8.12671 50.7236 9.31418 50.7236 10.779C50.7236 12.2438 52.0652 13.4313 53.7202 13.4313Z" fill="#020059"/>
<path d="M24.1486 46.1849C24.0515 46.1923 23.5429 45.4035 23.1305 44.7381C22.7796 44.1702 22.6965 43.4779 22.9046 42.844L23.5943 40.7458C23.7483 40.278 24.1001 39.9003 24.5573 39.7129L26.8773 38.7607C27.1591 38.6457 27.4587 38.5807 27.7629 38.5705L30.9311 38.4619C32.0678 38.4229 33.1391 38.9909 33.7391 39.9523C34.3364 40.9082 34.5818 42.0413 34.4325 43.1568L34.0844 45.7571L30.8163 45.7979L30.2947 45.14C30.2947 45.14 29.2224 46.1367 28.9434 46.0132C28.6644 45.8898 24.1477 46.1849 24.1477 46.1849H24.1486Z" fill="#FF7A8A"/>
<path d="M49.8214 56.1667C49.8214 56.1667 49.2484 59.2775 50.0174 59.7647C50.7863 60.2519 52.4568 58.2594 52.4568 58.2594L53.1726 51.7892C53.1726 51.7892 52.747 50.5689 52.3131 50.6849C51.8801 50.8009 51.5058 51.7892 51.5058 51.7892L49.8205 56.1677L49.8214 56.1667Z" fill="#020059"/>
<path d="M52.957 67.0255L31.1863 67.1628L17.5615 44.817L39.3322 44.6787L52.957 67.0255Z" fill="#020059"/>
<path d="M31.8837 66.6395C31.8351 66.6395 31.7894 66.6144 31.7642 66.5727L18.1385 44.2268C18.1124 44.1841 18.1114 44.1303 18.1357 44.0867C18.16 44.0431 18.2066 44.0161 18.257 44.0152L40.0277 43.8779C40.0763 43.8779 40.122 43.9029 40.1472 43.9447L53.7729 66.2906C53.799 66.3332 53.7999 66.3871 53.7757 66.4307C53.7514 66.4743 53.7048 66.5012 53.6544 66.5021L31.8837 66.6395ZM18.5062 44.2918L31.963 66.3602L53.4071 66.2247L39.9503 44.1563L18.5062 44.2918Z" fill="#020059"/>
<path d="M53.174 51.7883L49.0557 50.9123L48.5257 49.2493C48.4436 48.9913 48.3297 48.7435 48.1879 48.5124L45.5366 44.1953C45.2996 43.8092 44.8647 43.5893 44.4112 43.6255C43.8485 43.6709 43.3931 44.0997 43.3156 44.6565L43.366 47.6568L39.7984 46.687C39.6294 46.6499 39.4568 46.6313 39.2832 46.6313H37.9749C37.1453 46.6313 36.3959 47.1241 36.0711 47.8841L35.7184 48.7101C35.5868 49.0182 35.5373 49.356 35.5765 49.6882L35.6885 50.6571C35.822 51.8106 36.5471 52.8138 37.6035 53.3075L41.4651 55.1125L48.284 55.5663L52.4582 58.2585C53.313 56.073 53.6023 53.9135 53.174 51.7883Z" fill="#FF7A8A"/>
<path d="M59.0782 29.3404C59.0782 29.3404 56.4792 38.2457 45.696 39.0753C34.9119 39.905 34.2979 30.8169 34.2979 30.8169L38.4366 29.6346L41.3762 28.7956L42.1881 24.1565L42.2432 23.84L51.7394 20.8369L52.7968 28.5377L59.0782 29.3404Z" fill="#FF7A8A"/>
<path d="M50.394 18.2802C50.394 18.2802 49.0614 24.3291 50.044 25.0307C51.0267 25.7313 52.4965 25.6998 52.5758 25.0307C52.6551 24.3616 53.3233 17.5294 54.9098 15.2363C56.4962 12.9432 52.5758 11.1994 52.5758 11.1994L50.6002 12.2787L50.394 18.2802Z" fill="#020059"/>
<path d="M47.5092 22.8071L42.1881 24.1564L41.3762 28.7956L41.1709 29.7431C48.0439 28.6694 47.5092 22.8071 47.5092 22.8071Z" fill="#020059"/>
<path d="M51.6526 17.2594C51.0227 22.4637 47.1097 26.2751 42.9122 25.7731C38.7146 25.271 36.8725 21.2582 38.3609 14.4326C39.478 9.30993 40.9954 6.42378 45.1929 6.92677C49.3905 7.42883 52.2825 12.055 51.6526 17.2594Z" fill="#FF7A8A"/>
<path d="M46.2158 6.53792C46.2158 8.14711 46.8401 10.2955 43.2053 10.2955C39.5705 10.2955 36.2324 7.80282 35.6454 6.30313C35.0257 4.72085 35.2478 0 38.8827 0C42.5175 0 46.2158 4.9278 46.2158 6.53792Z" fill="#020059"/>
<path d="M11.5464 49.7755C12.1092 49.7755 12.5655 49.3217 12.5655 48.7621C12.5655 48.2024 12.1092 47.7487 11.5464 47.7487C10.9836 47.7487 10.5273 48.2024 10.5273 48.7621C10.5273 49.3217 10.9836 49.7755 11.5464 49.7755Z" fill="#8E8EEF"/>
<path d="M11.5464 46.4225C12.1092 46.4225 12.5655 45.9688 12.5655 45.4091C12.5655 44.8494 12.1092 44.3957 11.5464 44.3957C10.9836 44.3957 10.5273 44.8494 10.5273 45.4091C10.5273 45.9688 10.9836 46.4225 11.5464 46.4225Z" fill="#756DE7"/>
<path d="M15.0903 46.4225C15.6532 46.4225 16.1094 45.9688 16.1094 45.4091C16.1094 44.8494 15.6532 44.3957 15.0903 44.3957C14.5275 44.3957 14.0713 44.8494 14.0713 45.4091C14.0713 45.9688 14.5275 46.4225 15.0903 46.4225Z" fill="#756DE7"/>
<path d="M8.00343 43.0705C8.56625 43.0705 9.02249 42.6168 9.02249 42.0571C9.02249 41.4974 8.56625 41.0437 8.00343 41.0437C7.44062 41.0437 6.98438 41.4974 6.98438 42.0571C6.98438 42.6168 7.44062 43.0705 8.00343 43.0705Z" fill="#756DE7"/>
<path d="M11.5464 43.0705C12.1092 43.0705 12.5655 42.6168 12.5655 42.0571C12.5655 41.4974 12.1092 41.0437 11.5464 41.0437C10.9836 41.0437 10.5273 41.4974 10.5273 42.0571C10.5273 42.6168 10.9836 43.0705 11.5464 43.0705Z" fill="#756DE7"/>
<path d="M15.0903 43.0705C15.6532 43.0705 16.1094 42.6168 16.1094 42.0571C16.1094 41.4974 15.6532 41.0437 15.0903 41.0437C14.5275 41.0437 14.0713 41.4974 14.0713 42.0571C14.0713 42.6168 14.5275 43.0705 15.0903 43.0705Z" fill="#756DE7"/>
<path d="M12.552 38.8686C12.6422 38.3161 12.2649 37.7956 11.7094 37.7059C11.1539 37.6162 10.6304 37.9914 10.5402 38.5438C10.4501 39.0963 10.8273 39.6168 11.3828 39.7065C11.9384 39.7962 12.4618 39.421 12.552 38.8686Z" fill="#756DE7"/>
<path d="M16.082 38.9357C16.2112 38.391 15.872 37.8452 15.3242 37.7166C14.7765 37.588 14.2276 37.9254 14.0983 38.4701C13.9691 39.0148 14.3083 39.5606 14.8561 39.6892C15.4038 39.8178 15.9527 39.4804 16.082 38.9357Z" fill="#756DE7"/>
<path d="M8.00343 36.3655C8.56625 36.3655 9.02249 35.9118 9.02249 35.3521C9.02249 34.7925 8.56625 34.3387 8.00343 34.3387C7.44062 34.3387 6.98438 34.7925 6.98438 35.3521C6.98438 35.9118 7.44062 36.3655 8.00343 36.3655Z" fill="#756DE7"/>
<path d="M11.5464 36.3655C12.1092 36.3655 12.5655 35.9118 12.5655 35.3521C12.5655 34.7924 12.1092 34.3387 11.5464 34.3387C10.9836 34.3387 10.5273 34.7924 10.5273 35.3521C10.5273 35.9118 10.9836 36.3655 11.5464 36.3655Z" fill="#756DE7"/>
<path d="M52.2928 18.8542C53.4504 18.0975 53.8805 16.7149 53.2534 15.7663C52.6263 14.8177 51.1795 14.6621 50.0219 15.4189C48.8642 16.1757 48.4341 17.5582 49.0612 18.5069C49.6883 19.4555 51.1352 19.611 52.2928 18.8542Z" fill="#FF7A8A"/>
<path d="M38.6827 13.8962L36.1201 19.5331C36.1201 19.5331 38.9067 21.1784 38.9365 21.0921C38.9655 21.0058 38.6827 13.8962 38.6827 13.8962Z" fill="#FF7A8A"/>
<path d="M53.5145 10.0013C53.5145 12.2128 51.7116 14.0067 49.4868 14.0067C47.2621 14.0067 45.4591 12.2137 45.4591 10.0013C45.4591 7.7889 44.7947 5.80107 49.4868 5.99596C51.7088 6.08876 53.5145 7.7889 53.5145 10.0013Z" fill="#020059"/>
<path d="M56.3038 14.6159C56.4584 13.8407 55.7543 13.0486 54.7311 12.8468C53.7078 12.6449 52.753 13.1098 52.5984 13.885C52.4437 14.6602 53.1478 15.4523 54.1711 15.6541C55.1943 15.856 56.1491 15.3911 56.3038 14.6159Z" fill="#020059"/>
<path d="M48.1233 12.6359C48.1233 12.6359 49.2254 14.5263 47.3394 16.7322C45.4534 18.9381 52.2863 15.8627 52.066 13.8869C51.8458 11.9111 50.4255 12.3733 50.4255 12.3733L48.1233 12.6359Z" fill="#020059"/>
<path d="M52.7959 28.5377L53.0749 29.9473L58.3093 29.242L52.7959 28.5377Z" fill="#020059"/>
<path d="M41.4648 55.1125L43.447 50.5188L47.8928 52.5131L48.2838 55.5672L41.4648 55.1125Z" fill="#020059"/>
<path d="M67.4922 70.81C60.1087 69.4736 54.2295 61.5947 54.2295 61.5947C62.7095 64.711 67.1469 65.3588 67.1469 65.3588L67.4922 70.81Z" fill="#020059"/>
<path d="M71.9898 44.5405L68.9961 48.1468L74.7465 49.1797L71.9898 44.5405Z" fill="#74EFDB"/>
<path d="M63.568 44.6787L62.6777 46.3278L64.5479 46.6962L63.568 44.6787Z" fill="#74EFDB"/>
<path d="M65.8464 37.6332L63.3604 40.9342L66.8216 43.0556L65.8464 37.6332Z" fill="#74EFDB"/>
<path d="M70.2742 39.6553L68.6924 40.9341L69.312 42.6798L70.2742 41.362V39.6553Z" fill="#74EFDB"/>
<path d="M71.584 40.9341V42.0366H72.4425L71.584 40.9341Z" fill="#74EFDB"/>
<path d="M67.5357 44.7882L66.4326 45.6875L68.4661 46.3798L67.5357 44.7882Z" fill="#74EFDB"/>
<path d="M76.7348 43.8296L74.7471 44.7882L78.0002 46.3798L76.7348 43.8296Z" fill="#74EFDB"/>
<path d="M76.3732 39.6553L75.3682 40.562L76.3732 40.9341V39.6553Z" fill="#74EFDB"/>
<path d="M73.9077 61.978C71.4711 65.0061 68.5334 65.3449 67.5153 65.3662C67.3053 64.7333 67.1924 64.0614 67.1924 63.3645C67.1924 59.6106 70.4726 56.5676 74.519 56.5676C74.7896 56.5676 75.0556 56.5815 75.3187 56.6085C75.5716 58.072 75.4578 60.0514 73.9077 61.978Z" fill="#FF7A8A"/>
<path d="M21.7152 64.9356C21.7152 65.5045 21.662 66.0576 21.5603 66.5866C20.949 66.6488 20.3032 66.6413 19.6257 66.5448C14.4045 65.8061 15.3554 60.2055 15.8864 58.1601C16.0814 58.1305 16.2802 58.1156 16.4808 58.1156C19.371 58.1156 21.7152 61.1688 21.7152 64.9356Z" fill="#FF7A8A"/>
<path d="M52.0595 23.0279L51.7832 23.0726L53.1843 31.637L53.4606 31.5923L52.0595 23.0279Z" fill="#020059"/>
<path d="M41.826 27.0549L40.4785 31.8414L40.7481 31.9164L42.0956 27.13L41.826 27.0549Z" fill="#020059"/>
<path d="M41.8608 10.7985C39.8926 10.7985 38.0327 10.0598 36.6777 9.33129L36.8112 9.0863C38.5815 10.0375 41.2355 11.011 43.8195 10.2426C45.3556 9.78603 46.1442 8.92296 46.1516 8.91461L46.3607 9.10022C46.3271 9.13827 45.5105 10.031 43.8998 10.5099C43.2186 10.7122 42.5327 10.7985 41.8608 10.7985Z" fill="#020059"/>
<path d="M50.3753 17.3726L50.1709 17.1823C50.1858 17.1666 50.5414 16.7926 51.078 16.4826C51.804 16.065 52.5123 15.9722 53.1264 16.2135L53.0228 16.4724C51.7247 15.9601 50.3883 17.3577 50.3743 17.3716L50.3753 17.3726Z" fill="#020059"/>
<path d="M21.976 27.3322H0V29.7497H21.976V27.3322Z" fill="#74EFDB"/>
<path d="M20.0539 23.2284H7.99219V25.6459H20.0539V23.2284Z" fill="#74EFDB"/>
<path d="M67.84 53.6073C59.4999 51.3605 52.3805 51.0543 52.3096 51.0515L52.3208 50.7731C52.3917 50.7759 59.541 51.083 67.9137 53.3381L67.84 53.6073Z" fill="#020059"/>
<path d="M58.3024 51.6334C56.9651 48.608 56.4658 40.6883 56.4453 40.3533L56.7243 40.3365C56.729 40.4182 57.2404 48.5421 58.5581 51.522L58.3015 51.6343L58.3024 51.6334Z" fill="#020059"/>
<path d="M30.9641 12.8206C29.5633 12.8206 28.4248 11.6875 28.4248 10.2955C28.4248 8.90344 29.5642 7.77032 30.9641 7.77032C32.3639 7.77032 33.5033 8.90344 33.5033 10.2955C33.5033 11.6875 32.3639 12.8206 30.9641 12.8206ZM30.9641 8.51181C29.9758 8.51181 29.1714 9.31177 29.1714 10.2945C29.1714 11.2773 29.9758 12.0773 30.9641 12.0773C31.9523 12.0773 32.7567 11.2773 32.7567 10.2945C32.7567 9.31177 31.9523 8.51181 30.9641 8.51181Z" fill="#756DE7"/>
<path d="M42.4841 9.03155C41.7758 8.92111 41.1095 8.755 40.502 8.53691L40.5971 8.27521C41.1879 8.48772 41.8364 8.6492 42.527 8.75685L42.4841 9.03155Z" fill="#756DE7"/>
<path d="M39.344 8.02184C36.9438 6.72168 36.4669 4.8313 36.4482 4.75149L36.7207 4.68652C36.7254 4.70508 37.1929 6.53886 39.4784 7.77684L39.344 8.02091V8.02184Z" fill="#756DE7"/>
<path d="M53.7201 8.406C53.4401 8.43199 54.2352 6.72443 54.7896 7.01397C55.3439 7.30351 54.6626 8.31877 53.7201 8.406Z" fill="#020059"/>
<path d="M43.2435 48.4679C43.2081 48.2934 43.2351 44.8551 43.2407 44.1674L43.5207 44.1702C43.5076 45.7877 43.4955 48.2535 43.5188 48.4168L43.2435 48.4688V48.4679Z" fill="#020059"/>
<path d="M36.0114 47.4237L35.8994 47.6788L41.2616 50.0052L41.3735 49.75L36.0114 47.4237Z" fill="#020059"/>
<path d="M50.1385 59.4008L50.0205 59.6533L57.4487 63.0853L57.5666 62.8329L50.1385 59.4008Z" fill="#020059"/>
<path d="M51.1732 59.2125C51.1658 59.2125 51.1611 59.2125 51.1602 59.2125L51.176 58.935L51.1676 59.0742L51.1742 58.935C51.1994 58.9341 53.0966 58.9128 53.4362 52.863L53.7162 52.8788C53.4997 56.7226 52.6542 58.2399 51.9832 58.8357C51.581 59.193 51.2441 59.2134 51.1732 59.2134V59.2125Z" fill="#020059"/>
<path d="M30.0641 41.5242L29.79 41.5811L30.6816 45.8252L30.9557 45.7683L30.0641 41.5242Z" fill="#020059"/>
<path d="M63.1722 32.4195L62.9473 32.2534C62.9622 32.233 63.3224 31.7532 63.8982 31.2567C64.669 30.5932 65.4585 30.2257 66.1808 30.1951L66.1929 30.4735C64.5906 30.5412 63.1862 32.4001 63.1722 32.4195Z" fill="#756DE7"/>
<path d="M29.4295 34.1012C29.4183 34.0807 28.2826 32.0577 27.4297 31.7403L27.5277 31.4795C28.4777 31.8321 29.6255 33.8794 29.674 33.9657L29.4295 34.1002V34.1012Z" fill="#8E8EEF"/>
<path d="M71.3612 57.3824L71.2539 57.1254C71.2903 57.1105 72.1628 56.7523 73.2398 56.5695C74.7105 56.3198 75.7977 56.5157 76.4705 57.1532L76.2773 57.3546C74.8225 55.9746 71.3967 57.3685 71.3622 57.3824H71.3612Z" fill="#756DE7"/>
<path d="M20.875 68.8417L20.6436 68.6849C22.1628 66.4724 21.3015 62.778 21.2921 62.7409L21.5646 62.6759C21.574 62.7149 21.7942 63.6457 21.8231 64.8735C21.8502 66.014 21.7074 67.6278 20.875 68.8408V68.8417Z" fill="#756DE7"/>
<path d="M33.4732 56.0851C33.1998 55.2016 33.5152 54.2903 34.1899 53.842C34.2841 53.7799 34.2468 53.6323 34.1339 53.6212C33.9389 53.6026 33.741 53.6212 33.5488 53.6796C32.5829 53.9757 32.1023 55.1895 32.4747 56.3913C32.847 57.5931 33.9314 58.3272 34.8973 58.0311C35.0895 57.9717 35.2631 57.8762 35.4143 57.7518C35.501 57.6803 35.4488 57.5374 35.3359 57.5384C34.5249 57.5449 33.7476 56.9695 33.4741 56.0851H33.4732Z" fill="#756DE7"/>
<path d="M31.0095 55.7179L30.9639 55.9926L35.4339 56.7277L35.4795 56.453L31.0095 55.7179Z" fill="#756DE7"/>
<path d="M29.4549 56.2631L29.4092 56.5378L33.8792 57.2729L33.9249 56.9982L29.4549 56.2631Z" fill="#756DE7"/>
<path d="M36.42 44.5428L17.5586 44.677L17.5606 44.9554L36.422 44.8212L36.42 44.5428Z" fill="white"/>
<path d="M49.2352 66.9507L31.1885 67.0917L31.1907 67.3701L49.2374 67.2291L49.2352 66.9507Z" fill="white"/>
<path d="M21.976 29.6104H0V29.8888H21.976V29.6104Z" fill="#020059"/>
<path d="M37.9263 20.7599L35.9414 19.5896L38.0943 14.8539L38.35 14.969L36.2998 19.4774L38.0691 20.5205L37.9263 20.7599Z" fill="#020059"/>
<path d="M44.96 39.3445C44.9003 39.3445 44.8406 39.3445 44.7799 39.3436C41.1441 39.3018 38.6338 38.0137 38.5293 37.9589L38.7458 37.5478C38.771 37.5608 41.2785 38.8443 44.807 38.8805C46.8703 38.9027 48.8823 38.4963 50.7785 37.6768C53.1526 36.6504 55.3568 34.967 57.3315 32.672L57.6861 32.9736C55.662 35.3271 53.3962 37.0541 50.9521 38.1084C49.0474 38.9297 47.0327 39.3454 44.9609 39.3454L44.96 39.3445Z" fill="white"/>
<path d="M51.9938 19.4037C52.638 18.589 52.6272 17.5118 51.9696 16.9976C51.3121 16.4834 50.2568 16.727 49.6127 17.5416C48.9685 18.3563 48.9793 19.4335 49.6369 19.9477C50.2944 20.4619 51.3496 20.2183 51.9938 19.4037Z" fill="#020059"/>
<path d="M40.2736 22.4479C40.2914 22.4479 42.1064 22.3728 44.2286 21.9078C47.1 21.2796 49.1437 20.2745 50.3018 18.9224L49.9678 18.6393C47.3455 21.7037 40.3278 22.009 40.2568 22.0118L40.2736 22.4479Z" fill="#020059"/>
<path d="M41.1669 22.138C41.2173 22.6633 40.145 23.324 39.5245 23.3825C38.9039 23.441 38.3598 23.0623 38.3094 22.5371C38.259 22.0118 38.7219 21.5385 39.3434 21.48C39.964 21.4216 41.1174 21.6128 41.1669 22.138Z" fill="#020059"/>
<path d="M52.1335 19.5122C52.6076 18.9127 52.5997 18.12 52.116 17.7417C51.6323 17.3635 50.8558 17.5428 50.3818 18.1423C49.9077 18.7418 49.9156 19.5344 50.3993 19.9127C50.883 20.291 51.6595 20.1117 52.1335 19.5122Z" fill="#756DE7"/>
</svg>
