<svg width="89" height="73" viewBox="0 0 89 73" fill="none" xmlns="http://www.w3.org/2000/svg">
<path d="M12.2122 67.0723C12.052 67.0723 11.9213 66.9451 11.9178 66.785L11.8248 62.8061C11.8212 62.6448 11.9484 62.5105 12.1097 62.5046L49.4751 61.333C49.5623 61.3295 49.6447 61.366 49.7036 61.4307C49.7613 61.4955 49.7883 61.5815 49.7766 61.6674L49.096 66.6319C49.076 66.7767 48.9524 66.8851 48.8064 66.8862L12.2133 67.0723H12.2122ZM12.4206 63.084L12.4994 66.4812L48.5473 66.2975L49.1455 61.9312L12.4206 63.0828V63.084Z" fill="white"/>
<path d="M81.5315 59.6515C81.515 59.4784 86.9994 58.3562 85.3369 55.463C83.6744 52.5698 79.4863 53.5201 79.4863 53.5201L81.5315 59.6515Z" fill="#020059"/>
<path d="M61.8769 25.5478L57.3485 34.2297L38.8866 30.8137C38.8866 30.8137 36.3045 22.7488 43.4173 17.7172C43.4173 17.7172 40.5938 15.4634 44.026 15.0124C44.026 15.0124 39.4529 7.26658 46.5468 6.10789C46.5468 6.10789 46.2972 -1.30704 53.2428 2.92384C53.4383 3.04277 55.633 -0.202511 59.2795 1.06923C59.2795 1.06923 61.1327 1.76986 61.1363 1.77104C61.2599 1.81814 62.6799 0.823121 62.8671 0.739516C64.1587 0.162525 65.5681 -0.10242 66.9786 0.0377063C73.3249 0.671219 75.3218 6.92039 74.4399 12.4124C74.4399 12.4124 75.303 12.2299 76.604 12.0874C79.2603 11.7977 82.2027 11.8719 84.5681 13.2649C89.6345 16.25 89.0941 23.6743 85.8268 27.8039C89.1483 31.7134 90.6554 37.1606 86.3566 41.0406C83.811 43.338 80.3565 45.1066 77.0997 45.9674C56.8387 51.3252 61.8757 25.5466 61.8757 25.5466L61.8769 25.5478Z" fill="#020059"/>
<path d="M85.3369 55.8127C84.7023 55.5301 81.4914 53.4353 73.6863 53.2846L71.9437 63.177L54.8017 64.4876L50.2168 47.7878C50.2168 47.7878 61.9981 29.6621 65.6669 31.2117C65.6669 31.2117 65.9142 31.1752 66.3192 31.1422C66.822 31.101 67.5684 31.0645 68.3856 31.1081C69.4723 31.1658 70.6815 31.366 71.6035 31.8864C71.972 32.0949 72.3664 32.5694 72.7738 33.2194C73.1058 33.7493 73.4473 34.3958 73.7887 35.1105C74.1632 35.8912 74.5388 36.7532 74.9061 37.6316C75.1687 38.2581 75.4265 38.8927 75.6773 39.5121C76.3944 41.2808 77.0514 42.9305 77.5694 43.922C77.7849 44.333 77.9757 44.6297 78.1381 44.7781C78.2924 44.9182 78.5538 45.2032 78.8882 45.5941C81.3231 48.4331 87.6717 56.8478 85.3369 55.8127Z" fill="#74EFDB"/>
<path d="M49.0311 29.6162C49.0311 29.6162 41.9913 27.101 35.1517 29.7539C28.3121 32.4081 37.8904 41.1065 38.4226 40.9158C38.9548 40.725 50.7996 40.9158 50.7996 40.9158L51.101 31.8853L49.0311 29.615V29.6162Z" fill="#74EFDB"/>
<path d="M71.1127 57.6579C70.7983 57.4165 68.7025 56.1471 68.8096 54.1865C68.9168 52.226 72.8553 52.226 72.8553 52.226L71.1127 57.6579Z" fill="#020059"/>
<path d="M55.1776 26.5616L55.094 31.6132L49.0303 29.615C49.0303 29.615 49.9616 47.5959 54.6124 47.7584C59.2644 47.9209 59.9473 47.5629 59.9508 46.6739C59.9556 45.7837 61.4426 32.6648 65.6637 31.2105L64.6876 21.0201L55.1752 26.5616H55.1776Z" fill="#FF7A8A"/>
<path d="M58.1199 63.6786H12.0074L0.294434 35.021L54.2038 34.875L58.1199 63.6786Z" fill="white"/>
<path d="M62.2148 22.7653C62.2148 22.7653 64.1022 32.0089 55.3599 33.8612L54.8018 30.1778L55.1774 26.5605L62.2136 22.7641L62.2148 22.7653Z" fill="#020059"/>
<path d="M68.2563 50.7387C68.2563 50.7387 70.7018 58.3915 71.4059 61.4743L62.3833 62.2809C62.4009 60.8714 62.1254 59.4736 61.5756 58.176L61.4084 57.7815C61.2294 57.3612 60.9986 56.9643 60.7208 56.6016L57.895 52.9101C57.6842 52.6357 57.3922 52.4355 57.0602 52.339L56.5586 52.1941L57.9044 61.7451L47.6067 62.1631C46.9249 62.1914 46.255 62.361 45.6427 62.6636C45.0187 62.9721 44.6549 63.6398 44.7361 64.331L44.7691 64.6171C44.8444 65.2612 44.4488 65.8677 43.8295 66.0572L43.6588 66.109C43.302 66.2186 43.0041 66.4658 42.831 66.7967L42.6109 67.2183C42.4048 67.6139 42.4272 68.0897 42.6697 68.4641L43.1395 69.1895C43.4445 69.6605 43.959 69.9549 44.5206 69.9796L52.845 70.3376L58.5779 68.258L71.938 72.5596C78.1737 74.5673 84.4222 69.432 83.6027 62.9332C83.5439 62.4669 83.4615 61.9806 83.3531 61.4743L81.1761 54.2101L68.2563 50.7399V50.7387Z" fill="#FF7A8A"/>
<path d="M26.903 32.5906C27.7095 31.7875 28.7221 31.2223 29.8289 30.955C30.314 30.8384 30.8097 30.7183 31.1806 30.63C31.5773 30.5346 31.9824 30.4863 32.3909 30.4863H34.2136L34.6151 30.4286C35.942 30.2379 37.2961 30.4875 38.4676 31.1399L42.9536 33.6339C43.1314 33.7328 43.2774 33.8823 43.3727 34.0625C43.5752 34.4464 43.3009 34.9091 42.8664 34.915L39.8122 34.9562L39.6603 35.5792C38.9692 37.3996 37.4209 38.7585 35.5264 39.2071L35.0025 39.3308C34.8965 39.3555 34.7893 39.3779 34.681 39.3944L33.4565 39.5934C33.0468 39.6593 32.63 39.6664 32.219 39.6146L31.0546 39.465C29.9431 39.3225 28.8999 38.8421 28.0733 38.0861C27.6141 37.6658 27.1844 37.2901 27.1102 37.2842C27.0984 37.2842 27.0808 37.2795 27.0584 37.2748C26.2342 37.0864 25.7456 36.2315 25.9752 35.4167C26.246 34.4558 26.6051 33.2865 26.7358 32.8673C26.7688 32.7625 26.8253 32.6683 26.903 32.5906Z" fill="#FF7A8A"/>
<path d="M29.9981 51.9987C32.5653 51.9987 34.6465 50.6269 34.6465 48.9347C34.6465 47.2426 32.5653 45.8708 29.9981 45.8708C27.4308 45.8708 25.3496 47.2426 25.3496 48.9347C25.3496 50.6269 27.4308 51.9987 29.9981 51.9987Z" fill="#FCF594"/>
<path d="M66.4001 21.3959C68.1369 20.6952 69.1024 19.0305 68.5568 17.6778C68.0111 16.325 66.1608 15.7964 64.424 16.4971C62.6872 17.1978 61.7217 18.8625 62.2673 20.2153C62.813 21.568 64.6633 22.0966 66.4001 21.3959Z" fill="#FF7A8A"/>
<path d="M64.3034 18.5297C64.3034 24.4927 60.2178 29.3265 55.1784 29.3265C51.1505 29.3265 47.7324 26.239 46.5209 21.9563C46.2359 20.9483 46.0734 19.8732 46.0546 18.7569C46.0534 18.6816 46.0522 18.605 46.0522 18.5297C46.0522 12.5666 48.8898 6.10669 53.9292 6.10669C58.9685 6.10669 64.3034 12.5666 64.3034 18.5297Z" fill="#FF7A8A"/>
<path d="M68.8098 54.1866C68.8098 54.1866 68.8922 51.6125 77.7264 53.1174C86.5606 54.6223 71.983 49.3599 71.0104 49.3057C70.039 49.2527 66.4291 49.2668 66.382 49.3057C66.3361 49.3446 68.8086 54.1866 68.8086 54.1866H68.8098Z" fill="#74EFDB"/>
<path d="M50.4502 9.22128C50.4502 9.22128 49.6319 14.4307 55.1787 14.5708C55.1787 14.5708 56.9036 14.4425 57.7243 15.9944C58.545 17.5476 62.7931 19.5 64.7876 15.9944C66.7822 12.4889 61.6887 8.45941 61.6887 8.45941L56.5669 5.49438L50.8011 6.10788L50.4514 9.22128H50.4502Z" fill="#020059"/>
<path d="M53.6879 22.0434H51.2589C51.2047 22.0434 51.1541 22.0187 51.12 21.9763C51.087 21.9339 51.074 21.8786 51.087 21.8256L52.4705 16.1039L52.8143 16.1875L51.4838 21.6902H53.6879V22.0434Z" fill="#020059"/>
<path d="M65.1197 19.2044L64.7959 19.0631C64.8312 18.9818 65.6813 17.0813 67.2084 16.9847L67.2308 17.3368C65.9192 17.4204 65.1279 19.1867 65.1197 19.2044Z" fill="#020059"/>
<path d="M74.1242 50.2041C74.8252 50.2041 75.3935 49.6358 75.3935 48.9347C75.3935 48.2337 74.8252 47.6653 74.1242 47.6653C73.4232 47.6653 72.855 48.2337 72.855 48.9347C72.855 49.6358 73.4232 50.2041 74.1242 50.2041Z" fill="#FCF594"/>
<path d="M68.8096 40.937C69.1133 40.937 69.3595 40.6908 69.3595 40.3871C69.3595 40.0834 69.1133 39.8372 68.8096 39.8372C68.5059 39.8372 68.2598 40.0834 68.2598 40.3871C68.2598 40.6908 68.5059 40.937 68.8096 40.937Z" fill="#FCF594"/>
<path d="M68.6378 45.9652C69.1466 45.7544 69.3883 45.171 69.1775 44.6621C68.9667 44.1532 68.3833 43.9115 67.8745 44.1223C67.3656 44.3331 67.124 44.9165 67.3348 45.4254C67.5455 45.9343 68.1289 46.176 68.6378 45.9652Z" fill="#FCF594"/>
<path d="M78.1384 44.778C77.9759 44.6297 77.7851 44.3329 77.5697 43.922C77.4178 43.9514 77.2612 43.9667 77.1011 43.9667C75.7482 43.9667 74.6461 42.8646 74.6461 41.5116C74.6461 40.6885 75.0535 39.9584 75.6776 39.5121C75.4268 38.8927 75.1689 38.258 74.9064 37.6316C73.557 38.3993 72.6445 39.8501 72.6445 41.5116C72.6445 43.9691 74.6438 45.9685 77.1011 45.9685C77.7369 45.9685 78.3409 45.8355 78.8884 45.5941C78.554 45.2031 78.2926 44.9182 78.1384 44.778Z" fill="#FCF594"/>
<path d="M65.9803 27.1704C64.439 27.1704 63.1851 25.5407 63.1851 23.5377C63.1851 21.855 64.0611 20.4043 65.315 20.0074L65.421 20.3442C64.3118 20.6951 63.5371 22.0081 63.5371 23.5377C63.5371 25.3464 64.6321 26.8171 65.9791 26.8171C67.326 26.8171 68.421 25.3464 68.421 23.5377C68.421 22.6286 68.1349 21.7514 67.6357 21.132L67.9112 20.9106C68.4681 21.6018 68.7743 22.5356 68.7743 23.5389C68.7743 25.5419 67.5203 27.1716 65.9791 27.1716L65.9803 27.1704Z" fill="white"/>
<path d="M45.9807 26.9314C44.4395 26.9314 43.1855 25.3017 43.1855 23.2987C43.1855 21.616 44.0615 20.1653 45.3155 19.7684L45.4215 20.1052C44.3123 20.4549 43.5376 21.7691 43.5376 23.2987C43.5376 25.1074 44.6338 26.5781 45.9796 26.5781C46.6224 26.5781 47.23 26.2437 47.6904 25.6361L47.9718 25.8492C47.4431 26.5475 46.7355 26.9314 45.9796 26.9314H45.9807Z" fill="white"/>
<path d="M72.7739 33.2194C72.337 33.8953 71.5764 34.3428 70.7134 34.3428C69.3605 34.3428 68.2584 33.2406 68.2584 31.8864C68.2584 31.6144 68.3032 31.353 68.3856 31.1081C67.5685 31.0645 66.822 31.101 66.3192 31.1422C66.278 31.3836 66.2568 31.6333 66.2568 31.8864C66.2568 34.3451 68.2561 36.3446 70.7134 36.3446C71.9049 36.3446 72.9893 35.8747 73.7888 35.1105C73.4473 34.3958 73.1059 33.7493 72.7739 33.2194Z" fill="#FCF594"/>
<path d="M64.395 46.0704L64.084 46.2378L69.0721 55.5065L69.3832 55.3391L64.395 46.0704Z" fill="#020059"/>
<path d="M74.7162 61.0072L64.6899 61.8986L64.7212 62.2505L74.7474 61.3591L74.7162 61.0072Z" fill="#020059"/>
<path d="M54.9764 30.1531L54.6274 30.2081L55.4459 35.3993L55.7948 35.3443L54.9764 30.1531Z" fill="#020059"/>
<path d="M10.6924 61.7369L0.0214258 35.1305C-0.0150742 35.041 -0.00447746 34.9386 0.0496839 34.8585C0.103845 34.7785 0.193329 34.729 0.289878 34.7266L9.03811 34.5806L9.04753 35.1694L0.7267 35.3083L11.2387 61.5179L10.6924 61.7369Z" fill="#020059"/>
<path d="M54.4955 34.8362L53.9121 34.9155L56.9391 57.1887L57.5224 57.1094L54.4955 34.8362Z" fill="#020059"/>
<path d="M88.317 18.0069C87.6035 15.567 86.2365 13.8231 84.2538 12.8234C79.8196 10.5884 73.7076 12.7939 73.6464 12.8163L73.5239 12.4842C73.5863 12.4607 79.8384 10.2034 84.4115 12.5066C86.4861 13.5523 87.9143 15.368 88.6561 17.9068L88.317 18.0057V18.0069Z" fill="#020059"/>
<path d="M37.9235 26.3355L37.5703 26.332C37.6103 22.6522 39.4695 20.3078 41.0225 18.9889C42.7003 17.5641 44.3452 17.0142 44.4147 16.9918L44.5253 17.3274C44.5088 17.3333 42.8675 17.8832 41.2415 19.2668C39.0703 21.1144 37.9542 23.493 37.9235 26.3355Z" fill="#020059"/>
<path d="M61.4296 15.1713C61.1576 15.1713 60.8986 15.1395 60.6501 15.0748C59.5033 14.7792 59.0123 14.0138 58.5308 13.1189L58.8416 12.9517C59.2984 13.8018 59.7282 14.473 60.7372 14.7333C61.2824 14.8734 61.8899 14.8404 62.594 14.6308L62.6941 14.97C62.2396 15.1042 61.8205 15.1713 61.4272 15.1713H61.4296Z" fill="#756DE7"/>
<path d="M58.0493 12.2593C57.9151 12.0462 57.7821 11.8648 57.6431 11.7059C57.1992 11.2007 56.3703 10.8851 55.4249 10.8616C55.2518 10.8569 55.0693 10.8616 54.8927 10.8663C54.0496 10.8875 53.0948 10.911 52.592 9.95133C52.1705 9.14708 52.1999 8.03195 52.665 7.17706L52.9758 7.34545C52.5708 8.08965 52.5426 9.09409 52.9052 9.78648C53.3055 10.5519 54.0732 10.533 54.8844 10.513C55.0646 10.5083 55.2518 10.5036 55.4331 10.5083C55.9335 10.5213 57.1757 10.6402 57.9081 11.4727C58.0599 11.6458 58.2048 11.8413 58.3484 12.0709L58.0493 12.2581V12.2593Z" fill="#756DE7"/>
<path d="M63.212 2.52935L62.9941 2.25145C64.6673 0.938504 66.9879 0.677092 68.767 1.60146L68.6045 1.91468C66.9456 1.05273 64.7791 1.30001 63.212 2.52935Z" fill="#756DE7"/>
<path d="M80.8839 40.7638L80.7686 40.4294C84.7765 39.0458 85.53 36.5471 85.6678 35.5368C85.8727 34.099 85.4453 32.6236 84.3962 31.1493L84.6847 30.9444C85.7879 32.4952 86.2365 34.0566 86.0187 35.5851C85.8727 36.659 85.0791 39.3155 80.8851 40.7627L80.8839 40.7638Z" fill="#756DE7"/>
<path d="M30.5588 52.1306C28.3323 52.1306 26.7616 51.6266 25.8903 50.6316C25.0508 49.6731 25.1968 48.6215 25.2027 48.5768L25.5524 48.6286C25.5512 48.638 25.4276 49.5718 26.1611 50.4043C26.9936 51.3499 28.5548 51.8103 30.799 51.775L30.8049 52.1282C30.7213 52.1294 30.64 52.1306 30.5588 52.1306Z" fill="#756DE7"/>
<path d="M30.6071 60.3521L30.3599 60.1001L45.6522 45.0406L31.9305 48.5002C31.8505 48.5202 31.7669 48.4826 31.7304 48.4084C31.6927 48.3354 31.7115 48.2447 31.7751 48.1929L40.5363 40.9146L40.7624 41.1866L32.5993 47.9668L46.1962 44.539C46.2739 44.519 46.3539 44.5543 46.3928 44.6238C46.4316 44.6933 46.4199 44.7804 46.3634 44.8357L30.6071 60.3509V60.3521Z" fill="#756DE7"/>
<path d="M38.9843 37.1582L38.7158 36.9274C40.0534 35.3696 39.2362 33.1217 39.228 33.0993L39.5589 32.9756C39.5965 33.0757 40.456 35.4438 38.9843 37.1582Z" fill="#020059"/>
<path d="M29.3835 33.038H29.0303V37.9118H29.3835V33.038Z" fill="#020059"/>
<path d="M49.6931 10.9593C49.3528 7.18769 51.2791 6.29041 51.3603 6.25391L51.5028 6.57655C51.4851 6.58479 49.7272 7.42791 50.0428 10.9275L49.6907 10.9593H49.6931Z" fill="#020059"/>
<path d="M67.4886 22.1353C68.3014 21.1017 68.2877 19.7348 67.4581 19.0824C66.6285 18.43 65.2971 18.739 64.4843 19.7727C63.6716 20.8063 63.6852 22.1732 64.5148 22.8256C65.3445 23.4781 66.6759 23.169 67.4886 22.1353Z" fill="#020059"/>
<path d="M52.6989 25.9988C52.7213 25.9988 55.0114 25.9034 57.6888 25.3135C61.3118 24.5163 63.8903 23.241 65.3515 21.5253L64.93 21.1662C61.6214 25.0544 52.7672 25.4418 52.6777 25.4454L52.6989 25.9988Z" fill="#020059"/>
<path d="M53.8258 25.6055C53.8894 26.272 52.5365 27.1104 51.7536 27.1846C50.9706 27.2587 50.2841 26.7783 50.2206 26.1118C50.157 25.4453 50.741 24.8448 51.5251 24.7706C52.3081 24.6964 53.7634 24.939 53.8258 25.6055Z" fill="#020059"/>
<path d="M67.6633 22.2731C68.2614 21.5124 68.2515 20.5066 67.6412 20.0266C67.0308 19.5467 66.0512 19.7742 65.4531 20.5349C64.855 21.2956 64.8649 22.3013 65.4752 22.7813C66.0855 23.2613 67.0652 23.0337 67.6633 22.2731Z" fill="#756DE7"/>
</svg>
