<svg width="72" height="68" viewBox="0 0 72 68" fill="none" xmlns="http://www.w3.org/2000/svg">
<path d="M53.418 68H8.39746C8.39746 63.1641 12.1801 59.2214 16.9211 59.0199C17.8254 52.5099 23.3637 47.4994 30.0618 47.4994C36.2715 47.4994 41.4843 51.8063 42.9323 57.6207C43.4867 57.5115 44.0598 57.453 44.6457 57.453C49.5636 57.453 53.5507 61.4781 53.5507 66.442C53.5507 66.9729 53.5055 67.4939 53.418 68Z" fill="#8E8EEF"/>
<path d="M59.1992 40.4872L60.2333 34.3999L65.1611 37.3374L62.0883 41.5758L59.1992 40.4872Z" fill="#FF7A8A"/>
<path d="M59.8385 35.2271L65.5209 38.071C65.964 38.2928 66.5013 38.1099 66.721 37.6625L71.5705 27.7871C71.7902 27.3398 71.609 26.7973 71.1659 26.5756L65.4835 23.7316C65.0404 23.5099 64.5031 23.6927 64.2835 24.1401L59.434 34.0155C59.2143 34.4629 59.3954 35.0053 59.8385 35.2271Z" fill="#74EFDB"/>
<path d="M65.9198 37.4684C65.8884 37.4684 65.8579 37.4614 65.8284 37.4465L60.1457 34.6024C60.0818 34.5706 60.0542 34.519 60.0415 34.4813C60.0287 34.4436 60.0208 34.386 60.0523 34.3215L64.9024 24.4463C64.9447 24.36 65.0263 24.3302 65.0892 24.3302C65.1206 24.3302 65.1511 24.3372 65.1806 24.3521L70.8633 27.1962C70.9656 27.2478 71.0078 27.3729 70.9567 27.4771L66.1066 37.3523C66.0643 37.4386 65.9827 37.4684 65.9198 37.4684ZM65.9198 38.163C66.2491 38.163 66.5666 37.9785 66.7229 37.6609L71.5731 27.7857C71.7923 27.3381 71.6114 26.7963 71.169 26.574L65.4863 23.7298C65.3585 23.6663 65.2229 23.6356 65.0892 23.6356C64.7599 23.6356 64.4424 23.8201 64.2861 24.1377L59.4359 34.0129C59.2167 34.4605 59.3976 35.0023 59.8399 35.2246L65.5227 38.0688C65.6505 38.1323 65.7861 38.163 65.9198 38.163Z" fill="#020059"/>
<path d="M10.5723 13.1381L12.9197 7.94896C13.2303 7.26322 13.6609 6.63901 14.1917 6.1071C14.6331 5.66549 15.1364 5.29334 15.6878 5.00257L22.7133 1.29603C22.9905 1.14916 23.3307 1.33771 23.3484 1.65428C23.3896 2.35688 23.1547 3.47629 21.462 4.0876L21.8394 5.77763C21.8945 6.02572 21.8719 6.28473 21.7736 6.51894L20.7847 8.8679C20.4573 9.64593 19.8164 10.2443 19.0222 10.5143L15.0675 11.856L13.5478 14.4411L10.5713 13.1391L10.5723 13.1381Z" fill="#FF7A8A"/>
<path d="M27.6361 22.8913C27.1662 15.4127 33.1881 5.28049 41.3676 4.75651C49.5472 4.23253 56.788 13.5173 57.2579 20.9959C57.7277 28.4744 51.4768 34.9607 43.2973 35.4846C35.1177 36.0086 28.1059 30.3699 27.6361 22.8923V22.8913Z" fill="#020059"/>
<path d="M23.2244 32.1281C26.2125 31.9367 28.4753 29.2435 28.2786 26.1126C28.0818 22.9817 25.5 20.5987 22.5119 20.7901C19.5239 20.9815 17.2611 23.6747 17.4578 26.8056C17.6546 29.9365 20.2364 32.3195 23.2244 32.1281Z" fill="#020059"/>
<path d="M-0.326168 32.3238C-0.370403 31.6222 -0.199361 30.9216 0.166316 30.3192L4.59966 22.9994L5.69472 21.1913L6.94805 19.1222L8.12962 17.1712L10.5734 13.1381L14.3039 13.5162L13.3857 16.8347L12.7291 19.2036L12.2956 20.7695L11.6507 23.0967L10.1733 28.4327L22.6869 33.5623L33.0241 35.0192L41.477 32.6642C41.477 32.6642 49.1611 35.7436 48.4819 49.5397L51.2117 46.9595L52.4699 45.7696L53.1098 45.1643H53.1108L55.7059 42.7111L59.3775 39.2398L62.6931 40.905C62.6931 40.905 61.8802 43.4872 60.504 46.8067C60.2356 47.4577 59.9446 48.1345 59.633 48.8262C59.3057 49.5575 58.9557 50.3048 58.5861 51.0531C58.1713 51.8926 57.7309 52.7312 57.2689 53.5459C54.8891 57.7526 51.9312 61.3401 48.8249 61.1516C48.8249 61.1516 44.7052 61.4383 42.4964 54.2436C42.4964 54.2436 42.8532 58.6438 42.92 61.4979C42.9505 62.8068 42.92 63.7913 42.7657 63.8756C42.2064 64.1833 36.4332 67.1902 30.0132 61.5763C25.6693 57.7765 22.7744 59.0348 21.3579 60.2455C20.891 60.6444 20.1704 60.3705 20.0692 59.7612L17.417 43.8871C17.417 43.8871 5.54629 40.6162 0.415015 34.252C0.0227976 33.7658 -0.22197 33.1773 -0.303559 32.5551C-0.313389 32.4777 -0.321253 32.4013 -0.326168 32.3238Z" fill="white"/>
<path d="M32.5728 26.1691L34.7993 33.4125L41.4778 32.6642C41.4778 32.6642 42.338 47.9926 31.4345 48.0938C20.5311 48.195 22.6868 33.5613 22.6868 33.5613L23.0967 21.0176L32.5728 26.1691Z" fill="#FF7A8A"/>
<path d="M26.4551 25.1013C26.4551 25.1013 28.7101 33.0602 35.6108 31.1628C42.5114 29.2653 35.195 24.5426 35.195 24.5426L26.4551 25.1023V25.1013Z" fill="#020059"/>
<path d="M31.6873 12.0594C31.6873 12.0594 41.0533 19.3574 36.8136 26.1404C32.573 32.9233 21.584 21.1596 21.584 21.1596L22.4933 15.6975L31.6873 12.0594Z" fill="#FF7A8A"/>
<path d="M36.2693 7.30194C36.2693 7.30194 34.841 9.639 28.9213 8.47097C23.0017 7.30293 14.0691 16.9042 23.0597 22.1648C23.0597 22.1648 22.5888 15.2589 27.0939 14.2595C31.599 13.2602 31.9912 19.4169 37.5649 16.5748C43.1375 13.7316 36.2693 7.30194 36.2693 7.30194Z" fill="#020059"/>
<path d="M24.4631 23.8725C25.4018 23.1511 25.5835 21.7981 24.8689 20.8504C24.1543 19.9028 22.8141 19.7194 21.8754 20.4408C20.9367 21.1622 20.7551 22.5152 21.4696 23.4628C22.1842 24.4104 23.5244 24.5939 24.4631 23.8725Z" fill="#FF7A8A"/>
<path d="M22.6687 61.3411C20.8442 63.0768 25.2314 65.6768 27.683 64.9286C29.4603 64.3857 29.8279 62.533 27.9248 61.5584C26.2488 60.7 23.8689 60.1989 22.6687 61.3411Z" fill="white"/>
<path d="M28.0648 14.6932C29.8087 14.6932 30.9765 15.9694 32.0243 17.1156C32.8343 18.0018 33.6001 18.8384 34.5025 18.9277L34.474 19.2245C33.4595 19.1232 32.6574 18.247 31.8081 17.3181C30.5862 15.9823 29.323 14.6009 27.2263 15.0932C23.6806 15.9248 22.9414 19.8983 22.9345 19.938L22.6445 19.8864C22.6524 19.8447 23.4221 15.6797 27.1595 14.8034C27.478 14.729 27.7797 14.6942 28.0658 14.6942L28.0648 14.6932Z" fill="#020059"/>
<path d="M42.3593 4.73364C43.5006 4.73364 44.9928 4.86662 46.6295 5.35289C48.7311 5.97809 50.6568 7.05482 52.3545 8.55332C54.4729 10.424 56.2373 12.9595 57.5998 16.0905L57.3295 16.2105C55.9857 13.1232 54.2487 10.6254 52.1667 8.78455C50.5035 7.31384 48.6171 6.25695 46.5597 5.64266C43.0514 4.5957 40.2223 5.208 40.1948 5.21495L40.1309 4.92418C40.1466 4.92021 41.0057 4.73364 42.3593 4.73364Z" fill="#020059"/>
<path d="M21.2175 23.0183C21.6166 23.7755 22.2674 24.1605 23.1501 24.1635H23.159C23.8274 24.1635 24.3789 23.9373 24.3848 23.9353L24.4968 24.2102C24.4722 24.2201 22.0364 25.2045 20.957 23.1582L21.2175 23.0183Z" fill="#020059"/>
<path d="M35.2598 57.8638C41.1529 58.5684 42.4986 54.2426 42.4986 54.2426C42.4986 54.2426 42.8554 58.6428 42.9223 61.4969C38.5351 61.3173 35.2607 57.8638 35.2607 57.8638H35.2598Z" fill="#020059"/>
<path d="M66.0339 38.5084C66.6128 38.4419 68.5494 37.9943 68.6349 34.9904L70.1644 33.0999C70.2883 32.9461 70.2598 32.7238 70.0986 32.6087C69.8381 32.4221 69.3426 32.2335 68.4727 32.4181C66.9903 32.7327 63.8811 36.9216 63.8801 37.9606C63.8801 38.8031 62.6622 39.8808 63.1576 39.7915C63.2736 39.7707 65.9149 38.5233 66.0319 38.5094L66.0339 38.5084Z" fill="#FF7A8A"/>
<path d="M62.9079 27.3659C63.5036 28.3057 64.3795 30.0642 63.4574 31.1796C63.4574 31.1796 62.9217 31.4833 62.6396 30.6745C62.6396 30.6745 62.9109 32.693 62.0901 33.0036C61.2702 33.3142 60.8397 32.5372 60.8397 32.5372C60.8397 32.5372 61.4354 33.9444 60.82 34.126C60.2047 34.3076 59.4841 33.9504 59.3062 32.8478C59.1489 31.8743 59.9137 28.4893 61.6929 27.1436C62.0842 26.8479 62.6445 26.9501 62.9079 27.3659Z" fill="#FF7A8A"/>
<path d="M43.272 48.7022C43.2878 48.7786 43.6456 50.6065 43.1718 52.6767C42.7314 54.5989 41.4594 57.0799 37.898 57.9809C37.8734 57.9879 37.1627 58.1923 36.1335 58.0931C35.1849 58.0018 33.7772 57.6227 32.4551 56.3376L32.6595 56.1232C35.0699 58.4662 37.7938 57.7011 37.8203 57.6931C40.5688 56.9975 42.2713 55.2876 42.8838 52.6092C43.3438 50.6016 42.986 48.7786 42.983 48.7607L43.272 48.7012V48.7022Z" fill="#020059"/>
<path d="M35.1608 33.0354L35.4517 33.082C35.4488 33.1009 35.1519 34.9725 34.5238 37.0615C33.6755 39.8858 32.6581 41.7436 31.5001 42.5851C31.449 42.6228 31.3802 42.6228 31.3281 42.5851C31.2789 42.5494 26.3944 39.0145 24.7803 35.3685L25.0496 35.2474C26.5133 38.554 30.752 41.7892 31.4126 42.2794C33.9979 40.2639 35.149 33.1078 35.1608 33.0354Z" fill="white"/>
<path d="M32.7257 43.9444C33.3537 43.2247 33.2847 42.1273 32.5717 41.4934C31.8587 40.8594 30.7717 40.9291 30.1438 41.6489C29.5159 42.3686 29.5848 43.466 30.2978 44.0999C31.0108 44.7339 32.0978 44.6642 32.7257 43.9444Z" fill="#FCF594"/>
<path d="M10.3231 29.0291C11.1239 28.7492 11.6587 28.1889 11.5177 27.7777C11.3766 27.3664 10.6131 27.26 9.8123 27.54C9.01149 27.8199 8.47665 28.3802 8.6177 28.7914C8.75875 29.2027 9.52228 29.3091 10.3231 29.0291Z" fill="white"/>
<path d="M10.2974 12.9585C10.3073 12.9585 10.3171 12.9585 10.3269 12.9595L14.5804 13.3793C14.7426 13.3952 14.8615 13.541 14.8448 13.7048C14.8291 13.8685 14.6856 13.9886 14.5224 13.9717L10.2689 13.552C10.1067 13.5361 9.98778 13.3902 10.0045 13.2265C10.0192 13.0726 10.148 12.9575 10.2974 12.9575V12.9585Z" fill="white"/>
<path d="M13.5124 13.5639C13.5595 13.5639 13.6077 13.5758 13.6519 13.5996L14.4934 14.0571C14.6369 14.1355 14.69 14.3161 14.6133 14.46C14.5357 14.6049 14.3577 14.6585 14.2142 14.5811L13.3728 14.1236C13.2292 14.0452 13.1762 13.8646 13.2528 13.7207C13.3059 13.6205 13.4082 13.5639 13.5124 13.5639Z" fill="white"/>
<path d="M58.9787 38.953C59.0209 38.953 59.0642 38.9619 59.1045 38.9818L63.007 40.8524C63.1544 40.9229 63.2164 41.1005 63.1466 41.2494C63.0768 41.3982 62.9008 41.4608 62.7534 41.3903L58.8509 39.5197C58.7034 39.4492 58.6415 39.2716 58.7113 39.1227C58.7614 39.0155 58.8676 38.953 58.9777 38.953H58.9787Z" fill="white"/>
<path d="M58.3748 39.592C58.3817 39.592 58.3885 39.592 58.3964 39.592L59.9083 39.7022C60.0705 39.7141 60.1933 39.856 60.1815 40.0208C60.1697 40.1845 60.0292 40.3085 59.866 40.2966L58.3541 40.1865C58.1919 40.1746 58.0691 40.0327 58.0809 39.8679C58.0917 39.7111 58.2214 39.592 58.3748 39.592Z" fill="white"/>
<path d="M22.318 35.176L22.612 35.2018C22.6061 35.2673 22.0949 41.7664 25.4007 45.4362C26.8802 47.0786 28.911 47.9221 31.4374 47.9449L31.4344 48.2427C28.8216 48.2188 26.718 47.3416 25.1815 45.6357C21.7892 41.8686 22.3131 35.2425 22.318 35.177V35.176Z" fill="#020059"/>
<path d="M33.173 42.1088C33.1848 42.1455 33.463 43.0148 33.0304 43.7601C32.7572 44.2325 32.2666 44.5411 31.5717 44.678L31.5156 44.3863C32.1221 44.2672 32.5458 44.0062 32.7749 43.6122C33.1395 42.985 32.8948 42.21 32.8928 42.202L33.173 42.1088Z" fill="#020059"/>
<path d="M3.41331 36.9523C9.85394 42.0889 19.1158 44.0181 19.2082 44.0369L19.1502 44.3287C19.0568 44.3099 9.72615 42.3668 3.23047 37.1865L3.41331 36.9533V36.9523Z" fill="#020059"/>
<path d="M47.5898 40.2937C48.4519 43.898 48.6612 46.901 48.6858 48.7845C48.7124 50.8298 48.5315 52.0415 48.5295 52.0534L48.2385 52.0078C48.2454 51.9601 48.9384 47.2017 47.3037 40.3632L47.5907 40.2937H47.5898Z" fill="#020059"/>
<path d="M17.5594 43.864L17.2686 43.9135L18.7901 53.024L19.0809 52.9745L17.5594 43.864Z" fill="#020059"/>
<path d="M69.0546 32.054C69.8037 32.1403 70.2175 32.3507 70.3217 32.697C70.4574 33.1495 69.9767 33.6011 69.8813 33.6844L68.2447 35.6841L68.0176 35.4945L69.6621 33.485C69.668 33.478 69.6739 33.4721 69.6808 33.4661C69.7968 33.3659 70.1133 33.0255 70.0396 32.7834C69.9757 32.572 69.614 32.4182 69.0212 32.3497L69.0546 32.054Z" fill="#020059"/>
<path d="M62.458 29.2604C62.7283 31.2233 63.2689 31.3841 63.2748 31.3851L63.2532 31.6818C63.2149 31.6788 63.0094 31.648 62.7814 31.3196C62.5022 30.9186 62.2958 30.2399 62.166 29.3011L62.458 29.2604Z" fill="#020059"/>
<path d="M60.7568 31.263C61.0271 33.2259 61.5678 33.3867 61.5737 33.3877L61.552 33.6844C61.5137 33.6814 61.3083 33.6507 61.0802 33.3222C60.801 32.9213 60.5946 32.2425 60.4648 31.3037L60.7568 31.263Z" fill="#020059"/>
<path d="M10.6947 27.2042C10.8903 27.2042 11.0643 27.2379 11.2167 27.3054C11.546 27.4503 11.6443 27.6984 11.6551 27.7262L11.3789 27.8304L11.5175 27.7788L11.3799 27.8323C11.3769 27.8254 11.312 27.6686 11.0889 27.5743C10.8677 27.481 10.448 27.4334 9.70581 27.741L9.59375 27.4652C10.0125 27.2915 10.3802 27.2052 10.6947 27.2052V27.2042Z" fill="#020059"/>
<path d="M23.5222 2.07013C23.5301 2.15647 23.6569 4.19085 18.5738 5.63278L18.4941 5.34598C23.3423 3.97054 23.2302 2.11578 23.2283 2.09792L23.5222 2.07013Z" fill="#020059"/>
<path d="M17.2418 7.59869C17.9938 9.27086 16.2578 10.1561 16.2401 10.164L16.1104 9.89705C16.1713 9.86629 17.6065 9.12895 16.9734 7.72175L17.2418 7.59869Z" fill="#020059"/>
<path d="M46.4205 9.03564C49.3981 10.7564 53.2377 13.8159 54.6208 18.6131C55.7895 22.668 54.9157 26.8817 52.3392 29.6097L51.9834 29.2673C54.4399 26.6663 55.2695 22.6372 54.1489 18.7521C52.811 14.1137 49.0756 11.1415 46.1758 9.46634L46.4196 9.03564H46.4205Z" fill="#756DE7"/>
<path d="M6.94727 19.1222L8.12883 17.1712L13.3849 16.8348L12.7283 19.2036C10.955 19.1788 8.68128 19.146 6.94727 19.1222Z" fill="#FCF594"/>
<path d="M4.59962 22.9994L5.69468 21.1913L12.2955 20.7686L11.6507 23.0957C9.20695 23.06 6.0692 23.0163 4.59863 22.9994H4.59962Z" fill="#FCF594"/>
<path d="M12.6321 19.0003L10.3135 27.3726L10.5975 27.4527L12.9161 19.0805L12.6321 19.0003Z" fill="#020059"/>
<path d="M53.1123 45.1623L55.7074 42.7091L60.5055 46.8047C60.2371 47.4557 59.9461 48.1325 59.6345 48.8242L53.1123 45.1613V45.1623Z" fill="#FCF594"/>
<path d="M51.2139 46.9585L52.4721 45.7687L58.5884 51.0521C58.1735 51.8917 57.7331 52.7302 57.2711 53.545L51.2129 46.9585H51.2139Z" fill="#FCF594"/>
<path d="M67.8289 25.8794C67.8161 25.6779 67.9675 25.5052 68.167 25.4923C68.3666 25.4794 68.5376 25.6323 68.5504 25.8337C68.5632 26.0352 68.4118 26.2078 68.2123 26.2207C68.0127 26.2336 67.8417 26.0808 67.8289 25.8794Z" fill="white"/>
<path d="M19.5936 0L19.6988 0.277867C19.6408 0.299699 13.9108 2.55538 12.1414 6.85041L11.8691 6.73629C13.6877 2.32217 19.5346 0.0228248 19.5936 0Z" fill="#020059"/>
<path d="M69.7129 36.1445L70.0078 36.1465C70.0078 36.1743 69.9596 38.9163 67.2505 39.5722L67.1816 39.2824C69.6686 38.6811 69.7129 36.1703 69.7129 36.1445Z" fill="#020059"/>
<path d="M32.9549 20.0798L34.2672 23.5641C34.284 23.6087 34.279 23.6574 34.2535 23.6981C34.2279 23.7387 34.1857 23.7626 34.1385 23.7665L33.0493 23.836L33.0306 23.5393L33.9202 23.4827L32.6787 20.187L32.954 20.0808L32.9549 20.0798Z" fill="#020059"/>
</svg>
