<svg width="72" height="72" viewBox="0 0 72 72" fill="none" xmlns="http://www.w3.org/2000/svg">
<rect width="72" height="72" rx="8" fill="#009CA7"/>
<path d="M36 15.875C31.8219 15.875 27.7376 17.114 24.2636 19.4352C20.7896 21.7564 18.082 25.0557 16.4831 28.9158C14.8842 32.7759 14.4658 37.0234 15.2809 41.1213C16.096 45.2191 18.108 48.9832 21.0624 51.9376C24.0168 54.892 27.7809 56.904 31.8787 57.7191C35.9766 58.5342 40.2241 58.1159 44.0842 56.517C47.9443 54.9181 51.2436 52.2104 53.5648 48.7364C55.8861 45.2624 57.125 41.1781 57.125 37C57.1191 31.3991 54.8915 26.0293 50.9311 22.0689C46.9707 18.1085 41.6009 15.8809 36 15.875ZM36 54.875C32.4647 54.875 29.0087 53.8267 26.0692 51.8625C23.1297 49.8984 20.8386 47.1067 19.4857 43.8405C18.1327 40.5742 17.7788 36.9802 18.4685 33.5128C19.1582 30.0454 20.8606 26.8603 23.3605 24.3605C25.8603 21.8606 29.0454 20.1582 32.5128 19.4685C35.9802 18.7788 39.5742 19.1327 42.8405 20.4857C46.1067 21.8386 48.8984 24.1297 50.8625 27.0692C52.8267 30.0087 53.875 33.4647 53.875 37C53.8696 41.7391 51.9847 46.2826 48.6336 49.6336C45.2826 52.9846 40.7391 54.8696 36 54.875ZM29.7174 31.3653C30.6357 33.1015 31.1157 35.0359 31.1157 37C31.1157 38.9641 30.6357 40.8985 29.7174 42.6347C29.6202 42.8279 29.4855 42.9997 29.3211 43.1402C29.1567 43.2807 28.966 43.3869 28.76 43.4527C28.554 43.5185 28.337 43.5425 28.1216 43.5234C27.9062 43.5042 27.6968 43.4423 27.5057 43.3412C27.3145 43.2401 27.1455 43.1018 27.0085 42.9346C26.8714 42.7673 26.7692 42.5743 26.7076 42.367C26.6461 42.1597 26.6266 41.9423 26.6502 41.7273C26.6738 41.5124 26.7401 41.3043 26.8452 41.1153C27.5252 39.8502 27.8812 38.4363 27.8812 37C27.8812 35.5637 27.5252 34.1498 26.8452 32.8847C26.6542 32.5048 26.6197 32.0653 26.7491 31.6603C26.8784 31.2553 27.1614 30.9172 27.5372 30.7184C27.913 30.5196 28.3517 30.476 28.7593 30.5969C29.1669 30.7179 29.5108 30.9937 29.7174 31.3653ZM41.0924 24.8653C43.0911 28.5999 44.1368 32.7703 44.1368 37.0061C44.1368 41.2419 43.0911 45.4122 41.0924 49.1469C40.876 49.5021 40.5316 49.7609 40.1302 49.8699C39.7288 49.9788 39.3009 49.9297 38.9346 49.7326C38.5683 49.5356 38.2915 49.2055 38.1612 48.8105C38.031 48.4155 38.0572 47.9855 38.2344 47.6092C39.9822 44.3461 40.8967 40.7017 40.8967 37C40.8967 33.2983 39.9822 29.6539 38.2344 26.3908C38.0313 26.0104 37.9876 25.565 38.1129 25.1525C38.2383 24.7399 38.5223 24.394 38.9027 24.1909C39.283 23.9878 39.7284 23.9441 40.141 24.0695C40.5535 24.1948 40.8994 24.4789 41.1025 24.8592L41.0924 24.8653ZM35.4049 28.1153C36.8637 30.851 37.6268 33.9037 37.6268 37.0041C37.6268 40.1044 36.8637 43.1571 35.4049 45.8928C35.3067 46.0849 35.1713 46.2556 35.0065 46.3949C34.8417 46.5341 34.6509 46.6391 34.4451 46.7038C34.2392 46.7685 34.0226 46.7916 33.8078 46.7717C33.593 46.7518 33.3843 46.6893 33.1938 46.5879C33.0034 46.4865 32.8351 46.3482 32.6987 46.181C32.5623 46.0139 32.4605 45.8213 32.3994 45.6144C32.3382 45.4075 32.3189 45.1905 32.3424 44.976C32.366 44.7616 32.4321 44.554 32.5367 44.3653C33.7452 42.0998 34.3773 39.5717 34.3773 37.0041C34.3773 34.4364 33.7452 31.9083 32.5367 29.6428C32.4321 29.4542 32.366 29.2466 32.3424 29.0321C32.3189 28.8177 32.3382 28.6007 32.3994 28.3938C32.4605 28.1869 32.5623 27.9942 32.6987 27.8271C32.8351 27.6599 33.0034 27.5216 33.1938 27.4202C33.3843 27.3188 33.593 27.2563 33.8078 27.2364C34.0226 27.2165 34.2392 27.2396 34.4451 27.3043C34.6509 27.369 34.8417 27.474 35.0065 27.6133C35.1713 27.7525 35.3067 27.9232 35.4049 28.1153Z" fill="#F8F8F8"/>
</svg>
