<svg width="72" height="72" viewBox="0 0 72 72" fill="none" xmlns="http://www.w3.org/2000/svg">
<rect width="72" height="72" rx="8" fill="#009CA7"/>
<path d="M29 46.5C28.0375 46.5 27.2138 46.1576 26.529 45.4727C25.8442 44.7879 25.5012 43.9637 25.5 43V41.25C25.5 40.7542 25.668 40.3388 26.004 40.004C26.34 39.6692 26.7553 39.5012 27.25 39.5C27.7458 39.5 28.1617 39.668 28.4977 40.004C28.8337 40.34 29.0012 40.7553 29 41.25V43H50V25.5H29V27.25C29 27.7458 28.832 28.1617 28.496 28.4977C28.16 28.8337 27.7447 29.0012 27.25 29C26.7542 29 26.3388 28.832 26.004 28.496C25.6692 28.16 25.5012 27.7447 25.5 27.25V22C25.5 21.0375 25.843 20.2138 26.529 19.529C27.215 18.8442 28.0387 18.5012 29 18.5H50C50.9625 18.5 51.7868 18.843 52.4728 19.529C53.1587 20.215 53.5012 21.0387 53.5 22V43C53.5 43.9625 53.1576 44.7868 52.4728 45.4727C51.7879 46.1588 50.9637 46.5012 50 46.5H29ZM22 53.5C21.0375 53.5 20.2138 53.1576 19.529 52.4728C18.8442 51.7879 18.5012 50.9637 18.5 50V27.25C18.5 26.7542 18.668 26.3388 19.004 26.004C19.34 25.6692 19.7553 25.5012 20.25 25.5C20.7458 25.5 21.1618 25.668 21.4978 26.004C21.8338 26.34 22.0012 26.7553 22 27.25V50H44.75C45.2458 50 45.6617 50.168 45.9977 50.504C46.3337 50.84 46.5012 51.2553 46.5 51.75C46.5 52.2458 46.332 52.6617 45.996 52.9977C45.66 53.3337 45.2447 53.5012 44.75 53.5H22ZM38.0562 36H27.25C26.7542 36 26.3388 35.832 26.004 35.496C25.6692 35.16 25.5012 34.7447 25.5 34.25C25.5 33.7542 25.668 33.3388 26.004 33.004C26.34 32.6692 26.7553 32.5012 27.25 32.5H38.0562L36.4812 30.925C36.1604 30.6042 36 30.2034 36 29.7227C36 29.2421 36.175 28.8262 36.525 28.475C36.8458 28.1542 37.2542 27.9938 37.75 27.9938C38.2458 27.9938 38.6542 28.1542 38.975 28.475L43.525 33.025C43.875 33.375 44.05 33.7833 44.05 34.25C44.05 34.7167 43.875 35.125 43.525 35.475L38.975 40.025C38.6542 40.3458 38.2534 40.5138 37.7727 40.529C37.2921 40.5442 36.8762 40.3762 36.525 40.025C36.2042 39.7042 36.0437 39.2958 36.0437 38.8C36.0437 38.3042 36.2042 37.8958 36.525 37.575L38.0562 36Z" fill="#F8F8F8"/>
</svg>
