<svg width="72" height="72" viewBox="0 0 72 72" fill="none" xmlns="http://www.w3.org/2000/svg">
<rect width="72" height="72" rx="8" fill="#009CA7"/>
<path d="M22.5 27C22.5 25.8065 22.9741 24.6619 23.818 23.818C24.6619 22.9741 25.8065 22.5 27 22.5C28.1935 22.5 29.3381 22.9741 30.182 23.818C31.0259 24.6619 31.5 25.8065 31.5 27C31.5 28.1935 31.0259 29.3381 30.182 30.182C29.3381 31.0259 28.1935 31.5 27 31.5C25.8065 31.5 24.6619 31.0259 23.818 30.182C22.9741 29.3381 22.5 28.1935 22.5 27ZM27 18C24.6131 18 22.3239 18.9482 20.636 20.636C18.9482 22.3239 18 24.6131 18 27C18 29.3869 18.9482 31.6761 20.636 33.364C22.3239 35.0518 24.6131 36 27 36C29.3869 36 31.6761 35.0518 33.364 33.364C35.0518 31.6761 36 29.3869 36 27C36 24.6131 35.0518 22.3239 33.364 20.636C31.6761 18.9482 29.3869 18 27 18ZM45 29.25C45 28.6533 45.2371 28.081 45.659 27.659C46.081 27.2371 46.6533 27 47.25 27C47.8467 27 48.419 27.2371 48.841 27.659C49.2629 28.081 49.5 28.6533 49.5 29.25C49.5 29.8467 49.2629 30.419 48.841 30.841C48.419 31.2629 47.8467 31.5 47.25 31.5C46.6533 31.5 46.081 31.2629 45.659 30.841C45.2371 30.419 45 29.8467 45 29.25ZM47.25 22.5C45.4598 22.5 43.7429 23.2112 42.477 24.477C41.2112 25.7429 40.5 27.4598 40.5 29.25C40.5 31.0402 41.2112 32.7571 42.477 34.023C43.7429 35.2888 45.4598 36 47.25 36C49.0402 36 50.7571 35.2888 52.023 34.023C53.2888 32.7571 54 31.0402 54 29.25C54 27.4598 53.2888 25.7429 52.023 24.477C50.7571 23.2112 49.0402 22.5 47.25 22.5ZM13.5 46.125C13.5 43.02 16.02 40.5 19.125 40.5H34.875C37.98 40.5 40.5 43.02 40.5 46.125V46.341C40.4965 46.505 40.4845 46.6687 40.464 46.8315C40.4244 47.2258 40.3568 47.6168 40.2615 48.0015C39.9598 49.2468 39.4171 50.4209 38.664 51.4575C36.756 54.081 33.201 56.25 27 56.25C20.799 56.25 17.244 54.081 15.336 51.4575C14.3493 50.0953 13.7295 48.5023 13.536 46.8315C13.5179 46.667 13.5059 46.5019 13.5 46.3365V46.2645V46.125ZM18 46.242C18.0186 46.4786 18.0563 46.7134 18.1125 46.944C18.234 47.4525 18.4815 48.132 18.9765 48.8115C19.8765 50.0535 21.9465 51.75 27 51.75C32.049 51.75 34.119 50.0535 35.0235 48.8115C35.5682 48.0568 35.9049 47.1723 36 46.2465V46.125C36 45.8266 35.8815 45.5405 35.6705 45.3295C35.4595 45.1185 35.1734 45 34.875 45H19.125C18.8266 45 18.5405 45.1185 18.3295 45.3295C18.1185 45.5405 18 45.8266 18 46.125V46.242ZM47.2455 54C45.8333 54.014 44.4242 53.863 43.047 53.55C43.8698 52.2511 44.4535 50.8155 44.7705 49.311C45.468 49.428 46.287 49.5 47.2455 49.5C51.2505 49.5 52.7715 48.276 53.3655 47.5335C53.6957 47.1224 53.9129 46.6323 53.9955 46.1115V46.089C53.9861 45.7969 53.8635 45.5199 53.6535 45.3167C53.4436 45.1134 53.1627 44.9999 52.8705 45H44.937C44.7596 43.3897 44.1961 41.846 43.2945 40.5H52.875C55.98 40.5 58.5 43.02 58.5 46.125V46.2015C58.4961 46.3414 58.4856 46.4811 58.4685 46.62C58.2898 47.9818 57.7421 49.2687 56.8845 50.3415C55.224 52.4115 52.2495 54 47.25 54" fill="#F8F8F8"/>
</svg>
