<svg width="72" height="72" viewBox="0 0 72 72" fill="none" xmlns="http://www.w3.org/2000/svg">
<rect width="72" height="72" rx="8" fill="#009CA7"/>
<path d="M31.5833 21.7917L35.5 17.875M27.6667 43.3333L43.3333 27.6667M35.5 53.125L39.4167 49.2083M44.3125 49.2083C45.611 49.2083 46.8562 48.6925 47.7744 47.7744C48.6925 46.8562 49.2083 45.611 49.2083 44.3125C49.2083 43.014 48.6925 41.7688 47.7744 40.8506C46.8562 39.9325 45.611 39.4167 44.3125 39.4167C43.014 39.4167 41.7688 39.9325 40.8506 40.8506C39.9325 41.7688 39.4167 43.014 39.4167 44.3125C39.4167 45.611 39.9325 46.8562 40.8506 47.7744C41.7688 48.6925 43.014 49.2083 44.3125 49.2083ZM26.6875 31.5833C27.986 31.5833 29.2312 31.0675 30.1494 30.1494C31.0675 29.2312 31.5833 27.986 31.5833 26.6875C31.5833 25.389 31.0675 24.1438 30.1494 23.2256C29.2312 22.3075 27.986 21.7917 26.6875 21.7917C25.389 21.7917 24.1438 22.3075 23.2256 23.2256C22.3075 24.1438 21.7917 25.389 21.7917 26.6875C21.7917 27.986 22.3075 29.2312 23.2256 30.1494C24.1438 31.0675 25.389 31.5833 26.6875 31.5833ZM22.7708 53.125C24.0693 53.125 25.3146 52.6092 26.2327 51.691C27.1509 50.7729 27.6667 49.5276 27.6667 48.2292C27.6667 46.9307 27.1509 45.6854 26.2327 44.7673C25.3146 43.8491 24.0693 43.3333 22.7708 43.3333C21.4724 43.3333 20.2271 43.8491 19.309 44.7673C18.3908 45.6854 17.875 46.9307 17.875 48.2292C17.875 49.5276 18.3908 50.7729 19.309 51.691C20.2271 52.6092 21.4724 53.125 22.7708 53.125ZM48.2292 27.6667C49.5276 27.6667 50.7729 27.1509 51.691 26.2327C52.6092 25.3146 53.125 24.0693 53.125 22.7708C53.125 21.4724 52.6092 20.2271 51.691 19.309C50.7729 18.3908 49.5276 17.875 48.2292 17.875C46.9307 17.875 45.6854 18.3908 44.7673 19.309C43.8491 20.2271 43.3333 21.4724 43.3333 22.7708C43.3333 24.0693 43.8491 25.3146 44.7673 26.2327C45.6854 27.1509 46.9307 27.6667 48.2292 27.6667Z" stroke="#F8F8F8" stroke-width="4" stroke-linecap="round" stroke-linejoin="round"/>
</svg>
