<svg width="286" height="201" viewBox="0 0 286 201" fill="none" xmlns="http://www.w3.org/2000/svg">
<path d="M255.554 168.155C255.554 168.155 255.819 126.884 275.978 107.787C296.136 88.6908 259.779 67.3652 192.528 75.2507L199.025 98.5601L216.956 137.169L255.554 168.155Z" fill="#8E8EEF"/>
<path d="M262.832 144.443L261.483 144.159C264.977 127.57 270.964 115.166 279.281 107.286C284.328 102.506 285.828 97.4857 283.616 92.7687C280.561 86.247 270.578 80.6594 256.233 77.4385C244.957 74.9092 225.593 72.5948 197.186 75.8405L199.094 82.6872L197.765 83.0564L195.424 74.6585L196.224 74.5648C225.259 71.1593 245.045 73.5178 256.533 76.0939C271.516 79.4553 281.578 85.1697 284.863 92.1818C287.347 97.4884 285.745 103.054 280.227 108.283C272.23 115.86 266.215 128.364 262.829 144.443H262.832Z" fill="#8E8EEF"/>
<path d="M277.329 92.1487C278.457 92.1487 279.372 91.2346 279.372 90.1071C279.372 88.9795 278.457 88.0654 277.329 88.0654C276.2 88.0654 275.285 88.9795 275.285 90.1071C275.285 91.2346 276.2 92.1487 277.329 92.1487Z" fill="#756DE7"/>
<path d="M277.329 99.2433C278.457 99.2433 279.372 98.3292 279.372 97.2017C279.372 96.0741 278.457 95.16 277.329 95.16C276.2 95.16 275.285 96.0741 275.285 97.2017C275.285 98.3292 276.2 99.2433 277.329 99.2433Z" fill="#756DE7"/>
<path d="M277.329 106.338C278.457 106.338 279.372 105.424 279.372 104.297C279.372 103.169 278.457 102.255 277.329 102.255C276.2 102.255 275.285 103.169 275.285 104.297C275.285 105.424 276.2 106.338 277.329 106.338Z" fill="#756DE7"/>
<path d="M270.573 92.1487C271.701 92.1487 272.616 91.2346 272.616 90.1071C272.616 88.9795 271.701 88.0654 270.573 88.0654C269.444 88.0654 268.529 88.9795 268.529 90.1071C268.529 91.2346 269.444 92.1487 270.573 92.1487Z" fill="#756DE7"/>
<path d="M270.573 99.2433C271.701 99.2433 272.616 98.3292 272.616 97.2017C272.616 96.0741 271.701 95.16 270.573 95.16C269.444 95.16 268.529 96.0741 268.529 97.2017C268.529 98.3292 269.444 99.2433 270.573 99.2433Z" fill="#756DE7"/>
<path d="M270.573 106.338C271.701 106.338 272.616 105.424 272.616 104.297C272.616 103.169 271.701 102.255 270.573 102.255C269.444 102.255 268.529 103.169 268.529 104.297C268.529 105.424 269.444 106.338 270.573 106.338Z" fill="#756DE7"/>
<path d="M263.816 92.1487C264.944 92.1487 265.859 91.2346 265.859 90.1071C265.859 88.9795 264.944 88.0654 263.816 88.0654C262.687 88.0654 261.772 88.9795 261.772 90.1071C261.772 91.2346 262.687 92.1487 263.816 92.1487Z" fill="#756DE7"/>
<path d="M257.06 92.1487C258.189 92.1487 259.103 91.2346 259.103 90.1071C259.103 88.9795 258.189 88.0654 257.06 88.0654C255.931 88.0654 255.017 88.9795 255.017 90.1071C255.017 91.2346 255.931 92.1487 257.06 92.1487Z" fill="#756DE7"/>
<path d="M257.06 99.2433C258.189 99.2433 259.103 98.3292 259.103 97.2017C259.103 96.0741 258.189 95.16 257.06 95.16C255.931 95.16 255.017 96.0741 255.017 97.2017C255.017 98.3292 255.931 99.2433 257.06 99.2433Z" fill="#756DE7"/>
<path d="M257.06 106.338C258.189 106.338 259.103 105.424 259.103 104.297C259.103 103.169 258.189 102.255 257.06 102.255C255.931 102.255 255.017 103.169 255.017 104.297C255.017 105.424 255.931 106.338 257.06 106.338Z" fill="#756DE7"/>
<path d="M257.06 113.436C258.189 113.436 259.103 112.522 259.103 111.394C259.103 110.266 258.189 109.352 257.06 109.352C255.931 109.352 255.017 110.266 255.017 111.394C255.017 112.522 255.931 113.436 257.06 113.436Z" fill="#756DE7"/>
<path d="M250.303 92.1487C251.432 92.1487 252.347 91.2346 252.347 90.1071C252.347 88.9795 251.432 88.0654 250.303 88.0654C249.175 88.0654 248.26 88.9795 248.26 90.1071C248.26 91.2346 249.175 92.1487 250.303 92.1487Z" fill="#756DE7"/>
<path d="M250.303 99.2433C251.432 99.2433 252.347 98.3292 252.347 97.2017C252.347 96.0741 251.432 95.16 250.303 95.16C249.175 95.16 248.26 96.0741 248.26 97.2017C248.26 98.3292 249.175 99.2433 250.303 99.2433Z" fill="#756DE7"/>
<path d="M243.547 92.1487C244.676 92.1487 245.591 91.2346 245.591 90.1071C245.591 88.9795 244.676 88.0654 243.547 88.0654C242.419 88.0654 241.504 88.9795 241.504 90.1071C241.504 91.2346 242.419 92.1487 243.547 92.1487Z" fill="#756DE7"/>
<path d="M243.547 99.2433C244.676 99.2433 245.591 98.3292 245.591 97.2017C245.591 96.0741 244.676 95.16 243.547 95.16C242.419 95.16 241.504 96.0741 241.504 97.2017C241.504 98.3292 242.419 99.2433 243.547 99.2433Z" fill="#756DE7"/>
<path d="M237.026 92.1487C238.154 92.1487 239.069 91.2346 239.069 90.1071C239.069 88.9795 238.154 88.0654 237.026 88.0654C235.897 88.0654 234.982 88.9795 234.982 90.1071C234.982 91.2346 235.897 92.1487 237.026 92.1487Z" fill="#756DE7"/>
<path d="M263.816 84.9326C264.944 84.9326 265.859 84.0185 265.859 82.8909C265.859 81.7634 264.944 80.8493 263.816 80.8493C262.687 80.8493 261.772 81.7634 261.772 82.8909C261.772 84.0185 262.687 84.9326 263.816 84.9326Z" fill="#756DE7"/>
<path d="M257.06 84.9326C258.189 84.9326 259.103 84.0185 259.103 82.8909C259.103 81.7634 258.189 80.8493 257.06 80.8493C255.931 80.8493 255.017 81.7634 255.017 82.8909C255.017 84.0185 255.931 84.9326 257.06 84.9326Z" fill="#756DE7"/>
<path d="M250.303 84.9326C251.432 84.9326 252.347 84.0185 252.347 82.8909C252.347 81.7634 251.432 80.8493 250.303 80.8493C249.175 80.8493 248.26 81.7634 248.26 82.8909C248.26 84.0185 249.175 84.9326 250.303 84.9326Z" fill="#756DE7"/>
<path d="M244.598 182.369H194.025V197.972H244.598V182.369Z" fill="#8E8EEF"/>
<path d="M252.196 195.021H21.0908V200.923H252.196V195.021Z" fill="#8E8EEF"/>
<path d="M195.347 87.3793C196.086 106.694 175.205 130.3 158.929 130.3C142.654 130.3 129.461 116.265 129.461 98.9541C129.461 81.6429 143.748 57.2838 160.024 57.2838C176.3 57.2838 194.591 67.6077 195.347 87.3793Z" fill="#020059"/>
<path d="M156.631 132.452C140.003 132.452 126.474 118.081 126.474 100.417C126.474 91.7656 130.037 81.1469 135.77 72.702C142.093 63.3948 150.093 58.0579 157.723 58.0579C174.611 58.0579 192.972 68.8364 193.735 88.8147C194.119 98.8135 188.705 110.89 179.614 120.329C172.193 128.033 163.815 132.449 156.631 132.449V132.452ZM157.726 59.4355C150.559 59.4355 142.973 64.552 136.911 73.4763C131.324 81.7034 127.852 92.0246 127.852 100.417C127.852 117.32 140.764 131.075 156.631 131.075C163.445 131.075 171.459 126.809 178.621 119.376C187.462 110.198 192.726 98.5076 192.359 88.8698C191.629 69.7512 173.971 59.4355 157.726 59.4355Z" fill="#020059"/>
<path d="M81.1356 110.997C79.2025 111.314 77.3191 111.865 75.5211 112.639L72.4491 113.965C69.8486 115.086 67.7528 117.365 66.7462 120.01C65.5991 123.021 65.9962 126.404 67.8134 129.066L72.8434 135.822L105.891 142.567L104.272 133.273L86.6013 100.221C85.2942 97.7775 83.7003 95.5017 81.8526 93.438C80.8075 92.2698 79.4066 91.4763 77.8678 91.1732C76.4835 90.9004 75.1874 91.9419 75.1598 93.3526C75.146 94.08 75.2784 94.8018 75.5542 95.4741L81.8388 110.887L81.1384 111.003L81.1356 110.997Z" fill="#FF7A8A"/>
<path d="M157.65 158.991C157.448 161.923 151.707 180.862 151.707 180.862L128.016 183.141L109.614 161.03C109.733 160.352 109.857 159.677 109.984 158.999C110.883 154.169 111.873 149.353 112.929 144.553C114.539 137.222 116.31 129.92 118.342 122.693C118.61 121.743 118.88 120.789 119.158 119.842C119.644 118.164 120.146 116.489 120.672 114.822C121.949 110.758 123.353 106.732 124.974 102.798C125.198 102.249 125.429 101.701 125.664 101.156C126.088 100.169 126.543 99.092 127.045 97.9843C129.017 93.609 131.673 88.735 135.806 86.8807C141.137 84.4892 147.86 84.299 153.546 85.2634C155.97 85.6767 158.358 86.3186 160.65 87.2058C160.816 87.2692 163.273 88.1784 163.237 88.3575C163.234 88.3658 158.35 112.832 157.65 116.557C156.949 120.285 157.854 156.062 157.65 158.991Z" fill="#9ACFFF"/>
<path d="M189.575 43.3793C197.526 35.4353 197.526 22.5555 189.575 14.6114C181.624 6.66742 168.733 6.66742 160.782 14.6114C152.831 22.5555 152.831 35.4353 160.782 43.3793C168.733 51.3234 181.624 51.3234 189.575 43.3793Z" fill="#020059"/>
<path d="M150.118 49.5711C160.444 44.3028 164.235 31.0706 158.585 20.016C152.936 8.96148 139.985 4.27078 129.658 9.53906C119.332 14.8073 115.541 28.0396 121.191 39.0941C126.84 50.1487 139.791 54.8394 150.118 49.5711Z" fill="#020059"/>
<path d="M140.155 54.0217C131.948 54.0217 123.811 49.2193 119.616 41.0142C113.803 29.6378 117.738 15.9663 128.386 10.5329C139.036 5.09959 152.427 9.9378 158.24 21.3114C164.053 32.6878 160.118 46.3621 149.471 51.7927C146.503 53.3053 143.324 54.0217 140.155 54.0217ZM137.709 9.67881C134.75 9.67881 131.783 10.3456 129.017 11.759C119.045 16.8452 115.38 29.6874 120.849 40.386C126.317 51.0846 138.876 55.65 148.847 50.5639C158.819 45.4777 162.484 32.6355 157.015 21.9369C153.067 14.2084 145.414 9.67881 137.709 9.67881Z" fill="#020059"/>
<path d="M182.055 82.6515L163.934 90.3221L162.186 85.3902L157.652 72.6058L166.151 66.6876L170.961 63.34L182.055 82.6515Z" fill="#FF7A8A"/>
<path d="M162.186 85.39L157.652 72.6056L166.151 66.6874C167.186 70.0846 169.019 79.0529 162.186 85.39Z" fill="#020059"/>
<path d="M171.969 76.0939L158.983 81.9296L161.504 90.322L140.656 112.309C140.656 112.309 123.501 130.044 143.433 145.917L145.17 182.077L178.505 181.482C178.505 181.482 193.495 176.974 192.549 174.305C191.601 171.635 187.244 90.3193 187.244 90.3193L175.179 76.9371L171.972 76.0912L171.969 76.0939Z" fill="#FCF594"/>
<path d="M133.853 31.66C133.853 31.66 126.035 67.2715 148.289 75.5014C169.134 83.2106 181.05 51.6355 181.05 51.6355L160.351 26.5297L133.853 31.66Z" fill="#FF7A8A"/>
<path d="M184.931 173.971L174.342 176.941L165.178 174.682C161.802 173.85 158.306 173.64 154.856 174.062C153.527 174.224 152.211 174.481 150.915 174.828L142.185 177.173L150.882 192.227L206.03 190.938L206.918 189.679L184.928 173.971H184.931Z" fill="#FF7A8A"/>
<path d="M258.559 182.077L215.044 195.514L182.47 172.211C170.783 83.0178 194.405 76.0939 194.405 76.0939C210.306 66.6489 223.038 77.5238 232.836 95.3888C233.669 96.907 234.48 98.4775 235.271 100.089C237.088 103.79 238.793 107.716 240.389 111.766C241.032 113.394 241.655 115.042 242.262 116.703C253.356 147.11 258.559 182.077 258.559 182.077Z" fill="#9ACFFF"/>
<path d="M131.589 40.6587C131.589 40.6587 131.901 28.205 144.92 35.8949C157.939 43.5848 166.162 48.3513 175.982 40.6587C185.802 32.9661 170.599 25.9567 170.069 25.8327C169.54 25.7088 143.191 24.3008 143.191 24.3008L126.601 32.9137L131.589 40.6587Z" fill="#020059"/>
<path d="M163.774 46.7036C157.134 46.7036 150.642 42.2842 142.215 36.5505C138.327 33.9027 135.246 33.0872 133.06 34.1204C130.112 35.5146 129.684 39.9037 129.681 39.9477C129.654 40.2481 129.433 40.496 129.138 40.5594C128.843 40.6228 128.54 40.485 128.394 40.2205L123.912 32.1724C123.819 32.0044 123.799 31.8032 123.86 31.6186C123.921 31.434 124.059 31.2853 124.235 31.2081L141.341 23.6725C141.454 23.6229 141.578 23.6036 141.699 23.6174C149.597 24.5487 168.021 26.7308 168.542 26.8879C169.157 27.0725 176.754 31.1668 177.56 36.3549C177.96 38.9228 176.655 41.2537 173.682 43.2898C170.191 45.6814 166.962 46.7036 163.769 46.7036H163.774ZM135.084 32.313C137.312 32.313 139.959 33.3489 142.993 35.4126C155.427 43.8767 162.933 48.9849 172.908 42.1547C175.318 40.5043 176.435 38.6941 176.228 36.7765C175.767 32.5058 169.055 28.6072 168.148 28.2104C167.07 28.0203 151.911 26.2101 141.727 25.0088L125.484 32.1642L128.689 37.9199C129.166 36.253 130.216 33.9413 132.469 32.875C133.264 32.5003 134.135 32.313 135.081 32.313H135.084Z" fill="#020059"/>
<path d="M235.955 63.3398C236.694 82.654 215.813 106.261 199.538 106.261C183.262 106.261 170.069 92.2257 170.069 74.9145C170.069 57.6033 184.357 33.2442 200.632 33.2442C216.908 33.2442 235.199 43.5681 235.955 63.3398Z" fill="#020059"/>
<path d="M171.92 46.1003C171.92 46.1003 172.612 35.7433 180.59 36.5947C188.568 37.4461 187.032 54.8427 178.124 53.9665C169.217 53.0931 171.922 46.1003 171.922 46.1003H171.92Z" fill="#FF7A8A"/>
<path d="M268.419 50.6961L267.467 47.1831C267.277 46.4861 266.549 46.0838 265.857 46.2959L262.28 47.3953C261.006 47.7865 260.057 46.2133 261 45.271L263.653 42.6204C264.169 42.1052 264.15 41.2676 263.612 40.7744L260.841 38.2424C259.856 37.3442 260.733 35.7296 262.024 36.063L265.65 37.0025C266.35 37.1843 267.062 36.749 267.219 36.0437L268.01 32.4894C268.3 31.1862 270.142 31.1449 270.492 32.4316L271.444 35.9445C271.634 36.6416 272.362 37.0438 273.054 36.8317L276.631 35.7323C277.905 35.3411 278.853 36.9143 277.91 37.8566L275.257 40.5072C274.742 41.0224 274.761 41.86 275.299 42.3532L278.07 44.8853C279.055 45.7835 278.178 47.398 276.887 47.0647L273.261 46.1251C272.561 45.9433 271.849 46.3786 271.692 47.0839L270.9 50.6382C270.611 51.9414 268.769 51.9828 268.419 50.6961Z" fill="#8E8EEF"/>
<path d="M158.818 83.0646C158.542 83.0646 158.283 82.8993 158.176 82.6293C158.035 82.2766 158.209 81.8743 158.565 81.7366L167.64 78.152C167.993 78.0115 168.396 78.1851 168.533 78.5405C168.674 78.8932 168.5 79.2954 168.145 79.4332L159.069 83.0178C158.986 83.0508 158.901 83.0674 158.815 83.0674L158.818 83.0646Z" fill="#FCF594"/>
<path d="M141.837 61.9567C141.652 61.9567 141.476 61.8823 141.343 61.7501C141.2 61.6013 141.128 61.3974 141.15 61.1935L142.753 46.6541L144.123 46.8056L142.612 60.5075L147.94 60.0308L148.064 61.4029L141.898 61.954C141.878 61.954 141.856 61.954 141.837 61.954V61.9567Z" fill="#020059"/>
<path d="M180.276 49.4902C181.457 46.4371 180.427 43.1946 177.975 42.2478C175.523 41.301 172.578 43.0085 171.397 46.0616C170.216 49.1146 171.247 52.3572 173.698 53.3039C176.15 54.2507 179.096 52.5432 180.276 49.4902Z" fill="#020059"/>
<path d="M154.996 66.4285L154.376 65.197C154.514 65.1281 168.302 58.116 173.52 48.9906L174.716 49.6739C172.433 53.669 168.415 57.7027 162.779 61.6675C158.601 64.6046 155.14 66.3542 154.994 66.4285H154.996Z" fill="#020059"/>
<path d="M157.018 64.5329C157.495 65.6846 155.545 67.9136 154.189 68.4729C152.832 69.0322 151.351 68.5528 150.874 67.4011C150.397 66.2494 151.108 64.8636 152.465 64.3042C153.819 63.7449 156.541 63.3812 157.018 64.5329Z" fill="#020059"/>
<path d="M97.7474 194.776H206.92V189.679H97.7474V194.776Z" fill="#020059"/>
<path d="M44.172 195.021L156.452 194.613L112.283 127.468L0 127.873L44.172 195.021Z" fill="#020059"/>
<path d="M69.8731 168.521C72.4433 169.375 75.2092 169.557 77.6911 168.866C83.2229 167.331 85.2443 162.06 82.2109 157.095C79.1747 152.13 72.2309 149.347 66.7018 150.885C64.6419 151.455 63.07 152.543 62.0635 153.94C66.4702 154.001 70.7887 156.001 72.7466 159.211C74.8672 162.68 73.5546 166.466 69.8731 168.524V168.521Z" fill="#756DE7"/>
<path d="M212.105 162.46C207.698 157.663 201.637 148.336 197.779 131.13C195.479 120.872 195.046 112.535 195.043 112.452L196.419 112.383C196.436 112.711 198.212 145.3 213.119 161.526L212.105 162.457V162.46Z" fill="#020059"/>
<path d="M228.67 156.006L186.268 170.362L186.71 171.667L229.112 157.31L228.67 156.006Z" fill="#020059"/>
<path d="M213.119 197.443C212.581 197.443 212.049 197.22 211.666 196.784C199.069 182.43 190.016 176.988 183.532 173.85C182.573 173.384 182.173 172.233 182.636 171.274C183.099 170.315 184.255 169.915 185.215 170.378C198.178 176.652 207.711 186.428 214.57 194.241C215.273 195.043 215.193 196.261 214.391 196.964C214.024 197.286 213.571 197.443 213.119 197.443Z" fill="white"/>
<path d="M175.317 100.188C170.381 94.3169 167.662 86.7427 167.662 78.86C167.662 70.2443 171.203 59.6587 176.9 51.2332L178.042 52.0046C172.491 60.2152 169.041 70.5061 169.041 78.86C169.041 86.4176 171.644 93.6777 176.374 99.3011L175.317 100.188Z" fill="#020059"/>
<path d="M143.434 145.917C143.434 145.917 150.264 148.408 160.589 145.171C160.589 145.171 152.437 155.304 144.01 157.925L143.434 145.917Z" fill="#020059"/>
<path d="M87.3978 123.828C86.3637 123.795 77.2882 123.371 76.9463 118.792C76.825 117.169 77.1752 115.926 77.9859 115.105C79.009 114.069 80.3685 114.138 80.4292 114.141L90.0424 114.75C90.2216 114.761 90.3871 114.841 90.5084 114.973L96.9834 122.051L95.9658 122.98L89.6784 116.108L80.3437 115.519C80.3437 115.519 79.5302 115.494 78.9566 116.086C78.4465 116.615 78.2314 117.491 78.3224 118.693C78.4492 120.395 80.8318 121.327 82.8063 121.812C85.1172 122.376 87.4198 122.456 87.4447 122.456L87.4005 123.834L87.3978 123.828Z" fill="#020059"/>
<path d="M181.443 49.9466C180.455 52.4979 177.993 53.9252 175.944 53.1344C173.895 52.3436 173.032 49.6325 174.019 47.0811C175.006 44.5298 177.469 43.1026 179.518 43.8933C181.567 44.6841 182.43 47.3952 181.443 49.9466Z" fill="#756DE7"/>
<path d="M250.304 191.489L249.959 190.155C250.089 190.122 262.901 186.706 268.91 176.153L270.109 176.834C263.805 187.904 250.852 191.348 250.304 191.489Z" fill="#756DE7"/>
<path d="M251.018 197.716L250.673 196.382C250.802 196.349 263.614 192.933 269.626 182.38L270.826 183.061C264.522 194.131 251.569 197.575 251.02 197.716H251.018Z" fill="#756DE7"/>
<path d="M209.049 135.957C210.162 135.957 211.065 135.055 211.065 133.943C211.065 132.831 210.162 131.929 209.049 131.929C207.936 131.929 207.033 132.831 207.033 133.943C207.033 135.055 207.936 135.957 209.049 135.957Z" fill="#FCF594"/>
<path d="M241.336 131.1C242.449 131.1 243.352 130.198 243.352 129.086C243.352 127.973 242.449 127.071 241.336 127.071C240.223 127.071 239.32 127.973 239.32 129.086C239.32 130.198 240.223 131.1 241.336 131.1Z" fill="#FCF594"/>
<path d="M138.526 104.87C139.639 104.87 140.541 103.968 140.541 102.855C140.541 101.743 139.639 100.841 138.526 100.841C137.412 100.841 136.51 101.743 136.51 102.855C136.51 103.968 137.412 104.87 138.526 104.87Z" fill="#FCF594"/>
<path d="M214.376 120.861C216.206 120.861 217.688 119.38 217.688 117.552C217.688 115.725 216.206 114.243 214.376 114.243C212.547 114.243 211.064 115.725 211.064 117.552C211.064 119.38 212.547 120.861 214.376 120.861Z" fill="#FCF594"/>
<path d="M141.788 92.7048C142.08 90.9007 140.853 89.2018 139.047 88.9102C137.241 88.6187 135.541 89.8449 135.249 91.649C134.957 93.4531 136.185 95.152 137.99 95.4436C139.796 95.7351 141.496 94.5089 141.788 92.7048Z" fill="#FCF594"/>
<path d="M224.952 139.936C220.868 139.936 217.548 136.616 217.548 132.538C217.548 128.46 220.871 125.14 224.952 125.14C229.033 125.14 232.356 128.46 232.356 132.538C232.356 136.616 229.033 139.936 224.952 139.936ZM224.952 128.995C222.997 128.995 221.409 130.584 221.409 132.535C221.409 134.486 223 136.076 224.952 136.076C226.905 136.076 228.496 134.486 228.496 132.535C228.496 130.584 226.905 128.995 224.952 128.995Z" fill="#FCF594"/>
<path d="M240.39 111.766C239.419 112.35 238.283 112.689 237.069 112.689C233.52 112.689 230.633 109.804 230.633 106.258C230.633 103.338 232.594 100.866 235.271 100.089C234.48 98.4776 233.669 96.9071 232.836 95.3889C228.485 97.0862 225.394 101.318 225.394 106.258C225.394 112.692 230.63 117.924 237.069 117.924C238.934 117.924 240.696 117.486 242.262 116.704C241.655 115.042 241.032 113.394 240.39 111.766Z" fill="#FCF594"/>
<path d="M130.205 100.144C129.251 99.2297 128.184 98.5105 127.045 97.9843C126.543 99.0919 126.088 100.169 125.663 101.156C125.429 101.701 125.197 102.249 124.974 102.798C125.548 103.081 126.091 103.456 126.579 103.922C129.138 106.377 129.224 110.455 126.767 113.014C125.142 114.706 122.807 115.315 120.672 114.822C120.145 116.488 119.644 118.164 119.158 119.842C123.121 120.875 127.517 119.795 130.547 116.637C135.006 111.995 134.852 104.597 130.205 100.144Z" fill="#FCF594"/>
<path d="M148.292 182.747L111.875 127.385L29.7575 127.683L29.752 126.305L112.241 126.008C112.473 126.008 112.691 126.124 112.818 126.319L149.442 181.992L148.289 182.749L148.292 182.747Z" fill="white"/>
<path d="M43.4249 167.628C43.3394 167.628 43.2539 167.587 43.2015 167.513C43.1243 167.402 43.1353 167.254 43.2291 167.157L73.1027 137.15C73.2103 137.042 73.384 137.042 73.4915 137.15C73.5991 137.257 73.5991 137.431 73.4915 137.538L44.7762 166.383L78.8662 149.708C78.96 149.661 79.0758 149.672 79.1585 149.741C79.2412 149.807 79.2798 149.915 79.255 150.02L75.9348 164.355C75.9017 164.504 75.7528 164.598 75.6039 164.562C75.455 164.529 75.364 164.38 75.3971 164.231L78.5849 150.46L43.5407 167.601C43.5021 167.62 43.4608 167.628 43.4194 167.628H43.4249Z" fill="white"/>
</svg>
