<svg width="40" height="41" viewBox="0 0 40 41" fill="none" xmlns="http://www.w3.org/2000/svg">
<rect y="0.5" width="40" height="40" rx="20" fill="#D7E0E5"/>
<g clip-path="url(#clip0_1_645)">
<path d="M20 10.5C22.717 10.5 23.056 10.51 24.122 10.56C25.187 10.61 25.912 10.777 26.55 11.025C27.21 11.279 27.766 11.623 28.322 12.178C28.8305 12.6779 29.224 13.2826 29.475 13.95C29.722 14.587 29.89 15.313 29.94 16.378C29.987 17.444 30 17.783 30 20.5C30 23.217 29.99 23.556 29.94 24.622C29.89 25.687 29.722 26.412 29.475 27.05C29.2247 27.7178 28.8311 28.3226 28.322 28.822C27.822 29.3303 27.2173 29.7238 26.55 29.975C25.913 30.222 25.187 30.39 24.122 30.44C23.056 30.487 22.717 30.5 20 30.5C17.283 30.5 16.944 30.49 15.878 30.44C14.813 30.39 14.088 30.222 13.45 29.975C12.7823 29.7245 12.1775 29.3309 11.678 28.822C11.1694 28.3222 10.7759 27.7175 10.525 27.05C10.277 26.413 10.11 25.687 10.06 24.622C10.013 23.556 10 23.217 10 20.5C10 17.783 10.01 17.444 10.06 16.378C10.11 15.312 10.277 14.588 10.525 13.95C10.7752 13.2822 11.1688 12.6773 11.678 12.178C12.1777 11.6692 12.7824 11.2757 13.45 11.025C14.088 10.777 14.812 10.61 15.878 10.56C16.944 10.513 17.283 10.5 20 10.5ZM20 15.5C18.6739 15.5 17.4021 16.0268 16.4645 16.9645C15.5268 17.9021 15 19.1739 15 20.5C15 21.8261 15.5268 23.0979 16.4645 24.0355C17.4021 24.9732 18.6739 25.5 20 25.5C21.3261 25.5 22.5979 24.9732 23.5355 24.0355C24.4732 23.0979 25 21.8261 25 20.5C25 19.1739 24.4732 17.9021 23.5355 16.9645C22.5979 16.0268 21.3261 15.5 20 15.5ZM26.5 15.25C26.5 14.9185 26.3683 14.6005 26.1339 14.3661C25.8995 14.1317 25.5815 14 25.25 14C24.9185 14 24.6005 14.1317 24.3661 14.3661C24.1317 14.6005 24 14.9185 24 15.25C24 15.5815 24.1317 15.8995 24.3661 16.1339C24.6005 16.3683 24.9185 16.5 25.25 16.5C25.5815 16.5 25.8995 16.3683 26.1339 16.1339C26.3683 15.8995 26.5 15.5815 26.5 15.25ZM20 17.5C20.7956 17.5 21.5587 17.8161 22.1213 18.3787C22.6839 18.9413 23 19.7044 23 20.5C23 21.2956 22.6839 22.0587 22.1213 22.6213C21.5587 23.1839 20.7956 23.5 20 23.5C19.2044 23.5 18.4413 23.1839 17.8787 22.6213C17.3161 22.0587 17 21.2956 17 20.5C17 19.7044 17.3161 18.9413 17.8787 18.3787C18.4413 17.8161 19.2044 17.5 20 17.5Z" fill="white"/>
</g>
<defs>
<clipPath id="clip0_1_645">
<rect width="24" height="24" fill="white" transform="translate(8 8.5)"/>
</clipPath>
</defs>
</svg>
