<svg width="23" height="23" viewBox="0 0 23 23" fill="none" xmlns="http://www.w3.org/2000/svg">
<path d="M12.6562 0.25C13.9218 0.253375 14.5642 0.260125 15.1188 0.275875L15.337 0.28375C15.589 0.29275 15.8377 0.304 16.138 0.3175C17.335 0.37375 18.1518 0.56275 18.8684 0.840625C19.6109 1.12638 20.2364 1.51337 20.8619 2.13775C21.434 2.70013 21.8766 3.38041 22.159 4.13125C22.4369 4.84787 22.6259 5.66462 22.6822 6.86275C22.6957 7.162 22.7069 7.41062 22.7159 7.66375L22.7227 7.882C22.7395 8.4355 22.7463 9.07788 22.7485 10.3435L22.7497 11.1828V12.6565C22.7524 13.4771 22.7438 14.2977 22.7238 15.118L22.717 15.3363C22.708 15.5894 22.6968 15.838 22.6833 16.1372C22.627 17.3354 22.4358 18.151 22.159 18.8687C21.8774 19.62 21.4347 20.3004 20.8619 20.8623C20.2994 21.4341 19.6191 21.8767 18.8684 22.1594C18.1518 22.4373 17.335 22.6263 16.138 22.6825C15.8711 22.6951 15.6041 22.7063 15.337 22.7162L15.1188 22.723C14.5642 22.7388 13.9218 22.7466 12.6562 22.7489L11.8169 22.75H10.3443C9.52334 22.7528 8.70239 22.7442 7.88167 22.7241L7.66342 22.7174C7.39636 22.7073 7.12935 22.6956 6.86242 22.6825C5.66542 22.6263 4.84867 22.4373 4.13092 22.1594C3.38018 21.8774 2.70017 21.4347 2.13855 20.8623C1.56597 20.3001 1.12292 19.6198 0.840298 18.8687C0.562423 18.1521 0.373422 17.3354 0.317172 16.1372C0.304639 15.8703 0.293389 15.6033 0.283423 15.3363L0.277798 15.118C0.257066 14.2977 0.24769 13.4771 0.249673 12.6565V10.3435C0.246533 9.52293 0.254784 8.70235 0.274423 7.882L0.282298 7.66375C0.291298 7.41062 0.302548 7.162 0.316048 6.86275C0.372298 5.66462 0.561297 4.849 0.839172 4.13125C1.12168 3.37964 1.56561 2.69915 2.13967 2.13775C2.70115 1.56566 3.38071 1.12299 4.13092 0.840625C4.84867 0.56275 5.6643 0.37375 6.86242 0.3175C7.16167 0.304 7.41142 0.29275 7.66342 0.28375L7.88167 0.277C8.70201 0.257012 9.52259 0.248386 10.3432 0.251125L12.6562 0.25ZM11.4997 5.875C10.0078 5.875 8.57709 6.46763 7.5222 7.52252C6.4673 8.57742 5.87467 10.0082 5.87467 11.5C5.87467 12.9918 6.4673 14.4226 7.5222 15.4775C8.57709 16.5324 10.0078 17.125 11.4997 17.125C12.9915 17.125 14.4223 16.5324 15.4771 15.4775C16.532 14.4226 17.1247 12.9918 17.1247 11.5C17.1247 10.0082 16.532 8.57742 15.4771 7.52252C14.4223 6.46763 12.9915 5.875 11.4997 5.875ZM11.4997 8.125C11.9429 8.12493 12.3818 8.21215 12.7913 8.38169C13.2008 8.55123 13.5729 8.79977 13.8863 9.11312C14.1998 9.42646 14.4484 9.79848 14.6181 10.2079C14.7878 10.6174 14.8752 11.0562 14.8752 11.4994C14.8753 11.9426 14.7881 12.3815 14.6185 12.791C14.449 13.2005 14.2005 13.5726 13.8871 13.8861C13.5738 14.1995 13.2018 14.4482 12.7923 14.6179C12.3829 14.7876 11.944 14.8749 11.5008 14.875C10.6057 14.875 9.74725 14.5194 9.11431 13.8865C8.48138 13.2536 8.1258 12.3951 8.1258 11.5C8.1258 10.6049 8.48138 9.74645 9.11431 9.11351C9.74725 8.48058 10.6057 8.125 11.5008 8.125M17.407 4.1875C17.0341 4.1875 16.6764 4.33566 16.4127 4.59938C16.149 4.8631 16.0008 5.22079 16.0008 5.59375C16.0008 5.96671 16.149 6.3244 16.4127 6.58812C16.6764 6.85184 17.0341 7 17.407 7C17.78 7 18.1377 6.85184 18.4014 6.58812C18.6651 6.3244 18.8133 5.96671 18.8133 5.59375C18.8133 5.22079 18.6651 4.8631 18.4014 4.59938C18.1377 4.33566 17.78 4.1875 17.407 4.1875Z" fill="white"/>
</svg>
