<svg width="40" height="41" viewBox="0 0 40 41" fill="none" xmlns="http://www.w3.org/2000/svg">
<rect y="0.5" width="40" height="40" rx="20" fill="#D7E0E5"/>
<g clip-path="url(#clip0_1_647)">
<path d="M29.543 14.998C30 16.78 30 20.5 30 20.5C30 20.5 30 24.22 29.543 26.002C29.289 26.987 28.546 27.762 27.605 28.024C25.896 28.5 20 28.5 20 28.5C20 28.5 14.107 28.5 12.395 28.024C11.45 27.758 10.708 26.984 10.457 26.002C10 24.22 10 20.5 10 20.5C10 20.5 10 16.78 10.457 14.998C10.711 14.013 11.454 13.238 12.395 12.976C14.107 12.5 20 12.5 20 12.5C20 12.5 25.896 12.5 27.605 12.976C28.55 13.242 29.292 14.016 29.543 14.998ZM18 24L24 20.5L18 17V24Z" fill="white"/>
</g>
<defs>
<clipPath id="clip0_1_647">
<rect width="24" height="24" fill="white" transform="translate(8 8.5)"/>
</clipPath>
</defs>
</svg>
